<svg width="20" height="20" viewBox="0 0 20 20" fill="none" xmlns="http://www.w3.org/2000/svg">
<path d="M10 3.125C6.20304 3.125 3.125 6.20304 3.125 10V14.1667C3.125 14.5118 2.84518 14.7917 2.5 14.7917C2.15482 14.7917 1.875 14.5118 1.875 14.1667V10C1.875 5.51269 5.51269 1.875 10 1.875C14.4873 1.875 18.125 5.51269 18.125 10V17.5C18.125 17.8452 17.8452 18.125 17.5 18.125C17.1548 18.125 16.875 17.8452 16.875 17.5V10C16.875 6.20304 13.797 3.125 10 3.125Z" fill="#363538"/>
<path d="M8.33333 6.875C6.83756 6.875 5.625 8.08756 5.625 9.58333V11.6667C5.625 12.0118 5.34518 12.2917 5 12.2917C4.65482 12.2917 4.375 12.0118 4.375 11.6667V9.58333C4.375 7.39721 6.14721 5.625 8.33333 5.625C8.67851 5.625 8.95833 5.90482 8.95833 6.25C8.95833 6.59518 8.67851 6.875 8.33333 6.875Z" fill="#363538"/>
<path d="M9.375 5C9.375 4.65482 9.65482 4.375 10 4.375C13.1066 4.375 15.625 6.8934 15.625 10V10.4167C15.625 10.7618 15.3452 11.0417 15 11.0417C14.6548 11.0417 14.375 10.7618 14.375 10.4167V10C14.375 7.58375 12.4162 5.625 10 5.625C9.65482 5.625 9.375 5.34518 9.375 5Z" fill="#363538"/>
<path d="M9.38508 8.22153C9.44683 7.88192 9.77219 7.65667 10.1118 7.71841C10.9991 7.87975 12.2061 8.43501 12.9033 9.6207C13.6193 10.8382 13.706 12.559 12.6508 14.8452C12.5062 15.1587 12.1348 15.2955 11.8214 15.1508C11.508 15.0062 11.3712 14.6348 11.5159 14.3214C12.4607 12.2743 12.2696 11.009 11.8258 10.2543C11.3633 9.46777 10.5286 9.0647 9.8882 8.94825C9.54859 8.8865 9.32333 8.56114 9.38508 8.22153Z" fill="#363538"/>
<path d="M10 11.875C10.3452 11.875 10.625 12.1548 10.625 12.5V15C10.625 15.3452 10.3452 15.625 10 15.625C9.65482 15.625 9.375 15.3452 9.375 15V12.5C9.375 12.1548 9.65482 11.875 10 11.875Z" fill="#363538"/>
<path d="M15 12.7083C15.3452 12.7083 15.625 12.9882 15.625 13.3333V15.8333C15.625 16.1785 15.3452 16.4583 15 16.4583C14.6548 16.4583 14.375 16.1785 14.375 15.8333V13.3333C14.375 12.9882 14.6548 12.7083 15 12.7083Z" fill="#363538"/>
<path d="M5 13.5417C5.34518 13.5417 5.625 13.8215 5.625 14.1667V16.6667C5.625 17.0118 5.34518 17.2917 5 17.2917C4.65482 17.2917 4.375 17.0118 4.375 16.6667V14.1667C4.375 13.8215 4.65482 13.5417 5 13.5417Z" fill="#363538"/>
<path d="M7.69376 12.649C7.7005 12.738 7.70834 12.8415 7.70834 12.9167C7.70834 13.2618 7.42852 13.5417 7.08334 13.5417C6.73817 13.5417 6.45834 13.2615 6.45834 12.9163L6.45833 12.9154L6.45826 12.9118L6.45779 12.8988C6.4573 12.8876 6.45651 12.8733 6.45536 12.8553C6.45313 12.8206 6.45004 12.7795 6.4462 12.7285L6.44546 12.7186C6.4373 12.6101 6.42687 12.4698 6.4199 12.3129C6.40609 12.0023 6.40451 11.6042 6.46561 11.207C6.52543 10.8182 6.65441 10.3674 6.94943 10.0035C7.26793 9.6107 7.73553 9.375 8.33334 9.375C8.67852 9.375 8.95834 9.65482 8.95834 10C8.95834 10.3452 8.67852 10.625 8.33334 10.625C8.09783 10.625 7.99251 10.7018 7.92038 10.7908C7.82478 10.9087 7.74542 11.1089 7.70108 11.3971C7.65801 11.6771 7.65643 11.9821 7.66867 12.2574C7.67471 12.3934 7.68382 12.5169 7.69194 12.6249L7.69376 12.649Z" fill="#363538"/>
</svg>
