<svg width="20" height="20" viewBox="0 0 20 20" fill="none" xmlns="http://www.w3.org/2000/svg">
<path fill-rule="evenodd" clip-rule="evenodd" d="M3.05377 7.22369L7.91778 3.33249C9.13518 2.35857 10.865 2.35857 12.0824 3.33249L16.9464 7.22369C17.8134 7.91727 18.2781 8.99698 18.1859 10.1034L17.6275 16.805C17.5555 17.6689 16.8334 18.3333 15.9665 18.3333H12.7291C11.5915 18.3333 10.7883 17.2188 11.148 16.1396L11.3587 15.5074C11.7153 14.4378 10.9192 13.3333 9.79176 13.3333C8.66436 13.3333 7.86827 14.4378 8.22479 15.5074L8.43553 16.1396C8.79527 17.2188 7.99198 18.3333 6.85439 18.3333H4.03365C3.16684 18.3333 2.44473 17.6689 2.37274 16.805L1.81427 10.1034C1.72207 8.99698 2.1868 7.91727 3.05377 7.22369ZM3.83464 8.19978L8.69865 4.30857C9.45952 3.69988 10.5407 3.69988 11.3015 4.30857L16.1656 8.19978C16.7074 8.63326 16.9979 9.30808 16.9402 9.9996L16.3818 16.7012C16.3638 16.9172 16.1832 17.0833 15.9665 17.0833H12.7291C12.4447 17.0833 12.2439 16.8047 12.3339 16.5349L12.5446 15.9027C13.1709 14.0237 11.7724 12.0833 9.79176 12.0833C7.81116 12.0833 6.41261 14.0237 7.03893 15.9027L7.24967 16.5349C7.33961 16.8047 7.13879 17.0833 6.85439 17.0833H4.03365C3.81695 17.0833 3.63642 16.9172 3.61842 16.7012L3.05995 9.9996C3.00233 9.30808 3.29279 8.63326 3.83464 8.19978Z" fill="#363538"/>
</svg>
