<svg width="20" height="20" viewBox="0 0 20 20" fill="none" xmlns="http://www.w3.org/2000/svg">
<path d="M1.875 4.16663C1.875 3.82145 2.15482 3.54163 2.5 3.54163H17.5C17.8452 3.54163 18.125 3.82145 18.125 4.16663C18.125 4.5118 17.8452 4.79163 17.5 4.79163H2.5C2.15482 4.79163 1.875 4.5118 1.875 4.16663Z" fill="#363538"/>
<path d="M1.875 9.99996C1.875 9.65478 2.15482 9.37496 2.5 9.37496H17.5C17.8452 9.37496 18.125 9.65478 18.125 9.99996C18.125 10.3451 17.8452 10.625 17.5 10.625H2.5C2.15482 10.625 1.875 10.3451 1.875 9.99996Z" fill="#363538"/>
<path d="M2.5 15.2083C2.15482 15.2083 1.875 15.4881 1.875 15.8333C1.875 16.1785 2.15482 16.4583 2.5 16.4583H17.5C17.8452 16.4583 18.125 16.1785 18.125 15.8333C18.125 15.4881 17.8452 15.2083 17.5 15.2083H2.5Z" fill="#363538"/>
</svg>
