<svg width="20" height="20" viewBox="0 0 20 20" fill="none" xmlns="http://www.w3.org/2000/svg">
<path fill-rule="evenodd" clip-rule="evenodd" d="M6.6665 1.66663H4.99984C3.15889 1.66663 1.6665 3.15901 1.6665 4.99996V7.49996C1.6665 9.34091 3.15889 10.8333 4.99984 10.8333H6.6665C8.50745 10.8333 9.99984 9.34091 9.99984 7.49996V4.99996C9.99984 3.15901 8.50745 1.66663 6.6665 1.66663ZM4.99984 2.91663H6.6665C7.8171 2.91663 8.74984 3.84937 8.74984 4.99996V7.49996C8.74984 8.65055 7.8171 9.58329 6.6665 9.58329H4.99984C3.84924 9.58329 2.9165 8.65055 2.9165 7.49996V4.99996C2.9165 3.84937 3.84924 2.91663 4.99984 2.91663Z" fill="#363538"/>
<path fill-rule="evenodd" clip-rule="evenodd" d="M14.9998 1.66663H14.1665C12.3256 1.66663 10.8332 3.15901 10.8332 4.99996C10.8332 6.84091 12.3256 8.33329 14.1665 8.33329H14.9998C16.8408 8.33329 18.3332 6.84091 18.3332 4.99996C18.3332 3.15901 16.8408 1.66663 14.9998 1.66663ZM14.1665 2.91663H14.9998C16.1504 2.91663 17.0832 3.84937 17.0832 4.99996C17.0832 6.15055 16.1504 7.08329 14.9998 7.08329H14.1665C13.0159 7.08329 12.0832 6.15055 12.0832 4.99996C12.0832 3.84937 13.0159 2.91663 14.1665 2.91663Z" fill="#363538"/>
<path fill-rule="evenodd" clip-rule="evenodd" d="M13.3332 9.16663H14.9998C16.8408 9.16663 18.3332 10.659 18.3332 12.5V15C18.3332 16.8409 16.8408 18.3333 14.9998 18.3333H13.3332C11.4922 18.3333 9.99984 16.8409 9.99984 15V12.5C9.99984 10.659 11.4922 9.16663 13.3332 9.16663ZM13.3332 10.4166C12.1826 10.4166 11.2498 11.3494 11.2498 12.5V15C11.2498 16.1506 12.1826 17.0833 13.3332 17.0833H14.9998C16.1504 17.0833 17.0832 16.1506 17.0832 15V12.5C17.0832 11.3494 16.1504 10.4166 14.9998 10.4166H13.3332Z" fill="#363538"/>
<path fill-rule="evenodd" clip-rule="evenodd" d="M5.83317 11.6666H4.99984C3.15889 11.6666 1.6665 13.159 1.6665 15C1.6665 16.8409 3.15889 18.3333 4.99984 18.3333H5.83317C7.67412 18.3333 9.1665 16.8409 9.1665 15C9.1665 13.159 7.67412 11.6666 5.83317 11.6666ZM4.99984 12.9166H5.83317C6.98376 12.9166 7.9165 13.8494 7.9165 15C7.9165 16.1506 6.98376 17.0833 5.83317 17.0833H4.99984C3.84924 17.0833 2.9165 16.1506 2.9165 15C2.9165 13.8494 3.84924 12.9166 4.99984 12.9166Z" fill="#363538"/>
</svg>
