<svg width="18" height="19" viewBox="0 0 18 19" fill="none" xmlns="http://www.w3.org/2000/svg">
<path fill-rule="evenodd" clip-rule="evenodd" d="M9.15518 2.38626C9.07562 2.29551 8.92414 2.29551 8.84459 2.38626L8.35963 2.93943C7.91912 3.44191 7.20207 3.59852 6.59154 3.33667L5.9091 3.04398C5.78314 2.98995 5.65843 3.06618 5.63205 3.16319L4.98874 2.9883L5.63205 3.16319L5.44064 3.86728C5.26393 4.51727 4.67917 4.96339 4.01522 4.98636L3.27046 5.01212C3.13281 5.01688 3.06538 5.13196 3.0829 5.22151L3.22294 5.93706C3.35284 6.60086 3.02126 7.25936 2.42668 7.56505L2.12186 6.97216L2.42668 7.56505L1.76711 7.90416C1.65908 7.95971 1.64062 8.08004 1.70132 8.16009L2.14506 8.74538C2.55232 9.28254 2.55232 10.0205 2.14506 10.5577L1.7564 10.263L2.14506 10.5577L1.70132 11.143C1.64062 11.223 1.65908 11.3434 1.76711 11.3989L1.46228 11.9918L1.76711 11.3989L2.42668 11.738L2.12186 12.3309L2.42668 11.738C3.02126 12.0437 3.35284 12.7022 3.22294 13.366L3.0829 14.0816C3.06538 14.1711 3.13281 14.2862 3.27045 14.2909L4.01522 14.3167C4.67917 14.3397 5.26393 14.7858 5.44064 15.4358L5.63205 16.1399C5.65843 16.2369 5.78314 16.3131 5.90911 16.2591L6.59154 15.9664C7.20206 15.7045 7.91912 15.8611 8.35963 16.3636L8.84459 16.9168C8.92414 17.0076 9.07562 17.0076 9.15518 16.9168L9.64013 16.3636C10.0806 15.8611 10.7977 15.7045 11.4082 15.9664L12.0907 16.2591C12.2166 16.3131 12.3413 16.2369 12.3677 16.1399L12.5591 15.4358C12.7358 14.7858 13.3206 14.3397 13.9845 14.3167L14.7293 14.2909C14.867 14.2862 14.9344 14.1711 14.9169 14.0816L14.7768 13.366C14.6469 12.7022 14.9785 12.0437 15.5731 11.738L16.2326 11.3989C16.3407 11.3434 16.3591 11.223 16.2984 11.143L15.8547 10.5577C15.4474 10.0205 15.4474 9.28254 15.8547 8.74538L16.2984 8.16009C16.3591 8.08004 16.3407 7.95971 16.2326 7.90416L15.5731 7.56505C14.9785 7.25936 14.6469 6.60086 14.7768 5.93706L14.9169 5.22151C14.9344 5.13196 14.8669 5.01688 14.7293 5.01212L13.9845 4.98636C13.3206 4.96339 12.7358 4.51727 12.5591 3.86728L12.3677 3.16319C12.3413 3.06618 12.2166 2.98995 12.0907 3.04398L11.4082 3.33667C10.7977 3.59852 10.0806 3.44191 9.64013 2.93943L9.15518 2.38626ZM10.1578 1.5073L9.65648 1.94678L10.1578 1.5073L10.6427 2.06047C10.6977 2.12317 10.7959 2.14848 10.8827 2.11128L11.5651 1.81859C12.4105 1.45603 13.4083 1.90828 13.6543 2.8134L13.8458 3.51749C13.8646 3.58687 13.9337 3.65047 14.0306 3.65382L14.7754 3.67958C15.6978 3.71149 16.4072 4.54868 16.2254 5.47758L16.0853 6.19314C16.0722 6.26043 16.1034 6.33849 16.1827 6.37926L16.8423 6.71837C17.673 7.14549 17.9318 8.21262 17.3609 8.96563L16.9172 9.55092C16.8711 9.61176 16.8711 9.6913 16.9172 9.75214L17.3609 10.3374C17.9318 11.0904 17.673 12.1576 16.8423 12.5847L16.1827 12.9238C16.1034 12.9646 16.0722 13.0426 16.0853 13.1099L16.2254 13.8255C16.4072 14.7544 15.6978 15.5916 14.7754 15.6235L14.0306 15.6492C13.9337 15.6526 13.8646 15.7162 13.8458 15.7856L13.6543 16.4897C13.4083 17.3948 12.4105 17.847 11.5651 17.4845L10.8827 17.1918L11.1153 16.6494L10.8827 17.1918C10.7959 17.1546 10.6977 17.1799 10.6427 17.2426L10.1578 17.7958C9.5471 18.4923 8.45266 18.4923 7.84198 17.7958L7.35703 17.2426C7.30206 17.1799 7.20383 17.1546 7.1171 17.1918L6.43466 17.4845C5.5893 17.847 4.59149 17.3948 4.34542 16.4897L4.15401 15.7856C4.13514 15.7162 4.0661 15.6526 3.96912 15.6492L3.22436 15.6235C2.30198 15.5916 1.5926 14.7544 1.77439 13.8255L1.91443 13.1099C1.9276 13.0426 1.89634 12.9646 1.81703 12.9238L1.15746 12.5847C0.326715 12.1576 0.0679272 11.0904 0.638826 10.3374L1.04167 10.6429L0.638827 10.3374L1.08257 9.75214C1.1287 9.6913 1.1287 9.61176 1.08257 9.55092L0.638827 8.96563C0.0679267 8.21262 0.326716 7.14549 1.15746 6.71837L1.81703 6.37926C1.89634 6.33849 1.9276 6.26043 1.91443 6.19314L1.77439 5.47758C1.5926 4.54868 2.30199 3.71149 3.22436 3.67958L3.96912 3.65382C4.0661 3.65047 4.13514 3.58687 4.15401 3.51749L4.69263 3.66392L4.15401 3.51749L4.34542 2.8134C4.59149 1.90828 5.5893 1.45603 6.43466 1.81859L7.1171 2.11128L6.85432 2.72398L7.1171 2.11129C7.20383 2.14848 7.30206 2.12318 7.35703 2.06047L7.84198 1.5073C8.45266 0.810716 9.5471 0.810718 10.1578 1.5073ZM11.5604 7.06139C11.8237 6.80401 12.2458 6.80879 12.5032 7.07207C12.7606 7.33535 12.7558 7.75744 12.4925 8.01482L8.16881 12.2417C7.90973 12.4949 7.49581 12.4949 7.23673 12.2417L5.50725 10.5509C5.24397 10.2935 5.23919 9.87147 5.49657 9.60818C5.75395 9.3449 6.17604 9.34012 6.43932 9.5975L7.70277 10.8327L11.5604 7.06139Z" fill="white"/>
</svg>
