<svg width="36" height="32" viewBox="0 0 36 32" fill="none" xmlns="http://www.w3.org/2000/svg">
<g clip-path="url(#clip0_119_777)">
<path d="M0 8.94917C0.0939041 8.63939 0.154942 8.31467 0.288286 8.02355C0.897723 6.69671 1.95132 5.96611 3.41435 5.90546C4.59566 5.85694 5.78074 5.884 6.96299 5.89333C7.41748 5.89333 7.72549 6.20311 7.72455 6.59687C7.72455 7.00836 7.41091 7.28175 6.92354 7.28362C5.85773 7.28362 4.79192 7.28362 3.73081 7.28362C2.27999 7.28828 1.41044 8.15139 1.41044 9.58646C1.41044 14.673 1.41044 19.7592 1.41044 24.8451C1.41044 26.2858 2.27154 27.1424 3.72611 27.1526C3.97214 27.1526 4.21817 27.147 4.4642 27.1526C4.93372 27.1694 5.19665 27.4279 5.20416 27.8991C5.21167 28.4328 5.20416 28.9665 5.20416 29.5049C5.35159 29.5273 5.39197 29.4116 5.46146 29.3454C6.0615 28.7566 6.66812 28.1744 7.24563 27.5651C7.37355 27.4235 7.53165 27.3121 7.7084 27.239C7.88515 27.1658 8.07609 27.1328 8.26731 27.1424C14.8156 27.1523 21.3635 27.1548 27.9111 27.1498C28.2383 27.1668 28.5661 27.1334 28.883 27.0509C29.7375 26.7831 30.3545 26.0161 30.3582 25.1279C30.3714 22.1476 30.3582 19.1683 30.3723 16.1889C30.3723 15.909 30.2249 15.9342 30.0455 15.9342C27.4569 15.9342 24.868 15.9342 22.2787 15.9342C19.826 15.9342 18.1366 14.2547 18.1348 11.8053C18.1348 10.4197 18.1272 9.03501 18.1413 7.65032C18.1413 7.3704 18.0784 7.27709 17.7789 7.27709C16.3149 7.29295 14.85 7.28735 13.386 7.27709C12.9588 7.27709 12.6761 7.01489 12.6517 6.63513C12.6273 6.25536 12.9024 5.93812 13.3287 5.88866C13.4224 5.88099 13.5165 5.8785 13.6105 5.8812H15.6829C16.3975 5.8812 17.1131 5.87094 17.8267 5.88586C18.07 5.89146 18.1404 5.82521 18.1432 5.57795C18.1498 4.81096 18.0775 4.0421 18.1977 3.2779C18.4794 1.49106 20.056 0.0373157 21.8768 0.017721C25.3319 -0.0183582 28.7872 -0.0183582 32.2429 0.017721C34.2609 0.041048 35.9615 1.78218 35.9812 3.7911C36.0075 6.57292 36.0075 9.35444 35.9812 12.1356C35.9615 14.1698 34.2205 15.8792 32.1715 15.9118C31.8156 15.9174 31.764 16.0275 31.7659 16.3448C31.7778 19.2311 31.7778 22.1174 31.7659 25.0038C31.7602 26.7169 30.6277 28.1025 28.9609 28.4618C28.6153 28.5264 28.2636 28.5539 27.912 28.5439C21.4928 28.5439 15.0735 28.5417 8.65419 28.5373C8.52781 28.5329 8.402 28.5563 8.28577 28.6058C8.16953 28.6553 8.06575 28.7298 7.98184 28.8238C7.0428 29.7793 6.07935 30.7189 5.12904 31.6678C4.87362 31.9225 4.60036 32.1008 4.22474 31.9384C3.84913 31.7761 3.78715 31.4653 3.79279 31.0986C3.80218 30.3419 3.79279 29.5852 3.79279 28.8285C3.79279 28.6624 3.79279 28.5644 3.56366 28.5485C1.53158 28.3572 0.581266 27.5557 0.02911 25.5683C0.0214806 25.5464 0.0120598 25.5252 0.000939958 25.5048L0 8.94917ZM27.0369 14.5365C28.6533 14.5365 30.2697 14.5365 31.8861 14.5365C33.5003 14.5365 34.5802 13.4681 34.582 11.8716C34.582 9.27699 34.582 6.68147 34.582 4.08502C34.582 2.48012 33.5078 1.40801 31.9001 1.40708C28.6792 1.40708 25.4583 1.40708 22.2374 1.40708C20.6232 1.40708 19.5433 2.47546 19.5414 4.07102C19.5414 6.66685 19.5414 9.26237 19.5414 11.8576C19.5414 13.4606 20.6176 14.5337 22.2224 14.5365C23.8272 14.5393 25.432 14.5393 27.0369 14.5393V14.5365Z" fill="white"/>
<path d="M11.6731 21.8425C13.7452 21.8425 15.8174 21.8425 17.8895 21.8425C18.4144 21.8425 18.7149 22.1056 18.713 22.5386C18.7166 22.6971 18.6628 22.8517 18.5615 22.9742C18.4602 23.0968 18.3181 23.1792 18.1609 23.2066C18.0109 23.2302 17.8591 23.2402 17.7073 23.2365C13.6676 23.2365 9.62971 23.2365 5.59372 23.2365C5.43004 23.2412 5.26633 23.2283 5.10541 23.1982C4.95551 23.1616 4.82224 23.0762 4.72678 22.9557C4.63133 22.8351 4.57917 22.6863 4.57861 22.533C4.58025 22.3741 4.63731 22.2208 4.74007 22.0991C4.84283 21.9774 4.9849 21.895 5.14204 21.8658C5.28103 21.8462 5.42148 21.8387 5.56179 21.8434C7.59637 21.8415 9.63347 21.8412 11.6731 21.8425Z" fill="white"/>
<path d="M19.9282 18.3024H25.8667C25.9831 18.3024 26.1014 18.2977 26.2179 18.308C26.377 18.3204 26.5268 18.3874 26.6416 18.4976C26.7564 18.6077 26.829 18.7541 26.847 18.9117C26.8653 19.0693 26.8287 19.2283 26.7433 19.3623C26.6578 19.4962 26.5287 19.5971 26.3775 19.6479C26.2201 19.6939 26.0556 19.7109 25.892 19.6983H13.9127C13.7373 19.712 13.5609 19.6901 13.3943 19.6339C13.2522 19.5763 13.1335 19.4733 13.0568 19.3412C12.9801 19.209 12.9499 19.0553 12.9708 18.9042C12.9896 18.7529 13.0588 18.6122 13.1674 18.5045C13.2759 18.3968 13.4177 18.3283 13.5699 18.3099C13.6864 18.3001 13.8034 18.2972 13.9202 18.3015L19.9282 18.3024Z" fill="white"/>
<path d="M10.1794 12.6069H5.57812C5.43759 12.6111 5.29694 12.6045 5.15742 12.5873C5.00052 12.5608 4.85761 12.4813 4.75276 12.3624C4.64791 12.2434 4.58753 12.0921 4.58179 11.9341C4.57768 11.7816 4.62486 11.6321 4.71584 11.5093C4.80683 11.3864 4.93645 11.2972 5.08418 11.2558C5.20894 11.2257 5.33709 11.2119 5.46543 11.2147C8.61685 11.2147 11.7676 11.2147 14.9178 11.2147C15.4643 11.2147 15.7874 11.4778 15.7911 11.9098C15.7911 12.3195 15.4831 12.6041 14.9958 12.6078C13.9534 12.6153 12.9111 12.6078 11.8678 12.6078L10.1794 12.6069Z" fill="white"/>
<path d="M10.196 16.1479C8.57897 16.1479 6.96288 16.1479 5.34585 16.1479C4.89605 16.1479 4.58148 15.8521 4.5796 15.4565C4.57772 15.0608 4.89512 14.7706 5.3421 14.7538C5.436 14.7538 5.52991 14.7538 5.62381 14.7538H14.7964C14.9015 14.7538 15.0076 14.7492 15.1119 14.7538C15.2955 14.7623 15.4687 14.8412 15.595 14.974C15.7213 15.1068 15.7908 15.2831 15.7889 15.4658C15.7847 15.6486 15.7079 15.8223 15.5753 15.9491C15.4426 16.0758 15.2649 16.1453 15.0809 16.1423C14.4837 16.1535 13.8864 16.1423 13.2892 16.1423L10.196 16.1479Z" fill="white"/>
<path d="M24.1992 21.8462C24.9589 21.8462 25.7186 21.8369 26.4774 21.8462C26.6445 21.8388 26.8083 21.8942 26.9362 22.0014C27.0641 22.1086 27.1467 22.2597 27.1676 22.4247C27.194 22.5745 27.1691 22.7288 27.097 22.8629C27.0248 22.9971 26.9095 23.1033 26.7694 23.1646C26.6497 23.2112 26.5223 23.2349 26.3938 23.2346C24.9326 23.2393 23.4724 23.244 22.0113 23.2346C21.5211 23.2346 21.2244 22.9435 21.2291 22.5283C21.2338 22.1131 21.5333 21.849 22.0291 21.8443C22.7541 21.8378 23.4781 21.8443 24.203 21.8443L24.1992 21.8462Z" fill="white"/>
<path d="M7.27183 18.3024C7.92915 18.3024 8.58085 18.3024 9.23536 18.3024C9.70488 18.3024 9.9941 18.5711 10.0007 18.9798C10.0073 19.3885 9.71897 19.6889 9.26259 19.6927C7.9542 19.7026 6.6458 19.7026 5.3374 19.6927C4.89042 19.6927 4.57772 19.381 4.5796 18.9891C4.58148 18.5972 4.8923 18.3061 5.34491 18.3024C5.98722 18.2977 6.62952 18.3024 7.27183 18.3024Z" fill="white"/>
<path d="M10.197 7.28547C10.1061 7.28858 10.0155 7.27369 9.93044 7.24167C9.84541 7.20965 9.76764 7.16114 9.70165 7.09896C9.63567 7.03678 9.5828 6.96219 9.54611 6.87951C9.50943 6.79683 9.48966 6.70772 9.48797 6.61738C9.48585 6.52414 9.50246 6.43142 9.53682 6.34463C9.57118 6.25785 9.6226 6.17874 9.68809 6.11193C9.75357 6.04512 9.83181 5.99196 9.91821 5.95554C10.0046 5.91912 10.0975 5.90019 10.1913 5.89984C10.3749 5.90481 10.5495 5.9796 10.6791 6.10878C10.8088 6.23796 10.8836 6.41167 10.8881 6.59405C10.8883 6.7767 10.8158 6.952 10.6862 7.08158C10.5567 7.21117 10.3808 7.28448 10.197 7.28547Z" fill="white"/>
<path d="M28.7479 4.19047C28.7198 4.06077 28.6897 3.9628 28.6785 3.86202C28.6155 3.31524 29.148 2.89255 29.6391 3.14262C30.3462 3.50185 31.0354 3.90028 31.705 4.32203C32.1369 4.59356 32.1172 5.1926 31.6778 5.46412C31.0317 5.86161 30.3631 6.22832 29.7058 6.60248C29.5894 6.67286 29.4538 6.70554 29.3179 6.69601C29.1819 6.68648 29.0523 6.63521 28.947 6.5493C28.8334 6.47359 28.7473 6.36365 28.7013 6.23565C28.6553 6.10764 28.6519 5.96836 28.6916 5.83829C28.7498 5.63488 28.7226 5.58262 28.5038 5.58356C26.9337 5.59102 25.364 5.59102 23.7945 5.58356C23.5813 5.58356 23.5128 5.64327 23.5128 5.85788C23.525 6.45132 23.5278 7.0457 23.5128 7.63913C23.4996 8.12154 23.156 8.43412 22.7325 8.3856C22.5667 8.37116 22.4124 8.29567 22.2998 8.17396C22.1872 8.05224 22.1245 7.8931 22.1239 7.72778C22.1099 6.77324 22.107 5.81869 22.1239 4.86508C22.1315 4.42654 22.416 4.19513 22.8958 4.1942C24.7113 4.19047 26.5268 4.19047 28.3423 4.1942L28.7479 4.19047Z" fill="white"/>
<path d="M28.4578 11.754C27.5188 11.754 26.5797 11.754 25.6472 11.754C25.4594 11.754 25.3383 11.7484 25.4266 12.0106C25.4702 12.1397 25.47 12.2793 25.4261 12.4083C25.3821 12.5372 25.2969 12.6482 25.1834 12.7244C25.0733 12.8142 24.9377 12.8673 24.7956 12.8762C24.6535 12.8851 24.5122 12.8493 24.3918 12.7739C23.7504 12.4118 23.1071 12.0545 22.4789 11.6719C21.9747 11.364 21.984 10.751 22.493 10.4458C23.1137 10.0726 23.7476 9.7227 24.3767 9.36347C24.4954 9.28576 24.6355 9.24693 24.7775 9.25245C24.9195 9.25798 25.0562 9.30757 25.1683 9.39426C25.2882 9.47157 25.3784 9.58662 25.4245 9.72097C25.4707 9.85531 25.4701 10.0012 25.4228 10.1351C25.3514 10.3563 25.4407 10.3609 25.6106 10.3609C27.192 10.3609 28.7733 10.3553 30.3547 10.3609C30.5641 10.3609 30.6091 10.2816 30.6073 10.0941C30.5997 9.48943 30.5997 8.88417 30.6073 8.27829C30.6011 8.13722 30.6392 7.99772 30.7162 7.87906C30.7933 7.76039 30.9055 7.66841 31.0373 7.61581C31.1554 7.56166 31.2868 7.54313 31.4154 7.56254C31.5439 7.58195 31.6639 7.63843 31.7604 7.72498C31.9482 7.87427 32.0074 8.08328 32.0074 8.31468C32.0074 9.21137 32.0149 10.1071 32.0074 11.0029C32.0017 11.5012 31.7397 11.7494 31.2383 11.7494C30.3086 11.7578 29.3837 11.754 28.4578 11.754Z" fill="white"/>
</g>
<defs>
<clipPath id="clip0_119_777">
<rect width="36" height="32" fill="white"/>
</clipPath>
</defs>
</svg>
