<svg width="26" height="26" viewBox="0 0 26 26" fill="none" xmlns="http://www.w3.org/2000/svg">
<path d="M6.75 0.8125C7.26777 0.8125 7.6875 1.23223 7.6875 1.75H18.3125C18.3125 1.23223 18.7322 0.8125 19.25 0.8125C19.7678 0.8125 20.1875 1.23223 20.1875 1.75H20.5C23.2614 1.75 25.5 3.98858 25.5 6.75V14.5625C25.5 15.0803 25.0803 15.5 24.5625 15.5C24.0447 15.5 23.625 15.0803 23.625 14.5625V6.75C23.625 5.02411 22.2259 3.625 20.5 3.625H20.1875V5.5C20.1875 6.01777 19.7678 6.4375 19.25 6.4375C18.7322 6.4375 18.3125 6.01777 18.3125 5.5V3.625H7.6875V5.5C7.6875 6.01777 7.26777 6.4375 6.75 6.4375C6.23223 6.4375 5.8125 6.01777 5.8125 5.5V3.625H5.5C3.77411 3.625 2.375 5.02411 2.375 6.75V20.5C2.375 22.2259 3.77411 23.625 5.5 23.625H14.5625C15.0803 23.625 15.5 24.0447 15.5 24.5625C15.5 25.0803 15.0803 25.5 14.5625 25.5H5.5C2.73858 25.5 0.5 23.2614 0.5 20.5V6.75C0.5 3.98858 2.73858 1.75 5.5 1.75H5.8125C5.8125 1.23223 6.23223 0.8125 6.75 0.8125Z" fill="white"/>
<path d="M8 10.5C8 11.1904 7.44036 11.75 6.75 11.75C6.05964 11.75 5.5 11.1904 5.5 10.5C5.5 9.80964 6.05964 9.25 6.75 9.25C7.44036 9.25 8 9.80964 8 10.5Z" fill="white"/>
<path d="M13 11.75C13.6904 11.75 14.25 11.1904 14.25 10.5C14.25 9.80964 13.6904 9.25 13 9.25C12.3096 9.25 11.75 9.80964 11.75 10.5C11.75 11.1904 12.3096 11.75 13 11.75Z" fill="white"/>
<path d="M20.5 10.5C20.5 11.1904 19.9404 11.75 19.25 11.75C18.5596 11.75 18 11.1904 18 10.5C18 9.80964 18.5596 9.25 19.25 9.25C19.9404 9.25 20.5 9.80964 20.5 10.5Z" fill="white"/>
<path d="M6.75 16.125C7.44036 16.125 8 15.5654 8 14.875C8 14.1846 7.44036 13.625 6.75 13.625C6.05964 13.625 5.5 14.1846 5.5 14.875C5.5 15.5654 6.05964 16.125 6.75 16.125Z" fill="white"/>
<path d="M14.25 14.875C14.25 15.5654 13.6904 16.125 13 16.125C12.3096 16.125 11.75 15.5654 11.75 14.875C11.75 14.1846 12.3096 13.625 13 13.625C13.6904 13.625 14.25 14.1846 14.25 14.875Z" fill="white"/>
<path d="M20.5 14.875L20.5 14.8846C20.3966 14.8782 20.2924 14.875 20.1875 14.875C19.4376 14.875 18.7262 15.0401 18.0877 15.3359C18.0311 15.1933 18 15.0378 18 14.875C18 14.1846 18.5596 13.625 19.25 13.625C19.9404 13.625 20.5 14.1846 20.5 14.875Z" fill="white"/>
<path d="M8 19.25C8 19.9404 7.44036 20.5 6.75 20.5C6.05964 20.5 5.5 19.9404 5.5 19.25C5.5 18.5596 6.05964 18 6.75 18C7.44036 18 8 18.5596 8 19.25Z" fill="white"/>
<path d="M13 20.5C13.6904 20.5 14.25 19.9404 14.25 19.25C14.25 18.5596 13.6904 18 13 18C12.3096 18 11.75 18.5596 11.75 19.25C11.75 19.9404 12.3096 20.5 13 20.5Z" fill="white"/>
<path d="M21.4375 19.25C21.4375 18.7322 21.0178 18.3125 20.5 18.3125C19.9822 18.3125 19.5625 18.7322 19.5625 19.25V21C19.5625 21.5178 19.9822 21.9375 20.5 21.9375H21.75C22.2678 21.9375 22.6875 21.5178 22.6875 21C22.6875 20.4822 22.2678 20.0625 21.75 20.0625H21.4375V19.25Z" fill="white"/>
<path fill-rule="evenodd" clip-rule="evenodd" d="M20.5 25.5C23.2614 25.5 25.5 23.2614 25.5 20.5C25.5 17.7386 23.2614 15.5 20.5 15.5C17.7386 15.5 15.5 17.7386 15.5 20.5C15.5 23.2614 17.7386 25.5 20.5 25.5ZM20.5 23.625C22.2259 23.625 23.625 22.2259 23.625 20.5C23.625 18.7741 22.2259 17.375 20.5 17.375C18.7741 17.375 17.375 18.7741 17.375 20.5C17.375 22.2259 18.7741 23.625 20.5 23.625Z" fill="white"/>
</svg>
