<svg width="16" height="16" viewBox="0 0 16 16" fill="none" xmlns="http://www.w3.org/2000/svg">
<path fill-rule="evenodd" clip-rule="evenodd" d="M8.12935 1.9456C8.06306 1.86998 7.93683 1.86998 7.87053 1.9456L7.4664 2.40658C7.09931 2.82531 6.50176 2.95582 5.99299 2.73761L5.42429 2.4937C5.31933 2.44868 5.2154 2.5122 5.19342 2.59304L4.65732 2.4473L5.19342 2.59304L5.03391 3.17978C4.88665 3.72144 4.39935 4.09321 3.84605 4.11235L3.22542 4.13382C3.11071 4.13778 3.05452 4.23368 3.06913 4.30831L3.18582 4.9046C3.29408 5.45777 3.01776 6.00652 2.52228 6.26126L2.26825 5.76718L2.52228 6.26126L1.97263 6.54385C1.8826 6.59014 1.86723 6.69042 1.9178 6.75712L2.28759 7.24487C2.62697 7.6925 2.62697 8.30749 2.28759 8.75512L1.96371 8.50956L2.28759 8.75512L1.9178 9.24286C1.86723 9.30957 1.8826 9.40985 1.97263 9.45613L1.71861 9.95021L1.97263 9.45613L2.52228 9.73872L2.26825 10.2328L2.52228 9.73872C3.01776 9.99347 3.29408 10.5422 3.18582 11.0954L3.06913 11.6917C3.05452 11.7663 3.11072 11.8622 3.22542 11.8662L3.84605 11.8876C4.39935 11.9068 4.88665 12.2785 5.03391 12.8202L5.19342 13.4069C5.2154 13.4878 5.31932 13.5513 5.42429 13.5063L5.99299 13.2624C6.50176 13.0442 7.09931 13.1747 7.4664 13.5934L7.87053 14.0544C7.93683 14.13 8.06306 14.13 8.12935 14.0544L8.53348 13.5934C8.90057 13.1747 9.49812 13.0442 10.0069 13.2624L10.5756 13.5063C10.6806 13.5513 10.7845 13.4878 10.8065 13.4069L10.966 12.8202C11.1132 12.2785 11.6005 11.9068 12.1538 11.8876L12.7745 11.8662C12.8892 11.8622 12.9454 11.7663 12.9308 11.6917L12.8141 11.0954C12.7058 10.5422 12.9821 9.99347 13.4776 9.73872L14.0272 9.45613C14.1173 9.40985 14.1327 9.30957 14.0821 9.24286L13.7123 8.75512C13.3729 8.30749 13.3729 7.6925 13.7123 7.24487L14.0821 6.75712C14.1327 6.69041 14.1173 6.59014 14.0272 6.54386L13.4776 6.26126C12.9821 6.00652 12.7058 5.45777 12.8141 4.9046L12.9308 4.30831C12.9454 4.23368 12.8892 4.13778 12.7745 4.13382L12.1538 4.11235C11.6005 4.09321 11.1132 3.72144 10.966 3.17978L10.8065 2.59304C10.7845 2.5122 10.6806 2.44868 10.5756 2.4937L10.0069 2.73761C9.49812 2.95582 8.90057 2.82531 8.53348 2.40658L8.12935 1.9456ZM8.96486 1.21314L8.5471 1.57937L8.96486 1.21314L9.36898 1.67411C9.41479 1.72636 9.49665 1.74745 9.56892 1.71646L10.1376 1.47255C10.8421 1.17041 11.6736 1.54728 11.8787 2.30155L12.0382 2.88829C12.0539 2.94611 12.1114 2.99911 12.1922 3.0019L12.8129 3.02337C13.5815 3.04996 14.1727 3.74762 14.0212 4.5217L13.9045 5.118C13.8935 5.17408 13.9196 5.23912 13.9857 5.27311L14.5353 5.5557C15.2276 5.91162 15.4432 6.8009 14.9675 7.42841L14.5977 7.91615C14.5593 7.96685 14.5593 8.03314 14.5977 8.08384L14.9675 8.57158C15.4432 9.19909 15.2276 10.0884 14.5353 10.4443L13.9857 10.7269C13.9196 10.7609 13.8935 10.8259 13.9045 10.882L14.0212 11.4783C14.1727 12.2524 13.5815 12.95 12.8129 12.9766L12.1922 12.9981C12.1114 13.0009 12.0539 13.0539 12.0382 13.1117L11.8787 13.6984C11.6736 14.4527 10.8421 14.8296 10.1376 14.5274L9.56893 14.2835L9.76278 13.8315L9.56892 14.2835C9.49665 14.2525 9.41479 14.2736 9.36898 14.3259L8.96486 14.7868C8.45596 15.3673 7.54393 15.3673 7.03503 14.7869L6.6309 14.3259C6.58509 14.2736 6.50323 14.2525 6.43096 14.2835L5.86226 14.5274C5.15779 14.8296 4.32628 14.4527 4.12122 13.6984L3.96171 13.1117C3.94599 13.0539 3.88846 13.0009 3.80764 12.9981L3.18701 12.9766C2.41836 12.95 1.82721 12.2524 1.9787 11.4783L2.0954 10.882C2.10637 10.8259 2.08033 10.7609 2.01423 10.7269L1.46459 10.4443C0.772303 10.0884 0.556647 9.19908 1.0324 8.57158L1.3681 8.8261L1.0324 8.57158L1.40219 8.08384C1.44063 8.03314 1.44063 7.96685 1.40219 7.91615L1.0324 7.42841C0.556646 6.8009 0.772304 5.91162 1.46459 5.5557L2.01423 5.27311C2.08032 5.23912 2.10637 5.17408 2.0954 5.118L1.9787 4.5217C1.82721 3.74762 2.41836 3.04996 3.18701 3.02337L3.80764 3.0019C3.88846 2.99911 3.94599 2.94611 3.96171 2.88829L4.41057 3.01032L3.96171 2.88829L4.12122 2.30155C4.32628 1.54728 5.15779 1.17041 5.86226 1.47255L6.43096 1.71646L6.21198 2.22703L6.43096 1.71646C6.50323 1.74745 6.58509 1.72636 6.6309 1.67411L7.03503 1.21314C7.54393 0.632648 8.45596 0.63265 8.96486 1.21314ZM10.1337 5.84154C10.3532 5.62706 10.7049 5.63104 10.9194 5.85044C11.1339 6.06985 11.1299 6.42158 10.9105 6.63607L7.30738 10.1584C7.09148 10.3695 6.74655 10.3695 6.53065 10.1584L5.08942 8.7495C4.87001 8.53501 4.86603 8.18327 5.08052 7.96387C5.295 7.74447 5.64674 7.74049 5.86614 7.95497L6.91902 8.98426L10.1337 5.84154Z" fill="#34A853"/>
</svg>
