<svg width="24" height="19" viewBox="0 0 24 19" fill="none" xmlns="http://www.w3.org/2000/svg">
<path d="M5.69992 3.14175C5.40997 2.75515 4.86152 2.6768 4.47492 2.96675C4.08832 3.2567 4.00997 3.80515 4.29992 4.19175L7.56658 8.5473C9.78325 11.5029 14.2166 11.5029 16.4333 8.5473L19.6999 4.19175C19.9899 3.80515 19.9115 3.2567 19.5249 2.96675C19.1383 2.6768 18.5899 2.75515 18.2999 3.14175L15.0333 7.4973C13.5166 9.51953 10.4833 9.51953 8.96658 7.4973L5.69992 3.14175Z" fill="white"/>
<path fill-rule="evenodd" clip-rule="evenodd" d="M18.9999 0.166748H4.99992C2.42259 0.166748 0.333252 2.25609 0.333252 4.83342V14.1668C0.333252 16.7441 2.42259 18.8334 4.99992 18.8334H18.9999C21.5772 18.8334 23.6666 16.7441 23.6666 14.1668V4.83342C23.6666 2.25609 21.5772 0.166748 18.9999 0.166748ZM4.99992 1.91675H18.9999C20.6107 1.91675 21.9166 3.22258 21.9166 4.83342V14.1668C21.9166 15.7776 20.6107 17.0834 18.9999 17.0834H4.99992C3.38909 17.0834 2.08325 15.7776 2.08325 14.1668V4.83342C2.08325 3.22258 3.38909 1.91675 4.99992 1.91675Z" fill="white"/>
</svg>
