<svg width="23" height="22" viewBox="0 0 23 22" fill="none" xmlns="http://www.w3.org/2000/svg">
<path fill-rule="evenodd" clip-rule="evenodd" d="M2.5697 1.7287L1.56703 3.73405C0.761744 5.34462 0.41964 7.16945 1.00646 8.87182C1.71134 10.9167 3.12065 13.8472 5.8866 16.6131C8.65255 19.3791 11.5831 20.7884 13.6279 21.4933C15.3303 22.0801 17.1551 21.738 18.7657 20.9327L20.8381 19.8965C22.2431 19.194 22.5666 17.332 21.4809 16.1968L19.1949 13.8065C18.3938 12.9689 17.0955 12.856 16.1619 13.5429C15.115 14.3132 13.7152 14.4445 12.6178 13.748C11.963 13.3324 11.2662 12.8363 10.7719 12.3419C10.1983 11.7683 9.62234 10.9221 9.17248 10.1853C8.59785 9.24417 8.60605 8.07706 9.0992 7.09076L9.40572 6.47772C9.85487 5.57941 9.67881 4.49448 8.96864 3.7843L6.30661 1.12228C5.18045 -0.00388515 3.28195 0.304202 2.5697 1.7287ZM4.13495 2.51132L3.13228 4.51667C2.46062 5.85999 2.27547 7.18329 2.66092 8.30151C3.30077 10.1577 4.58766 12.8393 7.12404 15.3757C9.66042 17.9121 12.3421 19.199 14.1982 19.8388C15.3165 20.2243 16.6398 20.0391 17.9831 19.3675L20.0555 18.3313C20.4067 18.1557 20.4876 17.6902 20.2162 17.4063L17.9302 15.016C17.7371 14.8141 17.4241 14.7869 17.1991 14.9525C15.6491 16.0929 13.4648 16.3583 11.68 15.2255C10.9926 14.7891 10.1664 14.2113 9.53443 13.5794C8.80776 12.8527 8.14402 11.8591 7.67887 11.0973C6.75336 9.58141 6.80404 7.76797 7.53395 6.30813L7.84047 5.69509C7.95276 5.47052 7.90875 5.19928 7.7312 5.02174L5.06918 2.35971C4.78764 2.07818 4.31301 2.15519 4.13495 2.51132Z" fill="white"/>
<path d="M16.1248 5.97468C15.3623 5.21226 14.436 4.80172 13.7324 4.90222C13.4135 4.94778 13.118 4.72616 13.0724 4.40724C13.0269 4.08831 13.2485 3.79283 13.5674 3.74727C14.7887 3.57281 16.0622 4.26222 16.9497 5.14973C17.8372 6.03723 18.5266 7.31073 18.3521 8.53206C18.3066 8.85099 18.0111 9.0726 17.6922 9.02704C17.3732 8.98147 17.1516 8.686 17.1972 8.36707C17.2977 7.66349 16.8872 6.7371 16.1248 5.97468Z" fill="white"/>
<path d="M13.0318 7.34504C14.1565 6.91844 15.181 7.94292 14.7544 9.06764C14.6401 9.36887 14.7917 9.70568 15.0929 9.81994C15.3941 9.9342 15.7309 9.78263 15.8452 9.48141C16.6285 7.41628 14.6832 5.4709 12.6181 6.2542C12.3168 6.36846 12.1653 6.70527 12.2795 7.0065C12.3938 7.30772 12.7306 7.45929 13.0318 7.34504Z" fill="white"/>
</svg>
