<svg width="24" height="24" viewBox="0 0 24 24" fill="none" xmlns="http://www.w3.org/2000/svg">
<path fill-rule="evenodd" clip-rule="evenodd" d="M5.58325 6.66683C5.90542 6.66683 6.16659 6.40566 6.16659 6.0835C6.16659 5.76133 5.90542 5.50016 5.58325 5.50016C5.26109 5.50016 4.99992 5.76133 4.99992 6.0835C4.99992 6.40566 5.26109 6.66683 5.58325 6.66683ZM5.58325 8.41683C6.87192 8.41683 7.91659 7.37216 7.91659 6.0835C7.91659 4.79483 6.87192 3.75016 5.58325 3.75016C4.29459 3.75016 3.24992 4.79483 3.24992 6.0835C3.24992 7.37216 4.29459 8.41683 5.58325 8.41683Z" fill="white"/>
<path fill-rule="evenodd" clip-rule="evenodd" d="M23.6666 17.7502C23.6666 14.8507 21.3161 12.5002 18.4166 12.5002C15.5171 12.5002 13.1666 14.8507 13.1666 17.7502C13.2443 18.5229 13.4476 19.2608 13.7588 19.9485C14.3752 21.3107 15.4153 22.476 16.7428 23.3253C17.383 23.7349 18.1403 23.875 18.8627 23.753C19.2847 23.6817 19.6949 23.521 20.0628 23.2723C21.9562 21.9924 23.4381 20.0219 23.6666 17.7502ZM14.9176 17.6648C15.1148 19.3355 16.1093 20.8425 17.6859 21.8512C18.1005 22.1164 18.6528 22.1131 19.0828 21.8224C20.6481 20.7644 21.723 19.2472 21.9155 17.6636C21.8696 15.7706 20.3206 14.2502 18.4166 14.2502C16.5121 14.2502 14.963 15.7712 14.9176 17.6648Z" fill="white"/>
<path fill-rule="evenodd" clip-rule="evenodd" d="M18.4166 18.3335C18.7388 18.3335 18.9999 18.0723 18.9999 17.7502C18.9999 17.428 18.7388 17.1668 18.4166 17.1668C18.0944 17.1668 17.8333 17.428 17.8333 17.7502C17.8333 18.0723 18.0944 18.3335 18.4166 18.3335ZM18.4166 20.0835C19.7052 20.0835 20.7499 19.0388 20.7499 17.7502C20.7499 16.4615 19.7052 15.4168 18.4166 15.4168C17.1279 15.4168 16.0833 16.4615 16.0833 17.7502C16.0833 19.0388 17.1279 20.0835 18.4166 20.0835Z" fill="white"/>
<path d="M6.51202 11.9635C5.94305 12.159 5.32816 12.1818 4.74939 12.0281C4.71765 12.2499 4.63802 12.5101 4.50065 12.8203C4.2796 13.3195 3.96295 13.8351 3.60712 14.4146C3.55591 14.498 3.50388 14.5827 3.45121 14.6689C3.05463 15.3179 2.61871 16.055 2.37307 16.8026C2.121 17.5697 2.0366 18.4468 2.46728 19.3081C3.23795 20.8495 4.64697 21.3944 5.89494 21.4774C7.10267 21.5578 8.2997 21.224 8.95008 20.8338C9.39192 20.5687 10.0289 20.5193 10.9092 20.7332C11.7789 20.9446 12.7421 21.3783 13.7117 21.8811C14.187 22.1276 14.6507 22.3835 15.0979 22.6303L15.1124 22.6383C15.559 22.8848 15.995 23.1253 16.39 23.3252C16.7788 23.5219 17.1686 23.7005 17.5202 23.8076C17.815 23.8974 18.3326 24.0204 18.8079 23.7828C18.8266 23.7734 18.8449 23.7635 18.8627 23.753C18.1403 23.875 17.383 23.7349 16.7428 23.3253C15.4153 22.476 14.3752 21.3107 13.7588 19.9485C12.97 19.5711 12.1365 19.2305 11.3224 19.0327C10.2521 18.7726 9.06622 18.7233 8.04971 19.3332C7.72788 19.5263 6.8902 19.7898 6.01113 19.7313C5.1723 19.6755 4.44243 19.3453 4.03253 18.5255C3.87989 18.2203 3.86841 17.8577 4.03562 17.3488C4.20925 16.8204 4.53895 16.245 4.94446 15.5814C4.99317 15.5017 5.04314 15.4205 5.09388 15.338C5.44256 14.7713 5.82818 14.1445 6.10076 13.529C6.31042 13.0555 6.48469 12.5229 6.51202 11.9635Z" fill="white"/>
<path fill-rule="evenodd" clip-rule="evenodd" d="M10.8333 6.0835C10.8333 3.184 8.48275 0.833496 5.58325 0.833496C2.68376 0.833496 0.333252 3.184 0.333252 6.0835C0.564949 8.38683 1.91183 10.3805 3.90943 11.6586C4.1731 11.8273 4.45662 11.9503 4.74939 12.0281C5.32816 12.1818 5.94305 12.159 6.51202 11.9635C6.76239 11.8775 7.00386 11.7581 7.22946 11.6056C9.12291 10.3258 10.6047 8.35524 10.8333 6.0835ZM2.08427 5.99808C2.28149 7.66887 3.276 9.1758 4.85258 10.1845C5.26715 10.4498 5.81942 10.4464 6.24945 10.1558C7.81479 9.0977 8.88966 7.58056 9.0822 5.9969C9.03623 4.10391 7.4873 2.5835 5.58325 2.5835C3.67881 2.5835 2.12962 4.10455 2.08427 5.99808Z" fill="white"/>
<path fill-rule="evenodd" clip-rule="evenodd" d="M5.58325 8.41683C6.87192 8.41683 7.91659 7.37216 7.91659 6.0835C7.91659 4.79483 6.87192 3.75016 5.58325 3.75016C4.29459 3.75016 3.24992 4.79483 3.24992 6.0835C3.24992 7.37216 4.29459 8.41683 5.58325 8.41683ZM5.58325 6.66683C5.90542 6.66683 6.16659 6.40566 6.16659 6.0835C6.16659 5.76133 5.90542 5.50016 5.58325 5.50016C5.26109 5.50016 4.99992 5.76133 4.99992 6.0835C4.99992 6.40566 5.26109 6.66683 5.58325 6.66683Z" fill="white"/>
</svg>
