<svg width="40" height="31" viewBox="0 0 40 31" fill="none" xmlns="http://www.w3.org/2000/svg">
<rect y="0.217407" width="40" height="30" rx="15" fill="#E93F81"/>
<path d="M15.6478 11.0123C15.0572 11.8781 14.789 13.0424 15.1716 14.4629C15.2514 14.7591 15.0925 15.0673 14.805 15.174C13.5671 15.6335 13.1724 16.4048 13.188 17.0461C13.2045 17.7252 13.6801 18.4661 14.5928 18.8431C14.8959 18.9683 15.0401 19.3155 14.9149 19.6185C14.7897 19.9216 14.4425 20.0658 14.1394 19.9406C12.8594 19.4119 12.0304 18.2929 12.0008 17.0749C11.9735 15.9518 12.6247 14.9028 13.9098 14.2679C13.6224 12.7359 13.9508 11.3928 14.6669 10.3431C15.4518 9.19253 16.6785 8.42846 17.9819 8.13521C19.2861 7.8418 20.7081 8.01146 21.8748 8.78648C22.9502 9.50086 23.751 10.691 24.0579 12.3651C25.9931 12.5799 27.1727 14.0009 27.3976 15.5819C27.6408 17.2907 26.7724 19.1864 24.6716 19.9499C24.3634 20.0619 24.0227 19.9029 23.9107 19.5947C23.7987 19.2865 23.9578 18.9458 24.266 18.8338C25.8031 18.2752 26.3915 16.9404 26.222 15.7492C26.0536 14.566 25.1415 13.5246 23.5428 13.5246C23.242 13.5246 22.9887 13.2996 22.9532 13.0009C22.7575 11.3538 22.0622 10.3366 21.2177 9.77563C20.3613 9.20669 19.281 9.06012 18.2426 9.29375C17.2034 9.52754 16.2472 10.1338 15.6478 11.0123Z" fill="white"/>
<path d="M15.7128 19.1206C15.481 18.8887 15.481 18.5128 15.7128 18.2809L16.3944 17.5993C16.6263 17.3674 17.0022 17.3674 17.2341 17.5993L17.9157 18.2809C18.1476 18.5128 18.1476 18.8887 17.9157 19.1206C17.8215 19.2148 17.7035 19.2707 17.581 19.2884C17.9079 20.0468 18.6621 20.5777 19.5404 20.5777C20.0905 20.5777 20.5908 20.3701 20.9694 20.0281C21.2127 19.8082 21.5882 19.8273 21.808 20.0706C22.0278 20.3139 22.0088 20.6894 21.7655 20.9092C21.1771 21.4408 20.3959 21.7652 19.5404 21.7652C17.9892 21.7652 16.6865 20.7014 16.3219 19.2637C16.1151 19.333 15.8776 19.2853 15.7128 19.1206Z" fill="white"/>
<path d="M23.3441 17.7697C23.576 18.0015 23.576 18.3775 23.3441 18.6093L22.6626 19.2909C22.4307 19.5228 22.0547 19.5228 21.8229 19.2909L21.1413 18.6093C20.9094 18.3775 20.9094 18.0015 21.1413 17.7697C21.2355 17.6754 21.3535 17.6195 21.476 17.6018C21.1492 16.8434 20.3949 16.3124 19.5166 16.3124C18.9851 16.3124 18.5003 16.506 18.1268 16.8274C17.8782 17.0413 17.5033 17.0131 17.2894 16.7645C17.0756 16.5159 17.1038 16.141 17.3523 15.9272C17.9332 15.4275 18.6903 15.1249 19.5166 15.1249C21.0678 15.1249 22.3705 16.1887 22.735 17.6266C22.9419 17.5572 23.1794 17.6049 23.3441 17.7697Z" fill="white"/>
</svg>
