<svg width="18" height="20" viewBox="0 0 18 20" fill="none" xmlns="http://www.w3.org/2000/svg">
<path fill-rule="evenodd" clip-rule="evenodd" d="M3.90191 3.45645C3.83584 3.46517 3.77292 3.48224 3.71408 3.50646C2.92761 3.5679 2.23752 3.629 1.7406 3.67508C1.48641 3.69865 1.28262 3.71831 1.14214 3.7321L0.980499 3.74815L0.924534 3.75381L0.923455 3.75392C0.511407 3.79623 0.211674 4.16456 0.253981 4.5766C0.296288 4.98865 0.664615 5.28838 1.07666 5.24608L1.07593 5.2389C1.07667 5.24608 1.07666 5.24608 1.07666 5.24608L1.13053 5.24062L1.28869 5.22493C1.42676 5.21137 1.62786 5.19197 1.87912 5.16867C2.38175 5.12206 3.08447 5.05989 3.8843 4.99775C5.48943 4.87302 7.46543 4.75 9.00006 4.75C10.5347 4.75 12.5107 4.87302 14.1158 4.99775C14.9156 5.05989 15.6184 5.12206 16.121 5.16867C16.3723 5.19197 16.5734 5.21137 16.7114 5.22493L16.8696 5.24062L16.9228 5.24601C17.3348 5.28831 17.7038 4.98865 17.7461 4.5766C17.7884 4.16456 17.4887 3.79623 17.0767 3.75392L17.0196 3.74815L16.858 3.7321C16.7175 3.71831 16.5137 3.69865 16.2595 3.67508C15.7626 3.62899 15.0725 3.5679 14.286 3.50646C14.2344 3.48524 14.1796 3.46948 14.1222 3.46001C13.6274 3.37837 13.2109 3.0449 13.0231 2.57999L12.9327 2.35615C12.4184 1.08329 11.183 0.25 9.81012 0.25H8.46293C7.10829 0.25 5.88923 1.07225 5.38176 2.32825C5.13571 2.93723 4.58111 3.3668 3.92994 3.45275L3.90191 3.45645ZM8.46293 1.75C7.71974 1.75 7.05094 2.20111 6.77253 2.89018C6.71209 3.03976 6.64144 3.18341 6.56152 3.32039C7.41079 3.27787 8.25244 3.25 9.00006 3.25C9.82976 3.25 10.7753 3.28433 11.7185 3.3349C11.6876 3.27191 11.6589 3.20755 11.6323 3.14191L11.5419 2.91808C11.2567 2.21214 10.5715 1.75 9.81012 1.75H8.46293Z" fill="#2A1C44"/>
<path d="M15.7472 7.06497C15.7831 6.65232 15.4777 6.2887 15.065 6.25282C14.6524 6.21694 14.2888 6.52237 14.2529 6.93503L13.4477 16.1949C13.3466 17.3576 12.3732 18.25 11.2061 18.25H6.3942C5.18957 18.25 4.19865 17.3012 4.14632 16.0977L3.74935 6.96742C3.73136 6.5536 3.3813 6.23272 2.96748 6.25071C2.55366 6.2687 2.23277 6.61876 2.25077 7.03258L2.64774 16.1629C2.73495 18.1687 4.38648 19.75 6.3942 19.75H11.2061C13.1513 19.75 14.7735 18.2627 14.942 16.3249L15.7472 7.06497Z" fill="#2A1C44"/>
<path d="M6.00006 15.25C5.58584 15.25 5.25006 15.5858 5.25006 16C5.25006 16.4142 5.58584 16.75 6.00006 16.75H12.0001C12.4143 16.75 12.7501 16.4142 12.7501 16C12.7501 15.5858 12.4143 15.25 12.0001 15.25H6.00006Z" fill="#2A1C44"/>
<path d="M5.25006 13C5.25006 12.5858 5.58584 12.25 6.00006 12.25H12.0001C12.4143 12.25 12.7501 12.5858 12.7501 13C12.7501 13.4142 12.4143 13.75 12.0001 13.75H6.00006C5.58584 13.75 5.25006 13.4142 5.25006 13Z" fill="#2A1C44"/>
<path d="M6.00006 9.25C5.58584 9.25 5.25006 9.58579 5.25006 10C5.25006 10.4142 5.58584 10.75 6.00006 10.75H12.0001C12.4143 10.75 12.7501 10.4142 12.7501 10C12.7501 9.58579 12.4143 9.25 12.0001 9.25H6.00006Z" fill="#2A1C44"/>
</svg>
