<svg width="36" height="36" viewBox="0 0 36 36" fill="none" xmlns="http://www.w3.org/2000/svg">
<g clip-path="url(#clip0_119_813)">
<path d="M28.0717 10.4511C28.3189 10.6867 28.2821 10.8893 28.1212 11.0978C27.6364 11.725 27.6849 12.2708 28.1454 12.9543C29.0489 14.2971 29.5705 15.825 29.8904 17.414C29.935 17.636 30.0203 17.7484 30.2424 17.8018C30.5225 17.8687 30.7891 17.9957 31.0712 18.0577C31.3185 18.1101 31.3621 18.24 31.3621 18.463C31.3537 19.7084 31.3537 20.9539 31.3621 22.1994C31.3621 22.4127 31.3165 22.5474 31.0887 22.5736C30.2259 22.6705 29.8526 23.1495 29.682 24.0181C29.3805 25.5577 28.6825 26.9625 27.8109 28.2693C27.7397 28.3554 27.6981 28.4622 27.6924 28.5738C27.6866 28.6854 27.717 28.7959 27.779 28.8888C27.9554 29.2126 28.3034 29.5529 28.222 29.8796C28.1464 30.1841 27.7586 30.4119 27.5036 30.6688C26.8124 31.363 26.1144 32.0503 25.4299 32.7513C25.2865 32.8977 25.1808 32.92 24.9985 32.8191C24.6515 32.6252 24.285 32.3228 23.9321 32.3344C23.5967 32.3422 23.271 32.6921 22.9375 32.886C21.5775 33.6781 20.0943 34.2365 18.5497 34.538C18.4663 34.5442 18.3873 34.5777 18.325 34.6335C18.2628 34.6893 18.2207 34.7641 18.2055 34.8463C18.127 35.1488 18.0068 35.4416 17.9283 35.7451C17.8759 35.9477 17.7731 36 17.5705 35.9981C16.3012 35.9884 15.0318 35.9884 13.7625 35.9981C13.5734 35.9981 13.4871 35.9409 13.4299 35.7596C13.3059 35.3718 13.3029 34.8696 13.0044 34.6311C12.7222 34.4062 12.252 34.4207 11.8681 34.317C10.3952 33.924 8.99672 33.2919 7.72854 32.4459C7.50847 32.2985 7.34076 32.2801 7.11002 32.4178C6.7998 32.6029 6.45079 32.9025 6.14638 32.8676C5.81773 32.8347 5.59669 32.3994 5.33106 32.1376C4.63305 31.4493 3.94861 30.7493 3.24769 30.0648C3.1013 29.9213 3.079 29.8147 3.17886 29.6334C3.37275 29.2854 3.67522 28.9189 3.66359 28.567C3.65583 28.2325 3.30489 27.9067 3.11099 27.5732C2.3251 26.2253 1.76818 24.7563 1.46291 23.2261C1.41928 23.006 1.33785 22.8896 1.11487 22.8383C0.810462 22.7646 0.517685 22.6444 0.216183 22.561C0.0494351 22.5135 -0.00388621 22.4272 -0.00291675 22.2527C0.00483895 20.971 0.00483895 19.6894 -0.00291675 18.4077C-0.00291675 18.2187 0.0533132 18.1304 0.234603 18.0761C0.615601 17.9637 1.09548 17.9278 1.33494 17.6719C1.5744 17.4159 1.5647 16.9331 1.6665 16.5502C2.05808 15.0641 2.69364 13.6534 3.54725 12.3755C3.69267 12.1564 3.71691 11.9878 3.57828 11.757C3.39214 11.4468 3.09355 11.0978 3.12748 10.7875C3.15947 10.4579 3.59476 10.2378 3.85651 9.97218C4.54386 9.27415 5.24478 8.58873 5.92922 7.88875C6.07076 7.74333 6.17837 7.71619 6.36063 7.81701C6.7077 8.01091 7.07318 8.31532 7.42704 8.30757C7.76247 8.30078 8.08821 7.9508 8.42074 7.75691C9.76837 6.97032 11.2374 6.41335 12.7678 6.10878C12.9879 6.06515 13.1042 5.9808 13.1556 5.75879C13.2302 5.45437 13.3495 5.16159 13.4338 4.86007C13.4813 4.69235 13.5686 4.63515 13.7431 4.64097C14.0931 4.65454 14.445 4.63127 14.7949 4.64969C15.0305 4.6623 15.1032 4.58959 15.0984 4.35012C15.0848 3.51539 15.0906 2.68067 15.0935 1.84691C15.0984 0.736846 15.8265 0.00488281 16.9355 0.00488281C22.6799 0.00488281 28.4236 0.00488281 34.1667 0.00488281C35.2525 0.00488281 35.9913 0.741685 35.9932 1.82557C35.9977 4.0987 35.9977 6.37216 35.9932 8.64593C35.9932 9.70752 35.2487 10.4492 34.1871 10.4521C32.2773 10.4579 30.3664 10.4521 28.4556 10.4521L28.0717 10.4511ZM22.9103 10.4511C22.9305 10.4888 22.9542 10.5245 22.9811 10.5578C23.046 10.6121 23.1139 10.6625 23.175 10.7168C27.0354 13.9422 28.5807 18.0441 27.5531 22.9672C26.2007 29.4473 19.6936 33.618 13.2448 32.2743C7.13717 30.9984 2.94231 25.4278 3.55792 19.2337C4.04265 14.3562 6.6854 10.9737 11.1575 9.02209C12.2962 8.53969 13.5098 8.25793 14.7445 8.18929C14.8919 8.1796 15.1032 8.24359 15.0994 7.95953C15.0916 7.30609 15.0945 6.65363 15.0994 6.00019C15.0994 5.8635 15.0538 5.8189 14.9132 5.8063C14.3897 5.75879 14.3781 5.75976 14.2239 6.24645C14.1566 6.42745 14.099 6.61191 14.0514 6.79905C14.0029 7.02688 13.8749 7.09475 13.652 7.12868C11.7644 7.41953 9.98351 8.04096 8.42752 9.14715C7.75859 9.6222 7.22442 9.77925 6.571 9.2441C6.42558 9.12485 6.30343 9.15685 6.17159 9.29839C5.85748 9.63384 5.52011 9.94601 5.20212 10.2776C4.96945 10.5209 4.57197 10.7138 4.54677 11.0163C4.52447 11.2936 4.78235 11.6077 4.95394 11.883C5.09451 12.1089 5.04119 12.2602 4.89674 12.457C3.78089 13.9771 2.9743 15.6563 2.64953 17.5109C2.50702 18.3204 2.2695 18.8546 1.39892 18.9341C1.19437 18.9526 1.15753 19.0786 1.16141 19.2618C1.17207 19.6971 1.16141 20.1344 1.16625 20.5677C1.16625 20.9167 1.06931 21.3317 1.22345 21.5954C1.3776 21.8591 1.82452 21.8407 2.14541 21.9405C2.23808 21.9588 2.32189 22.0077 2.38329 22.0795C2.44468 22.1513 2.48008 22.2417 2.48375 22.3361C2.76194 24.1941 3.43427 25.9712 4.45564 27.548C4.64953 27.8525 4.9869 28.1297 5.03731 28.4506C5.08773 28.7919 4.76102 29.1205 4.58749 29.4473C4.50217 29.6092 4.53029 29.7022 4.65244 29.8195C4.99272 30.1463 5.3204 30.4866 5.6568 30.8162C5.8885 31.044 6.10566 31.4076 6.37032 31.4483C6.63499 31.489 6.952 31.2166 7.23509 31.0527C7.45128 30.9248 7.60445 30.9442 7.80998 31.0954C9.33882 32.22 11.0305 33.0227 12.8967 33.3572C13.6849 33.4987 14.221 33.7305 14.2918 34.5914C14.3102 34.8173 14.4566 34.8434 14.6495 34.8386C15.1081 34.8279 15.5686 34.8386 16.0271 34.8386C16.3412 34.8386 16.7222 34.9355 16.9501 34.7911C17.1982 34.635 17.1837 34.2094 17.2942 33.905C17.3044 33.8832 17.3125 33.8604 17.3185 33.8371C17.3505 33.6228 17.4755 33.555 17.6878 33.523C19.5889 33.2321 21.3844 32.6136 22.9442 31.4871C23.6229 31.0023 24.158 30.8957 24.8037 31.4056C24.9627 31.5307 25.0751 31.4648 25.2002 31.3329C25.5162 30.9994 25.8497 30.6824 26.1696 30.3547C26.3975 30.123 26.761 29.9078 26.8037 29.6431C26.8463 29.3784 26.5836 29.0527 26.4159 28.7783C26.2695 28.5418 26.3189 28.3837 26.4721 28.1724C27.5802 26.6609 28.3791 24.9925 28.7087 23.1504C28.8551 22.3351 29.0965 21.7932 29.9787 21.7049C30.1609 21.6884 30.2026 21.5711 30.1997 21.4005C30.19 20.941 30.2045 20.4814 30.1929 20.0219C30.1852 19.6874 30.3315 19.2725 30.1318 19.0398C29.9486 18.8275 29.5502 18.7926 29.2361 18.7024C29.015 18.6394 28.9123 18.5396 28.8744 18.2894C28.5758 16.3388 27.9108 14.5142 26.7591 12.9117C26.3403 12.33 26.2957 11.8957 26.6902 11.3324C26.9219 11.0018 26.602 10.4598 26.1852 10.4598C25.1061 10.4414 24.031 10.4511 22.9123 10.4511H22.9103ZM25.5744 1.16148H17.0121C16.4624 1.16148 16.2608 1.35538 16.2598 1.89636C16.2598 4.10873 16.2598 6.32174 16.2598 8.53541C16.2598 9.08414 16.4537 9.28482 16.9947 9.28773C17.4299 9.28773 17.8672 9.30033 18.3005 9.28773C18.5206 9.27998 18.5914 9.34007 18.5865 9.56887C18.57 10.1011 18.5807 10.6353 18.5817 11.1656C18.5817 11.3198 18.5516 11.4894 18.7358 11.5738C18.92 11.6581 19.0267 11.5069 19.1304 11.4012C19.7489 10.7875 20.3694 10.1777 20.9724 9.55143C21.0508 9.4629 21.1482 9.39314 21.2573 9.34733C21.3664 9.30152 21.4844 9.28082 21.6025 9.28676C25.726 9.29516 29.8497 9.2971 33.9738 9.29257C34.6709 9.29257 34.8347 9.13164 34.8347 8.44718V2.02529C34.8347 1.32823 34.6738 1.16536 33.9893 1.16439L25.5744 1.16148ZM15.6781 20.9012C14.6263 20.9012 13.5734 20.908 12.5216 20.8954C12.2705 20.8954 12.19 20.9545 12.2016 21.2163C12.2516 22.5574 12.3756 23.8948 12.5729 25.2222C12.6098 25.4636 12.6883 25.5557 12.9607 25.5528C14.7749 25.5386 16.5888 25.5386 18.4023 25.5528C18.6738 25.5528 18.7494 25.4627 18.7901 25.2213C18.9865 23.8937 19.1104 22.5564 19.1614 21.2153C19.173 20.9536 19.0916 20.8925 18.8415 20.8954C17.7828 20.908 16.73 20.9012 15.6781 20.9012ZM15.6781 19.7378C16.7445 19.7378 17.8109 19.7378 18.8706 19.7378C19.0858 19.7378 19.1672 19.6923 19.1566 19.4577C19.1085 18.0922 18.9816 16.7308 18.7765 15.38C18.7378 15.1386 18.6379 15.0814 18.4004 15.0833C16.5868 15.095 14.773 15.095 12.9588 15.0833C12.6893 15.0833 12.6117 15.1725 12.571 15.4139C12.374 16.7414 12.2503 18.0787 12.2007 19.4199C12.189 19.6797 12.2676 19.7446 12.5196 19.7417C13.5734 19.732 14.6253 19.7398 15.6772 19.7398L15.6781 19.7378ZM23.5027 19.7378C24.4721 19.7378 25.4348 19.7378 26.4014 19.7378C26.5283 19.7378 26.698 19.8047 26.6776 19.5439C26.5663 18.0477 26.1562 16.589 25.4716 15.254C25.4473 15.1993 25.4056 15.1541 25.3531 15.1254C25.3005 15.0966 25.24 15.0859 25.1808 15.095C23.5004 15.0988 21.8216 15.0988 20.1444 15.095C19.9758 15.095 19.8866 15.1008 19.9253 15.3276C20.15 16.6983 20.2757 18.0834 20.3015 19.4722C20.3073 19.7039 20.3897 19.7485 20.6001 19.7456C21.5695 19.734 22.5351 19.7398 23.5017 19.7398L23.5027 19.7378ZM7.84197 20.9012H4.97721C4.81725 20.9012 4.67764 20.8692 4.69703 21.132C4.80072 22.606 5.20069 24.044 5.87299 25.3599C5.89452 25.422 5.93642 25.4749 5.99187 25.5101C6.04732 25.5453 6.11306 25.5607 6.17837 25.5538C7.85877 25.5493 9.53918 25.5493 11.2196 25.5538C11.398 25.5538 11.4707 25.5334 11.4329 25.3153C11.2095 23.9554 11.0822 22.5815 11.0519 21.2037C11.0451 20.971 10.9821 20.8983 10.7436 20.9012C9.77508 20.909 8.80755 20.9012 7.841 20.9012H7.84197ZM7.87881 19.7378C8.83373 19.7378 9.78865 19.7301 10.7436 19.7437C10.984 19.7437 11.0431 19.6709 11.0489 19.4392C11.0772 18.0855 11.2019 16.7354 11.4222 15.3994C11.4707 15.1153 11.3912 15.0872 11.1459 15.0882C9.51397 15.0979 7.88204 15.0979 6.25011 15.0882C6.16254 15.0773 6.07388 15.0967 5.99879 15.1431C5.92371 15.1894 5.86668 15.26 5.83712 15.3432C5.20487 16.6106 4.82023 17.9869 4.70382 19.3985C4.68152 19.6671 4.72709 19.7504 5.01405 19.7446C5.968 19.7281 6.92292 19.7398 7.87784 19.7398L7.87881 19.7378ZM23.522 20.9012C22.5526 20.9012 21.5831 20.908 20.6204 20.8954C20.3878 20.8954 20.316 20.9555 20.3092 21.194C20.2796 22.5585 20.1535 23.9191 19.9321 25.2659C19.8904 25.5131 19.9525 25.546 20.1726 25.5451C21.8284 25.5386 23.4846 25.5386 25.141 25.5451C25.2169 25.5542 25.2936 25.5376 25.3589 25.4981C25.4243 25.4586 25.4745 25.3983 25.5017 25.3269C26.1569 24.03 26.5502 22.6168 26.6592 21.1678C26.6776 20.9216 26.5972 20.8906 26.3868 20.8925C25.4329 20.9061 24.476 20.9012 23.5211 20.9012H23.522ZM15.6781 26.7065C14.8337 26.7065 13.9884 26.7065 13.143 26.7065C12.9695 26.7065 12.8686 26.7211 12.9268 26.9392C13.239 28.1084 13.5957 29.2572 14.2608 30.2839C14.4663 30.6269 14.7426 30.922 15.0712 31.1497C15.248 31.2791 15.4615 31.3489 15.6806 31.3489C15.8997 31.3489 16.1131 31.2791 16.2899 31.1497C16.6085 30.9286 16.8773 30.6433 17.079 30.312C17.7576 29.2795 18.1163 28.1171 18.4362 26.9382C18.4964 26.7143 18.3849 26.7075 18.2172 26.7085C17.3679 26.7085 16.5225 26.7065 15.6772 26.7065H15.6781ZM15.6781 13.9345C16.5119 13.9345 17.3456 13.9345 18.1793 13.9345C18.2714 13.9345 18.475 14.0188 18.4275 13.7997C18.3364 13.377 18.3306 12.8487 18.0349 12.5791C17.4648 12.0614 17.3679 11.4574 17.4241 10.7759C17.4484 10.4792 17.3272 10.4366 17.0722 10.4521C16.3248 10.4977 15.7227 10.2281 15.332 9.57081C15.2399 9.41667 15.1633 9.4409 15.047 9.51943C14.7123 9.76053 14.4314 10.0686 14.222 10.424C13.5792 11.4351 13.2283 12.5627 12.9229 13.7086C12.8648 13.9277 12.9675 13.9422 13.1401 13.9413C13.9874 13.9316 14.8337 13.9345 15.6801 13.9345H15.6781ZM24.6573 26.7065C22.9976 26.7065 21.429 26.7065 19.8604 26.7065C19.6248 26.7065 19.6277 26.8587 19.5909 27.009C19.2826 28.2693 18.8997 29.4967 18.2414 30.6242L17.9506 31.1187C20.7688 30.4662 22.9384 29.012 24.6573 26.7065ZM13.3243 9.5873C10.5826 10.1826 8.40716 11.6232 6.69994 13.9335C8.36645 13.9335 9.9457 13.9335 11.5259 13.9335C11.6965 13.9335 11.7198 13.8259 11.7479 13.7067C12.0853 12.2708 12.539 10.8825 13.3262 9.5873H13.3243ZM13.4164 31.1167C12.5342 29.7594 12.0717 28.3401 11.7373 26.8762C11.6888 26.6668 11.5376 26.7075 11.398 26.7065H6.69607C8.4188 29.012 10.5923 30.4662 13.4183 31.1167H13.4164ZM24.6621 13.9345C23.8052 12.7382 22.7219 11.7217 21.4736 10.9426C21.3059 10.8379 21.2351 10.9426 21.141 11.0328C20.7533 11.4206 20.4217 11.8792 19.9777 12.169C19.3311 12.5888 19.3786 13.0794 19.5899 13.6785C19.6587 13.8724 19.7295 13.9481 19.9379 13.9393C20.348 13.9219 20.76 13.9393 21.1711 13.9393L24.6621 13.9345Z" fill="white"/>
<path d="M4.06033 1.1615C4.93284 1.1615 5.80051 1.16925 6.67012 1.1615C6.89988 1.1615 6.97647 1.21483 6.97744 1.45914C6.97744 2.33168 6.9881 2.33168 6.12334 2.33168C4.57705 2.33168 3.03076 2.32585 1.48447 2.33749C1.23725 2.33749 1.15679 2.28223 1.15873 2.02143C1.16551 1.17022 1.15388 1.17022 1.9944 1.17022L4.06033 1.1615Z" fill="white"/>
<path d="M4.05058 4.64478C3.17806 4.64478 2.31136 4.63701 1.44176 4.65059C1.21393 4.65059 1.16158 4.58272 1.15964 4.35974C1.15189 3.47945 1.14413 3.47945 2.03797 3.47945C3.57166 3.47945 5.10632 3.48623 6.64001 3.47266C6.91631 3.47266 6.98126 3.54731 6.97738 3.81489C6.96575 4.63992 6.97738 4.63992 6.15237 4.63992L4.05058 4.64478Z" fill="white"/>
<path d="M31.9446 29.0285C31.0634 29.0285 30.1812 29.0236 29.299 29.0285C29.1051 29.0285 29.0304 28.9877 29.0256 28.7725C29.0033 27.8631 28.9946 27.8641 29.9117 27.8641C31.4454 27.8641 32.98 27.8641 34.5137 27.8583C34.7561 27.8583 34.8453 27.9048 34.8433 28.1704C34.8375 29.0246 34.8492 29.0246 34.0106 29.0246L31.9446 29.0285Z" fill="white"/>
<path d="M31.9149 31.3504C31.0569 31.3504 30.199 31.3407 29.342 31.3572C29.0812 31.3572 29.023 31.2796 29.0249 31.0324C29.0317 30.1899 29.0249 30.1899 29.8693 30.1899C31.4205 30.1899 32.9619 30.1976 34.5082 30.1831C34.7874 30.1831 34.8475 30.2626 34.8437 30.5273C34.832 31.3504 34.8437 31.3513 34.0167 31.3513L31.9149 31.3504Z" fill="white"/>
<path d="M2.32592 6.42284C2.32592 6.97157 2.32592 6.97158 1.77623 6.97158C1.16547 6.97158 1.16547 6.97158 1.16547 6.37631C1.17178 6.29208 1.17178 6.2075 1.16547 6.12327C1.12572 5.8683 1.22946 5.76941 1.48249 5.80819C1.55443 5.81401 1.62673 5.81401 1.69867 5.80819C2.32592 5.80625 2.32592 5.80625 2.32592 6.42284Z" fill="white"/>
<path d="M4.64872 6.37532C4.64872 6.96768 4.64872 6.96768 3.96234 6.96768C3.4873 6.96768 3.4873 6.96767 3.4873 6.27158C3.4873 5.80526 3.4873 5.80527 4.22797 5.80624C4.64872 5.80624 4.64872 5.80623 4.64872 6.37532Z" fill="white"/>
<path d="M6.9705 6.37824C6.9705 6.96768 6.9705 6.96768 6.28121 6.96768C5.80908 6.96768 5.80908 6.96768 5.80908 6.26868C5.80908 5.80527 5.80908 5.80527 6.55363 5.80624C6.9705 5.80624 6.9705 5.80624 6.9705 6.37824Z" fill="white"/>
<path d="M29.6217 32.5117C30.1918 32.5117 30.1918 32.5117 30.1918 33.1845C30.1918 33.6693 30.1918 33.6693 29.4744 33.6693C29.0304 33.6693 29.0304 33.6693 29.0313 32.9422C29.0313 32.5117 29.0313 32.5117 29.6217 32.5117Z" fill="white"/>
<path d="M31.9284 33.6732C31.3574 33.6732 31.3574 33.6732 31.3574 33.0023C31.3574 32.5117 31.3574 32.5117 32.0739 32.5117C32.5188 32.5117 32.5188 32.5117 32.5188 33.2369C32.5101 33.6732 32.5101 33.6732 31.9284 33.6732Z" fill="white"/>
<path d="M34.2551 33.6732C33.6782 33.6732 33.6782 33.6732 33.6782 32.9713C33.6782 32.5117 33.6782 32.5117 34.3898 32.5117C34.8396 32.5117 34.8396 32.5117 34.8396 33.2321C34.8367 33.6732 34.8367 33.6732 34.2551 33.6732Z" fill="white"/>
<path d="M24.387 4.36759C24.387 5.48735 24.3724 6.6071 24.3957 7.72686C24.4034 8.06715 24.2987 8.14569 23.9769 8.13599C23.2265 8.11369 23.2255 8.1292 23.2255 7.37979C23.2255 5.82085 23.2333 4.26191 23.2197 2.70298C23.2197 2.41795 23.2624 2.28222 23.5852 2.31518C23.9662 2.3559 24.4277 2.1814 24.7156 2.38111C24.988 2.56919 25.0879 3.00933 25.2556 3.34284C25.7171 4.259 26.1746 5.17711 26.6371 6.10104C26.7621 6.02833 26.7059 5.92167 26.7059 5.83927C26.7108 4.77283 26.7156 3.71221 26.7059 2.64868C26.7059 2.41212 26.7418 2.31227 27.0132 2.31324C27.8722 2.32003 27.8722 2.30743 27.8722 3.17997C27.8722 4.70206 27.8644 6.22513 27.879 7.7482C27.879 8.03904 27.8315 8.16701 27.5115 8.13599C27.1305 8.09527 26.6691 8.27074 26.3811 8.06909C26.1097 7.87519 26.0098 7.4399 25.8421 7.1064C25.3807 6.1912 24.924 5.27309 24.4645 4.35596L24.387 4.36759Z" fill="white"/>
<path d="M31.4258 2.32385C31.7167 2.33742 32.0686 2.28411 32.4118 2.39269C33.1117 2.61568 33.515 3.09848 33.6585 3.81008C33.6944 3.98556 33.6634 4.08735 33.4491 4.06796C33.2681 4.05293 33.0862 4.05293 32.9052 4.06796C32.6735 4.08541 32.5029 4.06797 32.4205 3.78488C32.3623 3.57741 32.1452 3.49402 31.9232 3.48724C31.549 3.48724 31.1738 3.47754 30.7986 3.48724C30.4234 3.49693 30.1878 3.74318 30.1927 4.06893C30.1975 4.39468 30.4428 4.6293 30.8151 4.63996C31.1873 4.65062 31.5645 4.63996 31.9387 4.63996C32.3986 4.64277 32.8389 4.82707 33.1637 5.15278C33.4885 5.47848 33.6715 5.91925 33.673 6.37923C33.6731 6.83755 33.4928 7.27749 33.1712 7.60401C32.8496 7.93054 32.4125 8.11743 31.9542 8.12431C31.5431 8.134 31.1321 8.13497 30.721 8.12431C30.3128 8.10943 29.9225 7.9533 29.6166 7.68259C29.3107 7.41189 29.1083 7.04338 29.0439 6.64001C29.0196 6.4626 29.0439 6.36371 29.2562 6.3831C29.4372 6.39765 29.6191 6.39765 29.8 6.3831C30.0317 6.36565 30.2024 6.3831 30.2848 6.66716C30.3429 6.87463 30.5601 6.958 30.7821 6.96382C31.1563 6.96382 31.5315 6.97448 31.9057 6.96382C32.2799 6.95316 32.5174 6.70691 32.5116 6.38213C32.5058 6.05735 32.2615 5.82176 31.8892 5.81304C31.517 5.80431 31.1398 5.81305 30.7656 5.8082C30.307 5.8049 29.8681 5.62118 29.5439 5.29678C29.2197 4.97238 29.0362 4.53338 29.0332 4.07475C29.0332 3.61643 29.2134 3.17648 29.535 2.84996C29.8566 2.52343 30.2938 2.33655 30.7521 2.32967C30.9586 2.31901 31.1621 2.32385 31.4258 2.32385Z" fill="white"/>
<path d="M17.4204 5.23432C17.4204 4.36178 17.4282 3.48924 17.4156 2.62446C17.4156 2.39372 17.467 2.30453 17.7132 2.31811C18.3754 2.35689 19.0433 2.25799 19.7016 2.38208C20.4039 2.51296 21.033 2.89894 21.4679 3.46575C21.9028 4.03256 22.1128 4.74017 22.0574 5.45246C21.9996 6.16456 21.6818 6.83049 21.1646 7.32328C20.6473 7.81606 19.9668 8.10123 19.2527 8.12437C18.7331 8.13794 18.2135 8.11564 17.6938 8.13406C17.4612 8.14182 17.4136 8.05941 17.4156 7.84322C17.4272 6.97456 17.4204 6.10492 17.4204 5.23432ZM18.5838 5.23432C18.5838 5.72876 18.5838 6.2232 18.5838 6.71667C18.5838 6.83107 18.5489 6.96001 18.7467 6.96583C19.2605 6.98037 19.7578 6.94934 20.1912 6.62359C20.5143 6.3857 20.7456 6.04371 20.8461 5.65522C20.9465 5.26672 20.9101 4.85546 20.7428 4.49072C20.4035 3.75973 19.5038 3.3157 18.7205 3.47567C18.5508 3.51057 18.5848 3.61527 18.5838 3.71513C18.5799 4.22605 18.5818 4.73213 18.5818 5.2382L18.5838 5.23432Z" fill="white"/>
</g>
<defs>
<clipPath id="clip0_119_813">
<rect width="36" height="36" fill="white"/>
</clipPath>
</defs>
</svg>
