<svg width="17" height="17" viewBox="0 0 17 17" fill="none" xmlns="http://www.w3.org/2000/svg">
<path fill-rule="evenodd" clip-rule="evenodd" d="M0.292893 11.7071L10.5 1.50001C11.8807 0.1193 14.1193 0.119299 15.5 1.50001C16.8807 2.88072 16.8807 5.1193 15.5 6.50001L5.29289 16.7071C5.10536 16.8947 4.851 17 4.58579 17H1C0.447715 17 0 16.5523 0 16V12.4142C0 12.149 0.105357 11.8947 0.292893 11.7071ZM1.5 15.5V12.6213L11.5607 2.56067C12.3556 1.76575 13.6444 1.76575 14.4393 2.56067C15.2343 3.3556 15.2343 4.64443 14.4393 5.43935L4.37868 15.5H1.5Z" fill="#2A1C44"/>
<path d="M9 15.25C8.58579 15.25 8.25 15.5858 8.25 16C8.25 16.4142 8.58579 16.75 9 16.75H16C16.4142 16.75 16.75 16.4142 16.75 16C16.75 15.5858 16.4142 15.25 16 15.25H9Z" fill="#2A1C44"/>
</svg>
