<svg width="42" height="36" viewBox="0 0 42 36" fill="none" xmlns="http://www.w3.org/2000/svg">
<g clip-path="url(#clip0_119_870)">
<path d="M41.4888 10.167C41.4888 9.46337 41.1044 9.00456 40.511 8.99884H40.4998C39.9165 8.99884 39.5355 9.45078 39.5277 10.1533C39.5277 10.2345 39.5277 10.3158 39.5277 10.397V16.3341C39.5277 21.1968 39.5277 26.0599 39.5277 30.9233C39.5277 32.8478 38.4038 33.9977 36.509 33.9977H5.46965C3.58946 33.9977 2.46674 32.8604 2.46674 30.9554V12.992C2.51395 13.0126 2.56002 13.0343 2.60497 13.056L5.16621 14.3226C9.67732 16.5515 14.1873 18.7814 18.6961 21.0126C20.1796 21.746 21.6103 21.7929 22.9499 21.1499C25.1863 20.0766 27.4385 18.9416 29.6165 17.8444L31.481 16.9073C32.0148 16.6384 32.2205 16.0904 31.98 15.5721C31.7395 15.0538 31.173 14.8558 30.6156 15.1144C30.3245 15.2517 30.0346 15.3993 29.7547 15.5423L29.3299 15.7574L27.2306 16.8101C25.6819 17.5835 24.0838 18.3833 22.5105 19.175C21.4619 19.7036 20.4606 19.6991 19.4514 19.1613C19.1637 19.0068 18.8658 18.8638 18.5781 18.7254L18.1612 18.5229L15.3302 17.1236C11.1945 15.0789 6.91716 12.9657 2.70725 10.8936C2.49597 10.7895 2.44988 10.7174 2.46112 10.5034C2.48247 10.1281 2.47798 9.74827 2.47348 9.38099C2.47348 9.2231 2.47348 9.0652 2.47348 8.90616C2.47348 6.99655 3.59732 5.85696 5.46402 5.85696H26.1978H26.3102C26.4385 5.86287 26.5671 5.85751 26.6945 5.84095C26.8678 5.81583 27.0314 5.74419 27.1685 5.63339C27.3055 5.5226 27.4112 5.37663 27.4745 5.21051C27.5363 5.04715 27.5543 4.86994 27.5264 4.69717C27.4985 4.5244 27.4259 4.36233 27.316 4.22767C27.0395 3.88442 26.6709 3.85468 26.3461 3.85468H17.5116C13.4463 3.85468 9.38062 3.85468 5.31456 3.85468C2.53417 3.85468 0.514629 5.90616 0.512382 8.72653C0.505638 16.4451 0.505638 23.9794 0.512382 31.1213C0.512382 33.8936 2.56452 35.9874 5.27972 35.9885C10.4258 35.9885 15.6191 35.9954 20.9528 35.9954C26.0573 35.9954 31.2832 35.9954 36.6967 35.9897C39.4243 35.9897 41.4854 33.905 41.491 31.1441C41.5023 25.8215 41.5 20.4085 41.4966 15.175C41.4921 13.5076 41.4895 11.8383 41.4888 10.167Z" fill="white"/>
<path d="M29.4493 3.9222C30.1922 4.95995 30.9597 6.03204 31.7217 7.08238C31.8929 7.29506 31.9824 7.56384 31.9734 7.83867C31.9555 8.56865 31.96 9.30892 31.9633 10.0263C31.9633 10.2403 31.9633 10.4554 31.9633 10.6693C31.9633 11.3821 32.3331 11.8341 32.922 11.849C33.0456 11.8549 33.1692 11.8351 33.2851 11.7908C33.401 11.7466 33.5069 11.6788 33.5963 11.5915C33.8098 11.3799 33.9233 11.0584 33.9244 10.6625C33.9256 10.2666 33.9244 9.89817 33.9244 9.51831C33.9244 8.8135 33.9244 8.08581 33.9312 7.37071C33.9418 6.99284 33.8253 6.62262 33.6008 6.32151C32.6365 4.99199 31.6666 3.63272 30.7282 2.31693L30.5282 2.03661L30.5181 2.02288H38.5917L35.5473 6.35011C35.4045 6.55149 35.2438 6.78032 35.2438 7.10183V8.79405C35.2438 10.0355 35.2438 11.3192 35.2506 12.5824C35.2505 12.7121 35.2758 12.8405 35.325 12.9601C35.3742 13.0797 35.4463 13.1882 35.5371 13.2792C35.7203 13.4614 35.9666 13.563 36.2227 13.5618H36.2373C36.4839 13.5566 36.7196 13.4575 36.8979 13.284C37.0762 13.1105 37.1842 12.8753 37.2004 12.6247C37.2076 12.5326 37.2099 12.4402 37.2072 12.3478C37.2072 12.3192 37.2072 12.2895 37.2072 12.2609V11.1739C37.2072 10.0435 37.2072 8.873 37.2072 7.72197C37.2018 7.52984 37.2613 7.34164 37.3758 7.18879C38.1388 6.11213 38.9098 5.01487 39.656 3.95309C40.1528 3.24752 40.6499 2.54119 41.1474 1.8341C41.3721 1.51945 41.6745 1.08696 41.3834 0.536614C41.0923 -0.0137297 40.581 0.00114416 40.2033 0C36.28 0.00572082 32.4488 0.00572082 28.8098 0C28.3906 0 27.9681 0.0663616 27.7186 0.535469C27.423 1.09153 27.7545 1.55149 27.9321 1.79405C28.4386 2.50419 28.9443 3.21358 29.4493 3.9222Z" fill="white"/>
<path d="M13.4625 22.2483C13.1861 22.1338 12.7658 22.0915 12.3387 22.524C11.6344 23.2441 10.9287 23.9634 10.2214 24.6819L8.23781 26.7048C7.20013 27.7597 6.16357 28.8154 5.12813 29.8718C4.86403 30.1418 4.72581 30.4359 4.72805 30.7219C4.74439 30.9741 4.85076 31.2116 5.02714 31.3894C5.20351 31.5673 5.4377 31.6734 5.68557 31.6876C5.96428 31.6876 6.25423 31.548 6.52733 31.27L10.1821 27.5515C11.3404 26.3707 12.4994 25.1907 13.6592 24.0114C13.8694 23.7975 14.093 23.5366 14.0807 23.1441C14.0783 22.9488 14.0181 22.7587 13.9078 22.5988C13.7975 22.439 13.6423 22.3168 13.4625 22.2483Z" fill="white"/>
<path d="M32.3452 25.2758L29.7031 22.5858L29.6682 22.5492C29.5919 22.4613 29.5042 22.3843 29.4075 22.3204C29.2262 22.1967 29.0086 22.1406 28.7913 22.1614C28.574 22.1823 28.3705 22.2788 28.2151 22.4348C28.0464 22.596 27.94 22.8135 27.9152 23.0478C27.8905 23.2821 27.949 23.5176 28.0803 23.7117C28.1554 23.8164 28.2405 23.9134 28.3342 24.0012L28.3893 24.0561C30.7254 26.4359 33.0622 28.8154 35.3998 31.1945L35.4257 31.2208C35.5223 31.3266 35.6292 31.4221 35.7448 31.5057C35.8993 31.6152 36.0826 31.6746 36.2708 31.6762C36.4318 31.6746 36.59 31.633 36.7316 31.5549C36.8835 31.4762 37.0119 31.3574 37.1032 31.2108C37.1946 31.0643 37.2456 30.8955 37.2508 30.722V30.714C37.2598 30.3181 37.0564 30.0561 36.8361 29.8318L32.3452 25.2758Z" fill="white"/>
</g>
<defs>
<clipPath id="clip0_119_870">
<rect width="41" height="36" fill="white" transform="translate(0.5)"/>
</clipPath>
</defs>
</svg>
