<svg width="40" height="36" viewBox="0 0 40 36" fill="none" xmlns="http://www.w3.org/2000/svg">
<g clip-path="url(#clip0_119_864)">
<path d="M39.9705 14.4239C39.9414 14.1579 39.8125 13.913 39.61 13.7389C39.4074 13.5648 39.1465 13.4745 38.88 13.4864C38.6134 13.4933 38.3596 13.6025 38.171 13.7916C37.9823 13.9807 37.8731 14.2352 37.8659 14.5026C37.8583 14.612 37.8594 14.7214 37.8659 14.8308V20.2218C37.8659 23.8385 37.8659 27.4544 37.8659 31.0695C37.8659 32.8199 36.83 33.8679 35.0952 33.8679C25.0284 33.8679 14.9601 33.8679 4.89044 33.8679C3.15667 33.8679 2.12186 32.8221 2.12077 31.0717V14.076L6.1924 16.0582C9.94564 17.8862 13.8254 19.7777 17.6418 21.6374C19.1957 22.4032 20.7572 22.4032 22.2805 21.6615C24.0361 20.8024 25.7935 19.9462 27.5527 19.0929L30.161 17.825L30.2003 17.8064C30.3008 17.7601 30.3977 17.7063 30.4903 17.6456C30.7043 17.5027 30.8592 17.2867 30.9264 17.0378C30.9936 16.7889 30.9684 16.524 30.8556 16.2923C30.7424 16.0593 30.5471 15.8765 30.3075 15.7794C30.0679 15.6822 29.8009 15.6775 29.558 15.7662C29.4436 15.8077 29.3321 15.8571 29.2243 15.9138L27.7501 16.6315C25.6005 17.6751 23.452 18.7198 21.3046 19.7657C20.4202 20.1967 19.5752 20.2033 18.7214 19.7897L11.6336 16.3405C8.48448 14.8089 5.33424 13.2774 2.18291 11.7459C2.15951 11.7363 2.13779 11.723 2.11858 11.7065C2.11087 11.6746 2.10867 11.6417 2.11205 11.6091C2.11968 11.224 2.11859 10.8346 2.11205 10.4583C2.11205 10.2942 2.11205 10.1301 2.11205 9.96489C2.11205 8.22549 3.15012 7.18623 4.88499 7.18623H23.4222C23.6428 7.20427 23.8645 7.17056 24.0699 7.08777C24.5301 6.87992 24.7634 6.48392 24.7089 6.00367C24.6903 5.76601 24.5895 5.54236 24.4237 5.37152C24.258 5.20067 24.0379 5.09341 23.8016 5.06833C23.6838 5.05355 23.5649 5.04879 23.4462 5.05411H23.3459H4.86972C2.00409 5.05411 0.00206699 7.05715 0.000976562 9.92332C0.000976562 16.9794 0.000976562 24.0354 0.000976562 31.0914C0.000976562 33.9795 2.01063 35.9978 4.88717 35.9978C9.59489 35.9978 14.3019 35.9978 19.0082 35.9978H35.0864C35.5064 36.0054 35.9258 35.9635 36.3361 35.8731C38.5507 35.3535 39.9835 33.4949 39.9857 31.1363C39.9857 27.0843 39.9857 23.0319 39.9857 18.9791V14.7335C39.9886 14.63 39.9835 14.5265 39.9705 14.4239Z" fill="white"/>
<path d="M28.884 12.2666C30.0873 13.2295 31.5822 13.7516 33.1214 13.7467C33.4046 13.7467 33.6875 13.7299 33.9687 13.6964C37.5889 13.2588 40.1775 10.1279 39.9911 6.40949C39.9286 5.34367 39.6054 4.30968 39.05 3.39892C38.7382 2.87163 38.1592 2.69004 37.6423 2.95478C37.1254 3.21952 36.9215 3.82994 37.1843 4.3988C37.2192 4.47428 37.2574 4.54321 37.2934 4.60994C37.3163 4.65151 37.3392 4.69199 37.3599 4.73465C38.3107 6.6086 37.9051 8.86434 36.3545 10.3477C34.8999 11.7393 32.6285 12.0106 30.8337 11.0041C30.6625 10.9089 30.656 10.8947 30.7127 10.7055C30.8389 10.2918 31.0689 9.91759 31.3807 9.61875C31.6925 9.31992 32.0757 9.10648 32.4933 8.9989C32.9055 8.88552 33.3397 8.8803 33.7545 8.98374C34.1692 9.08719 34.5505 9.29583 34.8617 9.58964C34.8977 9.62246 34.9315 9.65856 34.9653 9.69904C35.0155 9.75155 35.0667 9.80843 35.1267 9.86094C35.3269 10.0511 35.5927 10.156 35.8684 10.1538C36.1441 10.1515 36.4082 10.0423 36.6053 9.84891C36.7952 9.66004 36.9061 9.40569 36.9157 9.13762C36.9252 8.86956 36.8325 8.60792 36.6566 8.40597C36.3972 8.06901 36.075 7.78588 35.7079 7.57237L35.6839 7.55925C35.6926 7.54393 35.7046 7.52533 35.7188 7.50455C36.6511 6.12944 36.2913 4.22267 34.9162 3.23811C34.2534 2.77548 33.4368 2.59038 32.6401 2.72214C31.8434 2.85389 31.1292 3.29212 30.6494 3.94371C29.8512 5.03767 29.8283 6.41496 30.5862 7.55377C29.9464 7.96997 29.4214 8.54108 29.0596 9.21441C28.4755 8.2295 28.2854 7.05908 28.5275 5.93909C28.6491 5.31475 28.8953 4.72155 29.2514 4.19515C29.6074 3.66875 30.0659 3.22003 30.5993 2.876C31.1491 2.529 31.7631 2.29704 32.4045 2.19403C33.0459 2.09101 33.7015 2.11906 34.3318 2.27651C35.0885 2.45592 35.6403 2.18354 35.8006 1.54795C35.9576 0.933143 35.5825 0.409129 34.8345 0.21331C33.9038 -0.037262 32.9289 -0.0746497 31.9819 0.103914C30.2089 0.443041 28.6725 1.38494 27.654 2.75567C26.6356 4.1264 26.1765 5.88221 26.3684 7.68615C26.4663 8.57824 26.7389 9.44213 27.1706 10.2282C27.6023 11.0142 28.1846 11.707 28.884 12.2666ZM32.1629 5.80126C32.1629 5.54277 32.2642 5.29463 32.4449 5.11042C32.6257 4.92621 32.8714 4.82072 33.129 4.8167C33.259 4.81519 33.3879 4.83987 33.5082 4.88929C33.6284 4.93871 33.7376 5.01187 33.8291 5.10441C33.9216 5.19651 33.9947 5.30635 34.0439 5.42739C34.0932 5.54843 34.1177 5.67818 34.1159 5.80891C34.1113 6.06699 34.0059 6.31294 33.8223 6.49381C33.6388 6.67468 33.3918 6.77601 33.1345 6.77597C32.8776 6.7734 32.632 6.66988 32.4503 6.48764C32.2687 6.3054 32.1655 6.05898 32.1629 5.80126Z" fill="white"/>
<path d="M11.7589 22.7303C11.6533 22.7997 11.5569 22.8824 11.4722 22.9764L11.4264 23.0223C9.1372 25.3175 6.84731 27.6148 4.55669 29.9143C4.45223 30.014 4.35799 30.1239 4.27537 30.2425C4.16541 30.3985 4.10252 30.5829 4.09421 30.7738C4.08589 30.9647 4.1325 31.1539 4.22847 31.3189C4.31871 31.4914 4.45556 31.635 4.62334 31.7331C4.79112 31.8312 4.98306 31.8799 5.17715 31.8736H5.2164C5.61114 31.8736 5.88701 31.5968 6.07238 31.4108C7.42087 30.0551 8.76973 28.7011 10.1189 27.349L12.9072 24.5506L12.9322 24.5254C13.0385 24.4259 13.1346 24.316 13.219 24.1973C13.3586 23.9876 13.4177 23.7343 13.3854 23.4843C13.3531 23.2343 13.2317 23.0045 13.0435 22.8375C12.8726 22.6772 12.6529 22.5794 12.4198 22.5599C12.1867 22.5405 11.9538 22.6005 11.7589 22.7303Z" fill="white"/>
<path d="M28.5657 23.0355L28.5439 23.0136C28.4392 22.8991 28.3192 22.7997 28.1873 22.7183C28.0019 22.6057 27.7855 22.5555 27.5697 22.5752C27.3538 22.5949 27.15 22.6834 26.9878 22.8276C26.8259 22.9574 26.7072 23.1336 26.6476 23.3328C26.588 23.5319 26.5903 23.7446 26.6542 23.9424C26.7292 24.1662 26.8643 24.3649 27.0446 24.5167L28.5374 26.0133L33.8804 31.3737L33.9339 31.4273C34.0223 31.5232 34.1198 31.6104 34.225 31.6876C34.3998 31.8128 34.6089 31.8808 34.8236 31.8823C35.002 31.8808 35.1772 31.8353 35.334 31.75C35.4914 31.6693 35.6248 31.5483 35.7205 31.3992C35.8163 31.2501 35.871 31.0782 35.8792 30.9011V30.8868C35.8868 30.3782 35.6098 30.1003 35.407 29.8968L31.873 26.3546L28.5657 23.0355Z" fill="white"/>
</g>
<defs>
<clipPath id="clip0_119_864">
<rect width="40" height="36" fill="white"/>
</clipPath>
</defs>
</svg>
