<svg width="38" height="36" viewBox="0 0 38 36" fill="none" xmlns="http://www.w3.org/2000/svg">
<g clip-path="url(#clip0_119_770)">
<path d="M11.1466 0.000732422C13.7721 0.000732422 16.3974 0.000732422 19.0225 0.000732422C21.0367 0.000732422 22.287 1.29746 22.287 3.40022C22.2905 7.02697 22.2905 10.654 22.287 14.2812C22.287 15.9191 21.452 17.0978 20.0182 17.5066C19.6982 17.5909 19.3688 17.6302 19.0388 17.6233C13.7747 17.6233 8.51085 17.6233 3.24718 17.6233C1.62277 17.6233 0.47171 16.7252 0.0858472 15.1793C0.00488774 14.8551 0.00488838 14.5234 0.00488838 14.1931C0.00227679 10.6082 0.00227679 7.02287 0.00488838 3.43707C0.00488838 1.28381 1.24539 0.00277848 3.31312 0.0014135L11.1466 0.000732422ZM1.27804 15.1425C1.4491 15.094 1.52353 14.9548 1.62147 14.851C3.00822 13.3746 4.39302 11.8959 5.77586 10.4149C5.86294 10.3112 5.9584 10.2155 6.06118 10.1289C6.31842 9.93438 6.58741 9.93506 6.81462 10.1698C7.02877 10.391 7.04509 10.6599 6.86816 10.9206C6.78767 11.0299 6.69904 11.1323 6.60308 11.227C5.53407 12.3736 4.46506 13.5195 3.39604 14.6647C2.99908 15.0885 2.60669 15.5171 2.2045 15.9355C2.05891 16.087 2.06805 16.156 2.26131 16.2508C2.57274 16.4044 2.89853 16.4194 3.22759 16.4194C8.50563 16.4194 13.7837 16.4194 19.0617 16.4194C19.3379 16.4194 19.6134 16.4098 19.8817 16.315C20.1644 16.2153 20.2735 16.1328 19.996 15.8447C18.5413 14.3235 17.105 12.7817 15.6627 11.2461C15.567 11.1521 15.4796 11.0493 15.4015 10.939C15.2253 10.666 15.2305 10.3828 15.4668 10.1548C15.6875 9.94189 15.9474 9.94598 16.1902 10.1303C16.2933 10.2159 16.3896 10.3102 16.4782 10.4121C17.7922 11.8067 19.1063 13.2015 20.4204 14.5965C20.6006 14.7869 20.8082 15.1861 20.9779 15.0988C21.2176 14.9753 21.1575 14.5617 21.1575 14.2607C21.1575 11.0057 21.1575 7.75064 21.1575 4.49561C21.1575 4.3946 21.2038 4.27722 21.0922 4.17075C20.9819 4.26425 20.8696 4.3557 20.7612 4.45125C18.1931 6.72622 15.6268 9.00119 13.0622 11.2762C11.8054 12.3879 10.5022 12.3886 9.24144 11.2762C6.69862 9.03076 4.15907 6.78491 1.62277 4.53861C1.47914 4.41167 1.33354 4.28745 1.16574 4.14276C1.15248 4.19185 1.14222 4.24178 1.13506 4.29223C1.13506 7.68557 1.13506 11.0787 1.13506 14.4716C1.12373 14.7046 1.17315 14.9365 1.27804 15.1425ZM11.1473 1.18008C8.49605 1.18008 5.84463 1.18008 3.19299 1.18008C2.37556 1.18008 1.73703 1.4988 1.33223 2.27206C1.21406 2.49728 1.2245 2.64265 1.43278 2.82556C4.30945 5.35396 7.18068 7.88987 10.0465 10.4333C10.7647 11.0687 11.5181 11.0769 12.2304 10.4469C15.1106 7.89897 17.989 5.351 20.8656 2.80304C21.0615 2.629 21.0654 2.48977 20.9577 2.28093C20.5588 1.50699 19.9229 1.18144 19.1041 1.18144C16.4529 1.18098 13.8013 1.1803 11.1492 1.17939L11.1473 1.18008Z" fill="white"/>
<path d="M38.0002 27.7801C37.8997 32.4299 34.3211 36.1024 30.0055 35.9979C25.584 35.8915 22.155 32.1937 22.2196 27.66C22.2849 23.045 25.8857 19.4223 30.1693 19.4933C34.6064 19.567 38.0054 23.2572 38.0002 27.7801ZM34.8284 32.7179C36.5207 31.1809 37.4668 28.0708 36.4039 25.1989C35.8738 23.7671 34.9127 22.5543 33.6655 21.7435C32.4182 20.9326 30.9526 20.5678 29.4897 20.704C26.5686 20.9613 24.0634 23.2975 23.483 26.3004C22.9724 28.9444 24.0099 31.5856 25.4051 32.7063C26.0776 30.1886 28.082 28.9062 29.9408 28.9007C32.4571 28.8939 34.0358 30.2746 34.8284 32.7179ZM29.6137 34.7879C31.3171 34.8002 32.491 34.4514 33.5853 33.7819C33.7603 33.6747 33.7766 33.5539 33.7511 33.3765C33.6343 32.5616 33.317 31.845 32.7574 31.2649C31.6677 30.134 30.3678 29.7845 28.9151 30.2978C27.544 30.7823 26.7351 31.8225 26.4615 33.3158C26.4145 33.5696 26.4733 33.7048 26.6959 33.8358C27.7419 34.4494 28.8518 34.7879 29.6137 34.7879Z" fill="white"/>
<path d="M13.5818 22.5815C13.5818 22.1127 13.5818 21.6438 13.5818 21.1749C13.5818 20.8937 13.6732 20.6556 13.9376 20.5375C14.2021 20.4194 14.4267 20.5163 14.6186 20.7183C16.5447 22.7422 18.4703 24.7669 20.3955 26.7925C20.7141 27.1283 20.7141 27.434 20.3955 27.7671C18.4733 29.7754 16.5477 31.7806 14.6186 33.7826C14.4286 33.9798 14.2125 34.0876 13.9402 33.9641C13.668 33.8406 13.5831 33.6085 13.5818 33.3294C13.5779 32.4606 13.5694 31.5918 13.5818 30.723C13.5877 30.4199 13.525 30.3039 13.2025 30.278C11.6558 30.1524 10.1606 29.7961 8.93448 28.7383C6.24976 26.4226 5.32068 23.421 5.89001 19.8721C5.93832 19.5724 6.09763 19.3575 6.39601 19.3131C6.67871 19.2708 6.8687 19.4353 7.00516 19.6803C7.55163 20.6603 8.15361 21.596 8.94884 22.3809C10.1019 23.5186 11.4488 24.1997 13.0471 24.2919C13.5753 24.3219 13.5759 24.3198 13.5759 23.7827C13.5803 23.3805 13.5822 22.9801 13.5818 22.5815ZM6.86022 21.6704C6.87719 22.6778 7.00712 23.5336 7.30223 24.3512C7.94076 26.1257 8.95014 27.5828 10.6268 28.4237C11.6923 28.958 12.8466 29.0959 14.0134 29.1355C14.5318 29.1532 14.7257 29.3566 14.7316 29.8985C14.74 30.4636 14.7316 31.0294 14.7368 31.5945C14.7368 31.6894 14.6761 31.817 14.887 31.9132C16.2469 30.4684 17.6206 28.9997 19.01 27.5453C19.217 27.3289 19.2248 27.2252 19.01 27.0061C17.6768 25.6302 16.3605 24.2373 15.0371 22.8518C14.9588 22.7706 14.8967 22.6587 14.7289 22.6239V24.6611C14.7289 25.0446 14.6121 25.3572 14.2066 25.4077C13.8543 25.4621 13.4985 25.4874 13.1424 25.4835C11.3894 25.4111 9.86159 24.7539 8.52707 23.5773C7.92379 23.0456 7.4093 22.4246 6.86022 21.6704Z" fill="white"/>
<path d="M33.3812 25.0856C33.3355 26.9837 31.8488 28.5049 30.0749 28.4708C28.2592 28.4353 26.7503 26.8199 26.8202 24.9846C26.8933 23.0457 28.3682 21.5592 30.1709 21.6063C31.9735 21.6534 33.4256 23.2265 33.3812 25.0856ZM27.9621 25.0447C27.9627 25.3378 28.0186 25.6278 28.1265 25.8983C28.2344 26.1688 28.3922 26.4144 28.591 26.6211C28.7897 26.8278 29.0255 26.9916 29.2849 27.1029C29.5442 27.2143 29.822 27.2712 30.1023 27.2703C30.6686 27.2698 31.2117 27.0352 31.6133 26.6178C32.0148 26.2004 32.2422 25.6339 32.2458 25.042C32.2517 23.806 31.2501 22.7624 30.0801 22.7897C29.5152 22.8007 28.9769 23.0431 28.5814 23.4649C28.1858 23.8867 27.9646 24.454 27.9654 25.0447H27.9621Z" fill="white"/>
</g>
<defs>
<clipPath id="clip0_119_770">
<rect width="38" height="36" fill="white"/>
</clipPath>
</defs>
</svg>
