<svg width="36" height="36" viewBox="0 0 36 36" fill="none" xmlns="http://www.w3.org/2000/svg">
<g clip-path="url(#clip0_119_829)">
<path d="M36.0008 33.2584V33.9619C35.6344 35.0561 34.8528 35.4233 33.7321 35.4111C30.3504 35.3754 26.9686 35.398 23.5793 35.4008C23.4459 35.4008 23.2834 35.3416 23.1866 35.4825C23.0147 35.7352 22.7432 35.8479 22.4999 36.001H13.4988C13.3381 35.8695 13.0986 35.8432 12.9821 35.661C12.8158 35.4027 12.58 35.3952 12.3133 35.3952C8.91582 35.4002 5.51807 35.4002 2.12001 35.3952C1.94434 35.3952 1.76774 35.3952 1.59301 35.3764C1.34258 35.349 1.1008 35.2688 0.883552 35.1413C0.666307 35.0138 0.478527 34.8417 0.332561 34.6364C0.186595 34.4311 0.0857513 34.1972 0.0366587 33.9502C-0.0124339 33.7031 -0.00866238 33.4485 0.0477273 33.203C0.25627 32.3248 0.95893 31.7941 1.93871 31.7941C5.42946 31.7941 8.92083 31.7941 12.4128 31.7941C12.6364 31.7941 12.8027 31.7584 12.9558 31.5659C13.0537 31.448 13.1774 31.3542 13.3173 31.2916C13.4572 31.2291 13.6096 31.1995 13.7627 31.2052H14.5358C14.9896 31.2052 14.9952 31.2052 14.9924 30.7581C14.9877 29.9767 15.2967 29.3709 15.9985 29.0027C16.1676 28.9144 16.1976 28.8073 16.1967 28.643C16.191 28.0456 16.1967 27.4473 16.1967 26.85C16.1967 26.3982 16.1967 26.3973 15.7411 26.3973C12.1714 26.3973 8.59424 26.3916 5.02082 26.402C4.0589 26.402 3.22378 26.1202 2.5324 25.4505C2.08901 25.0222 1.80156 24.5216 1.8025 23.8735C1.80688 16.9382 1.80939 10.0032 1.81001 3.06851C1.81001 1.26893 3.1073 0.00659774 4.90998 0.00378003C7.32325 0.00378003 9.73747 -0.00655157 12.1507 0.00378003C13.4894 0.0103547 14.4457 0.640582 14.9961 1.86441C15.2836 2.50403 15.5673 3.1474 15.82 3.80111C15.9383 4.10543 16.0896 4.21626 16.4287 4.21532C19.6395 4.19935 22.8494 4.20499 26.0602 4.20686C26.5017 4.20686 26.9536 4.26509 27.2814 3.86498C27.3355 3.80153 27.4118 3.7612 27.4946 3.75227C28.2706 3.73255 28.2593 3.21503 28.2001 2.65994C28.1917 2.543 28.1917 2.42561 28.2001 2.30867C28.2248 1.73013 28.4566 1.17972 28.8532 0.757697C29.2497 0.335677 29.7847 0.0701259 30.3607 0.00941522C30.9318 -0.0444676 31.5033 0.107588 31.972 0.438123C32.4408 0.768657 32.7758 1.25588 32.9168 1.81181C33.0332 2.2617 32.991 2.72099 32.9825 3.17558C32.9769 3.45735 33.0295 3.59542 33.3526 3.65365C34.1041 3.79078 34.5597 4.27449 34.7486 5.01367C34.8228 5.30295 34.7871 5.59599 34.7974 5.8881C34.7974 5.99047 34.7749 6.10036 34.9054 6.15484C35.4907 6.40092 35.7932 6.88463 35.9961 7.45287V14.1318C35.7631 14.839 35.3629 15.4054 34.587 15.5406C34.2272 15.6017 34.1859 15.7567 34.1868 16.0657C34.1943 18.5612 34.2065 21.0568 34.1746 23.5514C34.1586 24.8184 33.2953 25.8807 32.0882 26.2639C31.7038 26.3705 31.3051 26.4164 30.9065 26.4001C27.3331 26.4001 23.7593 26.3979 20.1853 26.3935C19.8772 26.3935 19.7795 26.4715 19.7945 26.7842C19.8199 27.3337 19.8142 27.885 19.7945 28.4354C19.7842 28.7378 19.8142 28.9576 20.1468 29.1004C20.4605 29.2347 20.6653 29.5268 20.8166 29.8414C20.9479 30.1305 21.0121 30.4455 21.0044 30.7628C21.0044 31.208 21.0044 31.2071 21.4629 31.208H22.236C22.3902 31.2022 22.5437 31.2321 22.6844 31.2953C22.8252 31.3585 22.9495 31.4533 23.0476 31.5725C23.2007 31.765 23.3679 31.7988 23.5906 31.7988C27.0819 31.7932 30.5739 31.7932 34.0666 31.7988C35.036 31.7988 35.641 32.2487 35.9453 33.1748C35.9598 33.2051 35.9785 33.2332 36.0008 33.2584ZM17.9749 25.1969C22.3224 25.1969 26.6699 25.1969 31.0173 25.1969C32.2883 25.1969 32.9966 24.4859 32.9985 23.2161C32.9985 20.8022 32.991 18.3893 33.0079 15.9755C33.0079 15.6449 32.8998 15.5998 32.6096 15.5998C30.8248 15.612 29.0474 15.6064 27.2664 15.6054C25.9193 15.6054 25.1997 14.8926 25.1997 13.5523C25.1997 11.748 25.2129 9.94372 25.1941 8.13945C25.1847 7.26971 25.4487 6.58501 26.2603 6.16705C26.5365 6.02523 26.3937 5.74439 26.3862 5.53212C26.3786 5.31986 26.1654 5.41284 26.047 5.4119C24.5121 5.40439 22.9771 5.41942 21.4441 5.39781C21.089 5.39312 21.0016 5.48235 21.0035 5.83832C21.0185 8.8373 21.0101 11.8363 21.0129 14.8362C21.0129 15.7275 20.6963 16.4573 19.958 16.9805C19.4789 17.3205 18.9322 17.4013 18.361 17.4003C13.3804 17.3966 8.40166 17.3937 3.42481 17.3919C3.11293 17.3919 3.00866 17.4604 3.01148 17.7929C3.02776 19.7728 3.02776 21.7531 3.01148 23.7336C3.0054 23.9084 3.03979 24.0823 3.11198 24.2416C3.18416 24.4009 3.29219 24.5414 3.42763 24.6522C3.88041 25.0551 4.4121 25.1997 5.01331 25.1988C9.32821 25.1925 13.6488 25.1919 17.9749 25.1969ZM10.9643 16.1981H18.3854C19.3624 16.1981 19.8114 15.7548 19.8124 14.7892C19.8124 11.7903 19.8077 8.79128 19.8199 5.79136C19.8199 5.48235 19.7419 5.40251 19.431 5.40345C15.8576 5.41472 12.2841 5.41691 8.71072 5.41003C8.57032 5.41689 8.42958 5.40902 8.29082 5.38654C8.14525 5.35906 8.01534 5.27782 7.92693 5.15896C7.83852 5.04011 7.79806 4.89235 7.81361 4.74504C7.82667 4.60334 7.89125 4.47134 7.99513 4.37406C8.09901 4.27678 8.23496 4.22096 8.37724 4.21719C8.49372 4.20686 8.61115 4.21156 8.72857 4.21156C10.6149 4.21156 12.5011 4.21156 14.3874 4.21156C14.6382 4.21156 14.6955 4.1646 14.5837 3.92133C14.3292 3.36906 14.1141 2.79425 13.8557 2.24855C13.5439 1.59109 12.9981 1.21539 12.27 1.20882C9.76502 1.19191 7.25781 1.19191 4.7484 1.20882C3.79023 1.21539 3.05751 1.98181 3.01994 2.94265C3.00866 3.24696 3.03121 3.55315 3.01054 3.85653C2.99176 4.12421 3.06785 4.22189 3.35624 4.21532C4.22235 4.19653 5.09034 4.20405 5.95739 4.21532C6.40172 4.22001 6.69387 4.56284 6.58866 4.94135C6.49472 5.28793 6.23639 5.41097 5.89539 5.41097C5.04995 5.41097 4.2045 5.4213 3.36469 5.40439C3.09603 5.39969 3.00679 5.46262 3.00773 5.74909C3.01837 9.11156 3.01837 12.4737 3.00773 15.8356C3.00773 16.1267 3.08288 16.2112 3.3769 16.2066C5.89821 16.1925 8.42891 16.1981 10.9596 16.1981H10.9643ZM30.6265 14.4079H33.9999C34.602 14.4079 34.8059 14.205 34.8068 13.6096C34.8068 11.748 34.8068 9.88611 34.8068 8.02392C34.8068 7.39651 34.6189 7.20021 33.9924 7.19927C31.7322 7.19927 29.4717 7.19927 27.2109 7.19927C26.6032 7.19927 26.404 7.39463 26.4031 7.99668C26.4031 9.87015 26.4031 11.7436 26.4031 13.6171C26.4031 14.2097 26.6116 14.407 27.2175 14.4079H30.6265ZM18.0012 34.8025C19.2891 34.8025 20.577 34.794 21.8649 34.81C22.1467 34.81 22.22 34.7264 22.2115 34.455C22.1918 33.8586 22.1984 33.2612 22.2115 32.6639C22.2115 32.4657 22.1514 32.398 21.9523 32.4027C21.46 32.414 20.9687 32.4027 20.4765 32.4027C20.0547 32.4027 19.6311 32.414 19.2121 32.3962C18.8439 32.3811 18.6109 32.1304 18.6118 31.7941C18.6128 31.4579 18.8486 31.2249 19.2196 31.2062C19.3483 31.1996 19.477 31.2062 19.6057 31.2062C19.6752 31.2062 19.7438 31.2062 19.7889 31.1329C20.0218 30.7403 19.6818 30.0284 19.2299 30.0171C18.4108 29.9974 17.5907 30.0049 16.7716 30.0171C16.4616 30.0171 16.2803 30.2049 16.2173 30.5083C16.0952 31.0878 16.1704 31.1855 16.7518 31.209C17.2215 31.2287 17.5118 31.5997 17.3577 32.0092C17.2431 32.3145 16.9905 32.4093 16.6842 32.4084C15.8294 32.4084 14.9745 32.4187 14.1197 32.4018C13.8501 32.3962 13.7825 32.4816 13.79 32.739C13.8088 33.3241 13.8069 33.9102 13.79 34.4954C13.7825 34.7414 13.8567 34.8119 14.1037 34.81C15.401 34.7969 16.7011 34.8025 18.0012 34.8025ZM7.13726 32.9954C5.45138 32.9954 3.7655 32.9954 2.07961 32.9954C1.48968 32.9954 1.1919 33.2049 1.19941 33.6115C1.20693 34.0182 1.48123 34.1957 2.0674 34.1957H11.7261C12.6045 34.1957 12.5932 34.1957 12.6007 33.3223C12.6007 33.0565 12.5256 32.9879 12.2644 32.9888C10.5538 33.0001 8.84599 32.9954 7.13726 32.9954ZM28.8962 32.9954H24.2256C23.4027 32.9954 23.4168 32.9954 23.397 33.8135C23.3895 34.1197 23.4675 34.2042 23.7813 34.2033C27.1762 34.1911 30.5711 34.1957 33.9661 34.1957C34.0601 34.1981 34.1542 34.1953 34.2479 34.1873C34.571 34.1516 34.804 33.9159 34.7974 33.6106C34.8041 33.4679 34.7571 33.3279 34.6656 33.2182C34.5741 33.1085 34.4449 33.0371 34.3033 33.0179C34.1762 32.9981 34.0476 32.9906 33.9191 32.9954C32.2451 32.9948 30.5708 32.9948 28.8962 32.9954ZM30.6218 6.00268C31.5218 6.00268 32.4217 6.00268 33.3216 6.00268C33.424 6.00268 33.5546 6.05622 33.6035 5.88058C33.7772 5.25787 33.4447 4.80704 32.7937 4.8061C31.3533 4.8061 29.9154 4.8061 28.4801 4.8061C27.768 4.8061 27.5989 4.99394 27.5961 5.70401C27.5961 5.95948 27.69 6.01395 27.9211 6.01114C28.821 5.99047 29.7172 6.00268 30.6218 6.00268ZM30.5965 3.60294V3.5757C30.9798 3.5757 31.4945 3.72597 31.7115 3.53625C31.9614 3.31741 31.7914 2.79049 31.7876 2.39883C31.7894 2.24361 31.7604 2.08958 31.7024 1.94559C31.6444 1.8016 31.5585 1.67049 31.4496 1.55981C31.3407 1.44914 31.2111 1.36107 31.068 1.30067C30.925 1.24027 30.7715 1.20874 30.6162 1.20788C30.3028 1.20473 30.0005 1.32397 29.7736 1.54025C29.5468 1.75654 29.4133 2.05278 29.4016 2.36596C29.3837 2.70408 29.4016 3.04315 29.3931 3.38221C29.3931 3.54846 29.4476 3.60951 29.6148 3.60575C29.9417 3.59166 30.2696 3.59824 30.5965 3.59824V3.60294ZM18.6015 27.5751V27.2933C18.6015 26.3663 18.6015 26.3757 17.6837 26.3916C17.4451 26.3963 17.3859 26.4856 17.3934 26.7006C17.4066 27.1083 17.3934 27.5168 17.3934 27.9216C17.3934 28.8233 17.3934 28.813 18.2943 28.8073C18.5498 28.8073 18.6137 28.7134 18.6015 28.4796C18.5902 28.1818 18.6015 27.8784 18.6015 27.5751Z" fill="white"/>
<path d="M14.4052 11.3685C14.4052 10.6087 14.4052 9.84791 14.4052 9.08807C14.4109 8.28126 14.889 7.80789 15.7016 7.80789C16.0153 7.80789 16.331 7.77877 16.641 7.86236C17.0582 7.96999 17.4233 8.22297 17.6706 8.57577C17.9179 8.92856 18.0311 9.35802 17.9899 9.78686C17.9438 10.2215 17.741 10.6246 17.4195 10.9208C17.098 11.217 16.6797 11.3862 16.2427 11.3967C15.6011 11.4174 15.6011 11.4174 15.6011 12.0739C15.6011 12.6121 15.6011 13.1503 15.6011 13.6875C15.5964 14.1224 15.3531 14.4041 14.997 14.4041C14.641 14.4041 14.4062 14.1224 14.4043 13.6847C14.4052 12.9126 14.4052 12.1406 14.4052 11.3685ZM15.6039 9.63846C15.6668 9.84415 15.4038 10.2518 15.9731 10.2095C16.5029 10.1701 16.7922 9.99631 16.7988 9.61216C16.8054 9.22801 16.5123 9.00354 15.9909 9.00354C15.603 9.0026 15.603 9.0026 15.603 9.63846H15.6039Z" fill="white"/>
<path d="M4.79282 11.3394C4.79282 10.6134 4.79282 9.88739 4.79282 9.16136C4.79282 8.28599 5.27003 7.80886 6.13332 7.80604C6.66031 7.80604 7.18731 7.80135 7.71524 7.80604C8.13327 7.81074 8.38972 8.04273 8.38878 8.40246C8.38784 8.76218 8.13139 8.99606 7.71336 9.00075C7.23334 9.00639 6.75237 9.01108 6.27329 9.00075C6.06662 9.00075 5.99147 9.04959 5.98678 9.27125C5.96705 10.203 5.95859 10.202 6.87449 10.203C6.99098 10.203 7.10934 10.1964 7.22488 10.2077C7.3786 10.2169 7.5231 10.2841 7.62926 10.3956C7.73542 10.5072 7.79535 10.6548 7.79697 10.8088C7.79697 11.1347 7.54146 11.3855 7.18167 11.3977C6.87731 11.408 6.57201 11.4127 6.26859 11.3977C6.05253 11.3874 5.98678 11.4615 5.98678 11.6795C5.99899 12.3463 5.99429 13.0141 5.98678 13.6819C5.98678 14.1327 5.76132 14.4032 5.40154 14.4089C5.04176 14.4145 4.79188 14.1271 4.78906 13.6641C4.79 12.8854 4.79282 12.1124 4.79282 11.3394Z" fill="white"/>
<path d="M10.8038 11.5132C10.8038 10.7994 10.7907 10.0856 10.8104 9.37175C10.8179 9.08998 10.755 8.95285 10.4497 9.00075C10.3451 9.01421 10.2391 9.01263 10.135 8.99605C9.98762 8.98158 9.85127 8.91162 9.75358 8.80034C9.65589 8.68906 9.60418 8.5448 9.60895 8.39682C9.60568 8.32313 9.61708 8.24952 9.64249 8.18027C9.66791 8.11102 9.70682 8.04751 9.75699 7.99342C9.80715 7.93933 9.86756 7.89574 9.93471 7.86519C10.0019 7.83464 10.0744 7.81772 10.1482 7.81543C10.9786 7.79852 11.809 7.79946 12.6394 7.81543C12.7884 7.82089 12.9298 7.88304 13.0345 7.98917C13.1393 8.09531 13.1995 8.23742 13.203 8.38649C13.2033 8.54017 13.1463 8.68844 13.0431 8.80236C12.9399 8.91628 12.798 8.98768 12.645 9.00263C12.4402 9.02893 12.1537 8.9087 12.0495 9.06931C11.9452 9.22992 12.01 9.49854 12.01 9.71926C12.01 10.9829 12.01 12.2464 12.01 13.51C12.0139 13.6153 12.0117 13.7206 12.0034 13.8256C11.9602 14.1816 11.6925 14.4239 11.3731 14.4042C11.2187 14.3969 11.0734 14.3288 10.9691 14.2147C10.8647 14.1007 10.8097 13.95 10.8161 13.7956C10.8048 13.0357 10.8161 12.2749 10.8161 11.5151L10.8038 11.5132Z" fill="white"/>
<path d="M30.6369 8.40527C31.0262 8.41243 31.4027 8.54606 31.7094 8.78598C32.0162 9.0259 32.2365 9.35909 32.3372 9.73523C32.4449 10.1222 32.4168 10.5345 32.2575 10.9033C32.0982 11.2721 31.8173 11.5752 31.4617 11.7621C31.3716 11.798 31.2966 11.8638 31.2494 11.9485C31.2022 12.0332 31.1856 12.1315 31.2024 12.227C31.2276 12.4131 31.2145 12.6023 31.1639 12.7831C31.0596 13.0761 30.8426 13.2236 30.5439 13.1926C30.2452 13.1616 29.9981 12.9794 30.0272 12.675C30.0789 12.1387 29.875 11.8354 29.4307 11.5301C28.806 11.1018 28.6482 10.2396 28.93 9.5333C29.0664 9.19431 29.3028 8.90486 29.6077 8.70338C29.9125 8.50189 30.2715 8.39792 30.6369 8.40527ZM30.6078 9.61313C30.529 9.61027 30.4506 9.62359 30.3772 9.65225C30.3039 9.68092 30.2372 9.72432 30.1813 9.77978C30.1254 9.83524 30.0814 9.90158 30.0522 9.97469C30.0229 10.0478 30.009 10.1261 30.0112 10.2048C30.0096 10.3576 30.0676 10.505 30.1728 10.6158C30.278 10.7266 30.4222 10.7921 30.5749 10.7984C30.734 10.8028 30.8886 10.7445 31.0052 10.6362C31.1219 10.5278 31.1913 10.378 31.1986 10.2189C31.1999 10.1403 31.1855 10.0622 31.1565 9.98912C31.1274 9.91604 31.0842 9.84943 31.0293 9.79312C30.9743 9.73681 30.9088 9.69192 30.8365 9.66103C30.7641 9.63014 30.6864 9.61387 30.6078 9.61313Z" fill="white"/>
</g>
<defs>
<clipPath id="clip0_119_829">
<rect width="36" height="36" fill="white"/>
</clipPath>
</defs>
</svg>
