<svg width="29" height="29" viewBox="0 0 29 29" fill="none" xmlns="http://www.w3.org/2000/svg">
<path fill-rule="evenodd" clip-rule="evenodd" d="M3.37523 2.22282L2.08607 4.80113C1.05071 6.87186 0.610861 9.21807 1.36534 11.4068C2.27161 14.0359 4.08359 17.8037 7.63981 21.36C11.196 24.9162 14.9639 26.7282 17.593 27.6344C19.7817 28.3889 22.1279 27.9491 24.1987 26.9137L26.8632 25.5815C28.6695 24.6783 29.0855 22.2843 27.6896 20.8247L24.7505 17.7514C23.7205 16.6745 22.0512 16.5294 20.8509 17.4125C19.5049 18.4029 17.7051 18.5717 16.2942 17.6762C15.4524 17.1418 14.5565 16.504 13.9209 15.8684C13.1834 15.1309 12.4429 14.043 11.8645 13.0956C11.1257 11.8856 11.1362 10.385 11.7703 9.1169L12.1644 8.3287C12.7419 7.17374 12.5155 5.77882 11.6024 4.86574L8.17983 1.44314C6.7319 -0.00478595 4.29098 0.391326 3.37523 2.22282ZM5.38769 3.22905L4.09854 5.80736C3.23497 7.53448 2.99692 9.23587 3.49251 10.6736C4.31517 13.0601 5.96974 16.5079 9.2308 19.769C12.4919 23.03 15.9397 24.6846 18.3262 25.5073C19.7639 26.0029 21.4653 25.7648 23.1924 24.9012L25.8569 23.569C26.3085 23.3432 26.4125 22.7447 26.0635 22.3798L23.1244 19.3065C22.8761 19.0469 22.4737 19.012 22.1844 19.2248C20.1916 20.6911 17.3832 21.0324 15.0884 19.5758C14.2047 19.0148 13.1424 18.2719 12.3299 17.4594C11.3956 16.5251 10.5422 15.2477 9.94415 14.2681C8.75421 12.3192 8.81937 9.98759 9.75784 8.11067L10.1519 7.32247C10.2963 7.03373 10.2397 6.685 10.0114 6.45673L6.58884 3.03413C6.22686 2.67215 5.61663 2.77117 5.38769 3.22905Z" fill="white"/>
<path d="M20.8032 7.68194C19.8229 6.70169 18.6318 6.17384 17.7273 6.30306C17.3172 6.36164 16.9373 6.07671 16.8787 5.66666C16.8202 5.2566 17.1051 4.87671 17.5151 4.81813C19.0854 4.59383 20.7228 5.48021 21.8638 6.62129C23.0049 7.76237 23.8913 9.39973 23.6669 10.97C23.6083 11.3801 23.2284 11.665 22.8184 11.6064C22.4083 11.5478 22.1234 11.1679 22.182 10.7579C22.3112 9.85327 21.7834 8.6622 20.8032 7.68194Z" fill="white"/>
<path d="M16.8265 9.44383C18.2725 8.89535 19.5898 10.2125 19.0412 11.6586C18.8943 12.0459 19.0892 12.4789 19.4765 12.6258C19.8638 12.7727 20.2968 12.5779 20.4437 12.1906C21.4509 9.53543 18.9497 7.03423 16.2946 8.04133C15.9073 8.18823 15.7124 8.62127 15.8593 9.00856C16.0062 9.39585 16.4392 9.59073 16.8265 9.44383Z" fill="white"/>
</svg>
