<svg width="31" height="31" viewBox="0 0 31 31" fill="none" xmlns="http://www.w3.org/2000/svg">
<path fill-rule="evenodd" clip-rule="evenodd" d="M9.5 0.5H6.5C3.18629 0.5 0.5 3.18629 0.5 6.5V11C0.5 14.3137 3.18629 17 6.5 17H9.5C12.8137 17 15.5 14.3137 15.5 11V6.5C15.5 3.18629 12.8137 0.5 9.5 0.5ZM6.5 2.75H9.5C11.5711 2.75 13.25 4.42893 13.25 6.5V11C13.25 13.0711 11.5711 14.75 9.5 14.75H6.5C4.42893 14.75 2.75 13.0711 2.75 11V6.5C2.75 4.42893 4.42893 2.75 6.5 2.75Z" fill="white"/>
<path fill-rule="evenodd" clip-rule="evenodd" d="M24.5 0.5H23C19.6863 0.5 17 3.18629 17 6.5C17 9.81371 19.6863 12.5 23 12.5H24.5C27.8137 12.5 30.5 9.81371 30.5 6.5C30.5 3.18629 27.8137 0.5 24.5 0.5ZM23 2.75H24.5C26.5711 2.75 28.25 4.42893 28.25 6.5C28.25 8.57107 26.5711 10.25 24.5 10.25H23C20.9289 10.25 19.25 8.57107 19.25 6.5C19.25 4.42893 20.9289 2.75 23 2.75Z" fill="white"/>
<path fill-rule="evenodd" clip-rule="evenodd" d="M21.5 14H24.5C27.8137 14 30.5 16.6863 30.5 20V24.5C30.5 27.8137 27.8137 30.5 24.5 30.5H21.5C18.1863 30.5 15.5 27.8137 15.5 24.5V20C15.5 16.6863 18.1863 14 21.5 14ZM21.5 16.25C19.4289 16.25 17.75 17.9289 17.75 20V24.5C17.75 26.5711 19.4289 28.25 21.5 28.25H24.5C26.5711 28.25 28.25 26.5711 28.25 24.5V20C28.25 17.9289 26.5711 16.25 24.5 16.25H21.5Z" fill="white"/>
<path fill-rule="evenodd" clip-rule="evenodd" d="M8 18.5H6.5C3.18629 18.5 0.5 21.1863 0.5 24.5C0.5 27.8137 3.18629 30.5 6.5 30.5H8C11.3137 30.5 14 27.8137 14 24.5C14 21.1863 11.3137 18.5 8 18.5ZM6.5 20.75H8C10.0711 20.75 11.75 22.4289 11.75 24.5C11.75 26.5711 10.0711 28.25 8 28.25H6.5C4.42893 28.25 2.75 26.5711 2.75 24.5C2.75 22.4289 4.42893 20.75 6.5 20.75Z" fill="white"/>
</svg>
