<svg width="31" height="29" viewBox="0 0 31 29" fill="none" xmlns="http://www.w3.org/2000/svg">
<path fill-rule="evenodd" clip-rule="evenodd" d="M5.5616 4.87497C5.17302 3.71258 5.36167 2.26309 6.43558 1.24156C7.51913 0.210863 9.13943 0.0802957 10.3628 0.95305L14.4478 3.86736C15.0924 4.32722 15.9076 4.32722 16.5522 3.86736L20.6372 0.953052C21.8606 0.0802982 23.4809 0.210862 24.5644 1.24156C25.6383 2.26309 25.827 3.71258 25.4384 4.87497H27.5C28.9497 4.87497 30.125 6.05022 30.125 7.49997V10.5C30.125 11.8224 29.1471 12.9164 27.875 13.0984V22.5C27.875 25.6066 25.3566 28.125 22.25 28.125H8.75C5.6434 28.125 3.125 25.6066 3.125 22.5V13.0984C1.85289 12.9164 0.875 11.8224 0.875 10.5V7.49997C0.875 6.05022 2.05025 4.87497 3.5 4.87497H5.5616ZM7.98631 2.87181C8.30184 2.57168 8.72514 2.54863 9.05605 2.7847L11.986 4.87497H8.57386C8.1935 4.87497 7.85827 4.63269 7.69968 4.17386C7.54013 3.71224 7.63245 3.20842 7.98631 2.87181ZM3.5 7.12497C3.29289 7.12497 3.125 7.29286 3.125 7.49997V10.5C3.125 10.7071 3.29289 10.875 3.5 10.875H27.5C27.7071 10.875 27.875 10.7071 27.875 10.5V7.49997C27.875 7.29286 27.7071 7.12497 27.5 7.12497H3.5ZM22.4261 4.87497C22.8065 4.87497 23.1417 4.63269 23.3003 4.17386C23.4599 3.71224 23.3675 3.20842 23.0137 2.87181C22.6982 2.57168 22.2749 2.54863 21.944 2.78471L19.014 4.87497H22.4261ZM5.375 22.5V13.125H9.3319V16.8011C9.3319 18.7272 11.3347 19.9772 13.0633 19.1815C14.357 18.586 15.8671 18.586 17.1609 19.1815C18.8894 19.9772 20.8922 18.7272 20.8922 16.8011V13.125H25.625V22.5C25.625 24.3639 24.114 25.875 22.25 25.875H8.75C6.88604 25.875 5.375 24.3639 5.375 22.5ZM11.5819 16.8011V13.125H18.6422V16.8011C18.6422 17.063 18.3607 17.2569 18.1017 17.1377C16.2108 16.2673 14.0133 16.2673 12.1225 17.1377C11.8634 17.2569 11.5819 17.063 11.5819 16.8011Z" fill="white"/>
</svg>
