<svg width="31" height="29" viewBox="0 0 31 29" fill="none" xmlns="http://www.w3.org/2000/svg">
<path d="M8 0.375C4.06497 0.375 0.875 3.56497 0.875 7.5V14.9832C0.875 18.0991 3.4009 20.625 6.51676 20.625C7.35466 20.625 8.16291 20.9352 8.78572 21.4957L9.5 22.1385V19.2282C8.61042 18.674 7.57788 18.375 6.51676 18.375C4.64354 18.375 3.125 16.8565 3.125 14.9832V7.5C3.125 4.80761 5.30761 2.625 8 2.625H18.5C21.1924 2.625 23.375 4.80761 23.375 7.5V9H25.625V7.5C25.625 3.56497 22.435 0.375 18.5 0.375H8Z" fill="white"/>
<path d="M15.5 19.5C16.1213 19.5 16.625 18.9963 16.625 18.375C16.625 17.7537 16.1213 17.25 15.5 17.25C14.8787 17.25 14.375 17.7537 14.375 18.375C14.375 18.9963 14.8787 19.5 15.5 19.5Z" fill="white"/>
<path d="M21.125 18.375C21.125 18.9963 20.6213 19.5 20 19.5C19.3787 19.5 18.875 18.9963 18.875 18.375C18.875 17.7537 19.3787 17.25 20 17.25C20.6213 17.25 21.125 17.7537 21.125 18.375Z" fill="white"/>
<path d="M24.5 19.5C25.1213 19.5 25.625 18.9963 25.625 18.375C25.625 17.7537 25.1213 17.25 24.5 17.25C23.8787 17.25 23.375 17.7537 23.375 18.375C23.375 18.9963 23.8787 19.5 24.5 19.5Z" fill="white"/>
<path fill-rule="evenodd" clip-rule="evenodd" d="M9.875 13.5C9.875 11.2218 11.7218 9.375 14 9.375H26C28.2782 9.375 30.125 11.2218 30.125 13.5V21.2866C30.125 23.9035 28.0035 26.025 25.3866 26.025C24.7719 26.025 24.1789 26.2525 23.7219 26.6638L22.7595 27.53C21.1907 28.9419 18.8093 28.9419 17.2405 27.53L16.2781 26.6638C15.8211 26.2526 15.2281 26.025 14.6134 26.025C11.9965 26.025 9.875 23.9035 9.875 21.2866V13.5ZM14 11.625C12.9645 11.625 12.125 12.4645 12.125 13.5V21.2866C12.125 22.6609 13.2391 23.775 14.6134 23.775C15.784 23.775 16.9131 24.2083 17.7832 24.9914L18.7457 25.8576C19.4588 26.4994 20.5412 26.4994 21.2543 25.8576L22.2168 24.9914C23.0869 24.2083 24.216 23.775 25.3866 23.775C26.7609 23.775 27.875 22.6609 27.875 21.2866V13.5C27.875 12.4645 27.0355 11.625 26 11.625H14Z" fill="white"/>
</svg>
