<svg width="20" height="17" viewBox="0 0 20 17" fill="none" xmlns="http://www.w3.org/2000/svg">
<path d="M7 5C7 5.82843 6.32843 6.5 5.5 6.5C4.67157 6.5 4 5.82843 4 5C4 4.17157 4.67157 3.5 5.5 3.5C6.32843 3.5 7 4.17157 7 5Z" fill="#3389EE"/>
<path fill-rule="evenodd" clip-rule="evenodd" d="M4 0.5H16C18.2091 0.5 20 2.29086 20 4.5V12.5C20 14.7091 18.2091 16.5 16 16.5H4C1.79086 16.5 0 14.7091 0 12.5V4.5C0 2.29086 1.79086 0.5 4 0.5ZM16 2H4C2.61929 2 1.5 3.11929 1.5 4.5V12.5C1.5 13.2971 1.87309 14.0072 2.45417 14.4649L4.54086 12.0065C5.23272 11.0552 6.67117 11.1188 7.27637 12.1275C7.97864 13.298 9.71951 13.15 10.2142 11.8779L11.3178 9.04013C11.7941 7.81536 13.4758 7.68569 14.1342 8.82298L17.6246 14.4002C18.1604 13.9417 18.5 13.2605 18.5 12.5V4.5C18.5 3.11929 17.3807 2 16 2Z" fill="#3389EE"/>
</svg>
