<svg width="34" height="28" viewBox="0 0 34 28" fill="none" xmlns="http://www.w3.org/2000/svg">
<path d="M9.50016 10.6667C10.8809 10.6667 12.0002 9.5474 12.0002 8.16669C12.0002 6.78597 10.8809 5.66669 9.50016 5.66669C8.11945 5.66669 7.00016 6.78597 7.00016 8.16669C7.00016 9.5474 8.11945 10.6667 9.50016 10.6667Z" fill="white"/>
<path fill-rule="evenodd" clip-rule="evenodd" d="M7.00016 0.666687H27.0002C30.6821 0.666687 33.6668 3.65146 33.6668 7.33335V20.6667C33.6668 24.3486 30.6821 27.3334 27.0002 27.3334H7.00016C3.31826 27.3334 0.333496 24.3486 0.333496 20.6667V7.33335C0.333496 3.65146 3.31826 0.666687 7.00016 0.666687ZM27.0002 3.16669H7.00016C4.69898 3.16669 2.8335 5.03217 2.8335 7.33335V20.6667C2.8335 21.3097 2.97917 21.9188 3.23933 22.4626L6.89067 17.442C8.57055 15.1322 12.0632 15.2866 13.5326 17.7357C14.1684 18.7953 15.7444 18.6614 16.1922 17.5097L18.0315 12.7801C19.2053 9.76177 23.3497 9.44223 24.9723 12.245L30.817 22.3404C31.042 21.8282 31.1668 21.262 31.1668 20.6667V7.33335C31.1668 5.03217 29.3014 3.16669 27.0002 3.16669ZM7.00016 24.8334C6.26883 24.8334 5.58151 24.6449 4.98409 24.314L8.91251 18.9124C9.53884 18.0512 10.841 18.1088 11.3889 19.0219C13.0941 21.8639 17.321 21.5047 18.5222 18.4158L20.3615 13.6863C20.7754 12.622 22.2366 12.5094 22.8088 13.4976L29.0575 24.2908C28.4505 24.6361 27.7484 24.8334 27.0002 24.8334H7.00016Z" fill="white"/>
</svg>
