<svg width="19" height="18" viewBox="0 0 19 18" fill="none" xmlns="http://www.w3.org/2000/svg">
<path d="M14.2917 0.0895996H5.0249C2.46479 0.0895996 0.38208 2.17121 0.38208 4.72997V13.2032C0.38208 15.762 2.46479 17.8436 5.0249 17.8436H14.2917C16.8518 17.8436 18.9345 15.762 18.9345 13.2032V4.72997C18.9345 2.17121 16.8518 0.0895996 14.2917 0.0895996ZM2.01992 4.72997C2.01992 3.07412 3.36817 1.72657 5.0249 1.72657H14.2917C15.9484 1.72657 17.2966 3.07412 17.2966 4.72997V13.2032C17.2966 14.8591 15.9484 16.2066 14.2917 16.2066H5.0249C3.36817 16.2066 2.01992 14.8591 2.01992 13.2032V4.72997Z" fill="white"/>
<path d="M9.65821 13.2821C12.0389 13.2821 13.9768 11.3462 13.9768 8.96574C13.9768 6.58526 12.04 4.64941 9.65821 4.64941C7.27647 4.64941 5.3396 6.58526 5.3396 8.96574C5.3396 11.3462 7.27647 13.2821 9.65821 13.2821ZM9.65821 6.28744C11.1366 6.28744 12.339 7.48921 12.339 8.96679C12.339 10.4444 11.1366 11.6461 9.65821 11.6461C8.17986 11.6461 6.97744 10.4444 6.97744 8.96679C6.97744 7.48921 8.17986 6.28744 9.65821 6.28744Z" fill="white"/>
<path d="M14.3765 5.34671C15.0176 5.34671 15.5401 4.82552 15.5401 4.18373C15.5401 3.54194 15.0186 3.02075 14.3765 3.02075C13.7344 3.02075 13.2129 3.54194 13.2129 4.18373C13.2129 4.82552 13.7344 5.34671 14.3765 5.34671Z" fill="white"/>
</svg>
