<svg width="16" height="14" viewBox="0 0 16 14" fill="none" xmlns="http://www.w3.org/2000/svg">
<path d="M14.25 7.78125H1.75C1.45992 7.78125 1.18172 7.89648 0.976602 8.1016C0.771484 8.30672 0.65625 8.58492 0.65625 8.875V12.625C0.65625 12.9151 0.771484 13.1933 0.976602 13.3984C1.18172 13.6035 1.45992 13.7188 1.75 13.7188H14.25C14.5401 13.7188 14.8183 13.6035 15.0234 13.3984C15.2285 13.1933 15.3438 12.9151 15.3438 12.625V8.875C15.3438 8.58492 15.2285 8.30672 15.0234 8.1016C14.8183 7.89648 14.5401 7.78125 14.25 7.78125ZM14.4062 12.625C14.4062 12.6664 14.3898 12.7062 14.3605 12.7355C14.3312 12.7648 14.2914 12.7812 14.25 12.7812H1.75C1.70856 12.7812 1.66882 12.7648 1.63951 12.7355C1.61021 12.7062 1.59375 12.6664 1.59375 12.625V8.875C1.59375 8.83356 1.61021 8.79382 1.63951 8.76451C1.66882 8.73521 1.70856 8.71875 1.75 8.71875H14.25C14.2914 8.71875 14.3312 8.73521 14.3605 8.76451C14.3898 8.79382 14.4062 8.83356 14.4062 8.875V12.625ZM14.25 0.28125H1.75C1.45992 0.28125 1.18172 0.396484 0.976602 0.601602C0.771484 0.80672 0.65625 1.08492 0.65625 1.375V5.125C0.65625 5.26863 0.684541 5.41086 0.739507 5.54356C0.794473 5.67626 0.875038 5.79683 0.976602 5.8984C1.07817 5.99996 1.19874 6.08053 1.33144 6.13549C1.46414 6.19046 1.60637 6.21875 1.75 6.21875H14.25C14.3936 6.21875 14.5359 6.19046 14.6686 6.13549C14.8013 6.08053 14.9218 5.99996 15.0234 5.8984C15.125 5.79683 15.2055 5.67626 15.2605 5.54356C15.3155 5.41086 15.3438 5.26863 15.3438 5.125V1.375C15.3438 1.08492 15.2285 0.80672 15.0234 0.601602C14.8183 0.396484 14.5401 0.28125 14.25 0.28125ZM14.4062 5.125C14.4062 5.16644 14.3898 5.20618 14.3605 5.23549C14.3312 5.26479 14.2914 5.28125 14.25 5.28125H1.75C1.70856 5.28125 1.66882 5.26479 1.63951 5.23549C1.61021 5.20618 1.59375 5.16644 1.59375 5.125V1.375C1.59375 1.33356 1.61021 1.29382 1.63951 1.26451C1.66882 1.23521 1.70856 1.21875 1.75 1.21875H14.25C14.2914 1.21875 14.3312 1.23521 14.3605 1.26451C14.3898 1.29382 14.4062 1.33356 14.4062 1.375V5.125ZM12.8438 3.25C12.8438 3.40452 12.7979 3.55556 12.7121 3.68404C12.6262 3.81252 12.5042 3.91265 12.3615 3.97178C12.2187 4.03091 12.0616 4.04638 11.9101 4.01624C11.7585 3.98609 11.6193 3.91169 11.5101 3.80243C11.4008 3.69317 11.3264 3.55396 11.2963 3.40241C11.2661 3.25087 11.2816 3.09378 11.3407 2.95103C11.3998 2.80827 11.5 2.68626 11.6285 2.60041C11.7569 2.51457 11.908 2.46875 12.0625 2.46875C12.2697 2.46875 12.4684 2.55106 12.6149 2.69757C12.7614 2.84409 12.8438 3.0428 12.8438 3.25ZM12.8438 10.75C12.8438 10.9045 12.7979 11.0556 12.7121 11.184C12.6262 11.3125 12.5042 11.4127 12.3615 11.4718C12.2187 11.5309 12.0616 11.5464 11.9101 11.5162C11.7585 11.4861 11.6193 11.4117 11.5101 11.3024C11.4008 11.1932 11.3264 11.054 11.2963 10.9024C11.2661 10.7509 11.2816 10.5938 11.3407 10.451C11.3998 10.3083 11.5 10.1863 11.6285 10.1004C11.7569 10.0146 11.908 9.96875 12.0625 9.96875C12.2697 9.96875 12.4684 10.0511 12.6149 10.1976C12.7614 10.3441 12.8438 10.5428 12.8438 10.75Z" fill="#122730"/>
</svg>
