<svg width="18" height="18" viewBox="0 0 18 18" fill="none" xmlns="http://www.w3.org/2000/svg">
<path d="M1.39807 3.94864C1.00357 3.58265 0.807373 3.12963 0.807373 2.59062C0.807373 2.0516 1.00462 1.57865 1.39807 1.21161C1.79258 0.845626 2.30041 0.662109 2.9226 0.662109C3.54479 0.662109 4.03269 0.845626 4.42615 1.21161C4.82066 1.5776 5.01685 2.03797 5.01685 2.59062C5.01685 3.14326 4.81961 3.58265 4.42615 3.94864C4.03164 4.31462 3.53115 4.49814 2.9226 4.49814C2.31405 4.49814 1.79258 4.31462 1.39807 3.94864ZM4.6853 6.04808V17.2688H1.13787V6.04808H4.6853Z" fill="white"/>
<path d="M16.4944 7.1566C17.2677 7.99553 17.6538 9.14698 17.6538 10.613V17.0707H14.2847V11.0681C14.2847 10.3288 14.0927 9.75415 13.7098 9.34517C13.3268 8.93619 12.8106 8.73065 12.1643 8.73065C11.5179 8.73065 11.0017 8.93514 10.6187 9.34517C10.2358 9.75415 10.0438 10.3288 10.0438 11.0681V17.0707H6.65479V6.01669H10.0438V7.48273C10.3869 6.99405 10.8496 6.60815 11.4309 6.32396C12.0121 6.03977 12.6658 5.89819 13.3929 5.89819C14.6876 5.89819 15.7222 6.31766 16.4944 7.15555V7.1566Z" fill="white"/>
</svg>
