<svg width="16" height="18" viewBox="0 0 16 18" fill="none" xmlns="http://www.w3.org/2000/svg">
<path d="M8.625 11.7179C8.75466 11.571 8.83333 11.378 8.83333 11.1667C8.83333 10.7064 8.46024 10.3334 8 10.3334C7.53976 10.3334 7.16667 10.7064 7.16667 11.1667C7.16667 11.378 7.24534 11.571 7.375 11.7179V14.5C7.375 14.8452 7.65482 15.125 8 15.125C8.34518 15.125 8.625 14.8452 8.625 14.5V11.7179Z" fill="#34A853"/>
<path fill-rule="evenodd" clip-rule="evenodd" d="M4.04167 6.16669V4.50002C4.04167 2.31389 5.81387 0.541687 8 0.541687C10.1861 0.541687 11.9583 2.31389 11.9583 4.50002V6.16669H12.1667C14.0076 6.16669 15.5 7.65907 15.5 9.50002V14.5C15.5 16.341 14.0076 17.8334 12.1667 17.8334H3.83333C1.99238 17.8334 0.5 16.341 0.5 14.5V9.50002C0.5 7.65907 1.99238 6.16669 3.83333 6.16669H4.04167ZM5.29167 4.50002C5.29167 3.00425 6.50423 1.79169 8 1.79169C9.49577 1.79169 10.7083 3.00425 10.7083 4.50002V6.16669H5.29167V4.50002ZM1.75 9.50002C1.75 8.34943 2.68274 7.41669 3.83333 7.41669H12.1667C13.3173 7.41669 14.25 8.34943 14.25 9.50002V14.5C14.25 15.6506 13.3173 16.5834 12.1667 16.5834H3.83333C2.68274 16.5834 1.75 15.6506 1.75 14.5V9.50002Z" fill="#34A853"/>
</svg>
