<svg width="20" height="20" viewBox="0 0 20 20" fill="none" xmlns="http://www.w3.org/2000/svg">
<path d="M10.8629 5.87963C10.8733 5.39691 10.4848 5 10.002 5C9.51937 5 9.13098 5.39656 9.14103 5.87907L9.25294 11.2536C9.26141 11.6603 9.59349 11.9855 10.0002 11.9855C10.4068 11.9855 10.7388 11.6606 10.7475 11.2541L10.8629 5.87963Z" fill="#3489EF"/>
<path d="M9.29091 14.6908C9.48788 14.8969 9.72424 15 10 15C10.1818 15 10.347 14.9533 10.4955 14.8599C10.647 14.7633 10.7682 14.6345 10.8591 14.4734C10.953 14.3124 11 14.1337 11 13.9372C11 13.6473 10.9 13.3994 10.7 13.1932C10.503 12.9871 10.2697 12.8841 10 12.8841C9.72424 12.8841 9.48788 12.9871 9.29091 13.1932C9.09697 13.3994 9 13.6473 9 13.9372C9 14.2335 9.09697 14.4847 9.29091 14.6908Z" fill="#3489EF"/>
<path fill-rule="evenodd" clip-rule="evenodd" d="M20 10C20 15.5228 15.5228 20 10 20C4.47715 20 0 15.5228 0 10C0 4.47715 4.47715 0 10 0C15.5228 0 20 4.47715 20 10ZM18.5 10C18.5 14.6944 14.6944 18.5 10 18.5C5.30558 18.5 1.5 14.6944 1.5 10C1.5 5.30558 5.30558 1.5 10 1.5C14.6944 1.5 18.5 5.30558 18.5 10Z" fill="#3489EF"/>
</svg>
