<svg width="18" height="20" viewBox="0 0 18 20" fill="none" xmlns="http://www.w3.org/2000/svg">
<path d="M10.3863 0.925975C10.4095 0.982023 10.4293 1.03931 10.4455 1.09751C10.6692 1.13466 10.8895 1.18212 11.1058 1.2394C10.7391 1.62378 10.4482 2.08107 10.2571 2.58732C9.93262 2.52994 9.59869 2.5 9.25775 2.5C6.10982 2.5 3.55775 5.05222 3.55775 8.20033V9.5C3.55775 11.5041 2.94808 13.8973 2.4108 15.6423C2.34754 15.8477 2.38725 16.0699 2.51146 16.2468C2.63204 16.4185 2.79521 16.5 2.96722 16.5H15.3101C15.6288 16.5 15.9554 16.1594 15.8574 15.7417C15.4412 13.9687 14.9577 11.5012 14.9578 9.5V8.20033C14.9578 8.09513 14.9549 7.9906 14.9493 7.8868C15.4785 7.75806 15.9666 7.52404 16.39 7.20818C16.4347 7.53251 16.4578 7.86372 16.4578 8.20033V9.5C16.4577 11.3161 16.9049 13.6401 17.3177 15.3989C17.624 16.7039 16.6505 18 15.3101 18H11.0005C11.0005 18.2626 10.9488 18.5227 10.8482 18.7654C10.7477 19.008 10.6004 19.2285 10.4147 19.4142C10.229 19.5999 10.0085 19.7472 9.76585 19.8478C9.5232 19.9483 9.26313 20 9.00049 20C8.73784 20 8.47777 19.9483 8.23512 19.8478C7.99247 19.7472 7.77199 19.5999 7.58627 19.4142C7.40056 19.2285 7.25324 19.008 7.15273 18.7654C7.05222 18.5227 7.00049 18.2626 7.00049 18H2.96722C1.54893 18 0.559855 16.5563 0.977217 15.2009C1.50823 13.4763 2.05775 11.2651 2.05775 9.5V8.20033C2.05775 4.81982 4.38751 1.9832 7.52901 1.2089C7.54813 1.11224 7.57678 1.01745 7.61467 0.925975C7.69005 0.743986 7.80054 0.578628 7.93983 0.43934C8.07912 0.300052 8.24447 0.189563 8.42646 0.114181C8.60845 0.0387987 8.80351 0 9.00049 0C9.19747 0 9.39252 0.0387985 9.57451 0.114181C9.7565 0.189563 9.92186 0.300052 10.0611 0.43934C10.2004 0.578628 10.3109 0.743986 10.3863 0.925975Z" fill="#3489EF"/>
<path d="M14.0005 7C15.6573 7 17.0005 5.65685 17.0005 4C17.0005 2.34315 15.6573 1 14.0005 1C12.3436 1 11.0005 2.34315 11.0005 4C11.0005 5.65685 12.3436 7 14.0005 7Z" fill="#3489EF"/>
</svg>
