<svg width="18" height="18" viewBox="0 0 18 18" fill="none" xmlns="http://www.w3.org/2000/svg">
<path fill-rule="evenodd" clip-rule="evenodd" d="M17.713 3.88856C18.529 1.6038 16.3229 -0.602268 14.0382 0.213716L1.95022 4.53084C-0.56159 5.42791 -0.604296 8.96478 1.88512 9.92225L5.63045 11.3628C6.05967 11.5278 6.39887 11.867 6.56396 12.2963L8.00447 16.0416C8.96193 18.531 12.4988 18.4883 13.3959 15.9765L17.713 3.88856ZM14.4586 1.39089C15.7501 0.92965 16.9971 2.17665 16.5358 3.46814L12.2187 15.5561C11.7116 16.9759 9.71237 17 9.17115 15.5929L7.73064 11.8475C7.66153 11.6679 7.57516 11.4971 7.47352 11.3372L11.2083 7.60242C11.4524 7.35834 11.4524 6.96261 11.2083 6.71854C10.9642 6.47446 10.5685 6.47446 10.3244 6.71854L6.58967 10.4533C6.42974 10.3516 6.25892 10.2652 6.07917 10.1961L2.33384 8.75557C0.926673 8.21435 0.950816 6.2151 2.37064 5.70801L14.4586 1.39089Z" fill="#E93F81"/>
</svg>
