<svg width="16" height="18" viewBox="0 0 16 18" fill="none" xmlns="http://www.w3.org/2000/svg">
<path fill-rule="evenodd" clip-rule="evenodd" d="M3.75126 3.54704C3.69621 3.55431 3.64378 3.56854 3.59474 3.58872C2.93935 3.63992 2.36428 3.69083 1.95018 3.72923C1.73835 3.74888 1.56852 3.76526 1.45146 3.77675L1.31676 3.79012L1.27012 3.79484L1.26922 3.79494C0.925847 3.83019 0.676069 4.13713 0.711325 4.4805C0.746581 4.82388 1.05352 5.07365 1.39689 5.0384L1.39628 5.03242C1.3969 5.0384 1.39689 5.0384 1.39689 5.0384L1.44178 5.03385L1.57358 5.02077C1.68864 5.00948 1.85623 4.99331 2.06561 4.97389C2.48446 4.93505 3.07006 4.88325 3.73659 4.83145C5.0742 4.72752 6.72087 4.625 7.99972 4.625C9.27858 4.625 10.9252 4.72752 12.2629 4.83145C12.9294 4.88325 13.515 4.93505 13.9338 4.97389C14.1432 4.99331 14.3108 5.00948 14.4259 5.02077L14.5577 5.03385L14.602 5.03834C14.9454 5.0736 15.2529 4.82388 15.2881 4.4805C15.3234 4.13713 15.0736 3.83019 14.7302 3.79494L14.6827 3.79012L14.548 3.77675C14.4309 3.76526 14.2611 3.74888 14.0493 3.72923C13.6352 3.69083 13.0601 3.63992 12.4047 3.58871C12.3616 3.57103 12.316 3.5579 12.2681 3.55C11.8559 3.48198 11.5088 3.20408 11.3523 2.81666L11.2769 2.63013C10.8483 1.56941 9.8188 0.875 8.67478 0.875H7.55212C6.42325 0.875 5.40737 1.56021 4.98447 2.60688C4.77943 3.11436 4.31726 3.47233 3.77463 3.54396L3.75126 3.54704ZM7.55212 2.125C6.93279 2.125 6.37546 2.50092 6.14345 3.07515C6.09308 3.1998 6.0342 3.31951 5.9676 3.43366C6.67534 3.39823 7.37671 3.375 7.99972 3.375C8.69114 3.375 9.47906 3.40361 10.2651 3.44575C10.2393 3.39326 10.2154 3.33963 10.1933 3.28493L10.1179 3.0984C9.88023 2.51012 9.30926 2.125 8.67478 2.125H7.55212Z" fill="#E93F81"/>
<path d="M13.6224 6.55414C13.6523 6.21026 13.3977 5.90725 13.0539 5.87735C12.71 5.84745 12.407 6.10198 12.3771 6.44586L11.7061 14.1624C11.6218 15.1313 10.8107 15.875 9.83812 15.875H5.82817C4.82431 15.875 3.99855 15.0844 3.95494 14.0814L3.62413 6.47285C3.60914 6.128 3.31743 5.8606 2.97257 5.87559C2.62772 5.89058 2.36032 6.1823 2.37531 6.52715L2.70612 14.1357C2.7788 15.8073 4.15507 17.125 5.82817 17.125H9.83812C11.4591 17.125 12.8109 15.8856 12.9514 14.2707L13.6224 6.55414Z" fill="#E93F81"/>
<path d="M5.49972 13.375C5.15455 13.375 4.87472 13.6548 4.87472 14C4.87472 14.3452 5.15455 14.625 5.49972 14.625H10.4997C10.8449 14.625 11.1247 14.3452 11.1247 14C11.1247 13.6548 10.8449 13.375 10.4997 13.375H5.49972Z" fill="#E93F81"/>
<path d="M4.87472 11.5C4.87472 11.1548 5.15455 10.875 5.49972 10.875H10.4997C10.8449 10.875 11.1247 11.1548 11.1247 11.5C11.1247 11.8452 10.8449 12.125 10.4997 12.125H5.49972C5.15455 12.125 4.87472 11.8452 4.87472 11.5Z" fill="#E93F81"/>
<path d="M5.49972 8.375C5.15455 8.375 4.87472 8.65482 4.87472 9C4.87472 9.34518 5.15455 9.625 5.49972 9.625H10.4997C10.8449 9.625 11.1247 9.34518 11.1247 9C11.1247 8.65482 10.8449 8.375 10.4997 8.375H5.49972Z" fill="#E93F81"/>
</svg>
