<svg width="31" height="31" viewBox="0 0 31 31" fill="none" xmlns="http://www.w3.org/2000/svg">
<path d="M2.90625 6.45831C2.90625 5.92329 3.33997 5.48956 3.875 5.48956H27.125C27.66 5.48956 28.0938 5.92329 28.0938 6.45831C28.0938 6.99334 27.66 7.42706 27.125 7.42706H3.875C3.33997 7.42706 2.90625 6.99334 2.90625 6.45831Z" fill="white"/>
<path d="M2.90625 15.5C2.90625 14.965 3.33997 14.5312 3.875 14.5312H27.125C27.66 14.5312 28.0938 14.965 28.0938 15.5C28.0938 16.035 27.66 16.4687 27.125 16.4687H3.875C3.33997 16.4687 2.90625 16.035 2.90625 15.5Z" fill="white"/>
<path d="M3.875 23.5729C3.33997 23.5729 2.90625 24.0066 2.90625 24.5416C2.90625 25.0767 3.33997 25.5104 3.875 25.5104H27.125C27.66 25.5104 28.0938 25.0767 28.0938 24.5416C28.0938 24.0066 27.66 23.5729 27.125 23.5729H3.875Z" fill="white"/>
</svg>
