<svg width="15" height="15" viewBox="0 0 15 15" fill="none" xmlns="http://www.w3.org/2000/svg">
<path fill-rule="evenodd" clip-rule="evenodd" d="M0.744078 10.0893L9.25 1.58334C10.4006 0.43275 12.2661 0.432749 13.4167 1.58334C14.5673 2.73394 14.5673 4.59942 13.4167 5.75001L4.91074 14.2559C4.75446 14.4122 4.5425 14.5 4.32149 14.5H1.33333C0.873096 14.5 0.5 14.1269 0.5 13.6667V10.6785C0.5 10.4575 0.587797 10.2455 0.744078 10.0893ZM1.75 13.25V10.8511L10.1339 2.46723C10.7963 1.80479 11.8703 1.80479 12.5328 2.46723C13.1952 3.12966 13.1952 4.20369 12.5328 4.86613L4.1489 13.25H1.75Z" fill="#E93F81"/>
<path d="M8 13.0417C7.65482 13.0417 7.375 13.3215 7.375 13.6667C7.375 14.0118 7.65482 14.2917 8 14.2917H13.8333C14.1785 14.2917 14.4583 14.0118 14.4583 13.6667C14.4583 13.3215 14.1785 13.0417 13.8333 13.0417H8Z" fill="#E93F81"/>
</svg>
