<svg width="18" height="17" viewBox="0 0 18 17" fill="none" xmlns="http://www.w3.org/2000/svg">
<path d="M6.49955 9.75002C6.95979 9.75002 7.33288 9.37692 7.33288 8.91669C7.33288 8.45645 6.95979 8.08335 6.49955 8.08335C6.03931 8.08335 5.66621 8.45645 5.66621 8.91669C5.66621 9.37692 6.03931 9.75002 6.49955 9.75002Z" fill="#E93F81"/>
<path d="M10.6662 8.91669C10.6662 9.37692 10.2931 9.75002 9.83288 9.75002C9.37264 9.75002 8.99955 9.37692 8.99955 8.91669C8.99955 8.45645 9.37264 8.08335 9.83288 8.08335C10.2931 8.08335 10.6662 8.45645 10.6662 8.91669Z" fill="#E93F81"/>
<path d="M13.1662 9.75002C13.6265 9.75002 13.9995 9.37692 13.9995 8.91669C13.9995 8.45645 13.6265 8.08335 13.1662 8.08335C12.706 8.08335 12.3329 8.45645 12.3329 8.91669C12.3329 9.37692 12.706 9.75002 13.1662 9.75002Z" fill="#E93F81"/>
<path fill-rule="evenodd" clip-rule="evenodd" d="M9.69162 0.791687C5.58724 0.791687 2.25869 4.11512 2.25869 8.21638V9.82307L0.986543 12.9114C0.608532 13.829 1.22471 14.8492 2.21119 14.945L5.38376 15.2531L6.86244 15.77C11.8768 17.5229 17.1245 13.806 17.1245 8.49711V8.21638C17.1245 4.11512 13.796 0.791687 9.69162 0.791687ZM3.50869 8.21638C3.50869 4.8069 6.27616 2.04169 9.69162 2.04169C13.1071 2.04169 15.8745 4.8069 15.8745 8.21638V8.49711C15.8745 12.9429 11.4787 16.0596 7.27493 14.59L5.65427 14.0235L2.33201 13.7009C2.1783 13.686 2.08446 13.5279 2.14232 13.3874L3.50869 10.0704V8.21638Z" fill="#E93F81"/>
</svg>
