<svg width="20" height="20" viewBox="0 0 20 20" fill="none" xmlns="http://www.w3.org/2000/svg">
<path d="M5 0.25C2.37665 0.25 0.25 2.37665 0.25 5V15C0.25 17.6234 2.37665 19.75 5 19.75H7C9.07107 19.75 10.75 18.0711 10.75 16C10.75 15.5858 10.4142 15.25 10 15.25C9.58579 15.25 9.25 15.5858 9.25 16C9.25 17.2426 8.24264 18.25 7 18.25H5C3.20507 18.25 1.75 16.7949 1.75 15V5C1.75 3.20507 3.20507 1.75 5 1.75H7C8.24264 1.75 9.25 2.75736 9.25 4C9.25 4.41421 9.58579 4.75 10 4.75C10.4142 4.75 10.75 4.41421 10.75 4C10.75 1.92893 9.07107 0.25 7 0.25H5Z" fill="#3489EF"/>
<path d="M17.5303 7.46967C17.2374 7.17678 16.7626 7.17678 16.4697 7.46967C16.1768 7.76256 16.1768 8.23744 16.4697 8.53033L17.1893 9.25H9C8.58579 9.25 8.25 9.58579 8.25 10C8.25 10.4142 8.58579 10.75 9 10.75H17.1893L16.4697 11.4697C16.1768 11.7626 16.1768 12.2374 16.4697 12.5303C16.7626 12.8232 17.2374 12.8232 17.5303 12.5303L19.5303 10.5303C19.671 10.3897 19.75 10.1989 19.75 10C19.75 9.80109 19.671 9.61032 19.5303 9.46967L17.5303 7.46967Z" fill="#3489EF"/>
</svg>
