<svg width="18" height="19" viewBox="0 0 18 19" fill="none" xmlns="http://www.w3.org/2000/svg">
<path fill-rule="evenodd" clip-rule="evenodd" d="M10.1709 0.664632C9.98565 0.294148 9.53515 0.14398 9.16466 0.329222C8.7965 0.513303 8.6459 0.959333 8.82581 1.32848C8.82769 1.3381 8.83648 1.39332 8.80264 1.52265C8.75799 1.69324 8.65914 1.91176 8.50779 2.16278C8.27057 2.55622 7.95241 2.95123 7.67927 3.25004H5.01308C5.00505 3.24991 4.99701 3.24991 4.98894 3.25004H1.00007C0.585858 3.25004 0.250072 3.58583 0.250072 4.00004C0.250072 4.41426 0.585858 4.75004 1.00007 4.75004H4.35852C4.79237 7.3209 5.71637 10.6091 7.50275 13.3536C7.5228 13.3844 7.54296 13.4152 7.56323 13.4458C5.65598 15.4704 3.41284 16.9621 0.912757 17.2551C0.50136 17.3034 0.206949 17.676 0.255172 18.0874C0.303394 18.4988 0.675989 18.7932 1.08739 18.7449C3.96949 18.4071 6.44672 16.7581 8.46687 14.6711C10.4094 17.0284 13.1673 18.75 17.0001 18.75C17.4143 18.75 17.7501 18.4143 17.7501 18C17.7501 17.5858 17.4143 17.25 17.0001 17.25C13.6182 17.25 11.2088 15.7206 9.48274 13.5428C9.69249 13.293 9.89631 13.0396 10.0941 12.7839C12.1982 10.0634 13.7088 6.9636 14.5285 4.75004H17.0001C17.4143 4.75004 17.7501 4.41426 17.7501 4.00004C17.7501 3.58583 17.4143 3.25004 17.0001 3.25004H14.0175C14.0058 3.24977 13.9942 3.24977 13.9826 3.25004H9.59146C9.6613 3.14741 9.72872 3.04285 9.79236 2.9373C9.98267 2.62166 10.1588 2.26518 10.2538 1.90244C10.3468 1.54706 10.3851 1.09304 10.1709 0.664632ZM8.58991 12.2678C8.69708 12.1354 8.80297 12.0015 8.90759 11.8662C10.7433 9.49263 12.1109 6.79731 12.9221 4.75004H5.88095C6.29544 7.07123 7.11689 9.89326 8.58991 12.2678Z" fill="#3489EF"/>
</svg>
