<svg width="18" height="18" viewBox="0 0 18 18" fill="none" xmlns="http://www.w3.org/2000/svg">
<path fill-rule="evenodd" clip-rule="evenodd" d="M14.1033 1.02774C13.0265 -0.0491233 11.2805 -0.0491236 10.2037 1.02774L7.69975 3.53166C7.56171 3.6697 7.39342 3.7737 7.20822 3.83543L4.35152 4.78767C2.40685 5.43589 1.8242 7.90401 3.27368 9.35349L5.42972 11.5095L0.46967 16.4696C0.176777 16.7625 0.176777 17.2373 0.46967 17.5302C0.762563 17.8231 1.23744 17.8231 1.53033 17.5302L6.49038 12.5702L8.6166 14.6964C10.0661 16.1459 12.5342 15.5632 13.1824 13.6186L14.1347 10.7619C14.1964 10.5767 14.3004 10.4084 14.4384 10.2703L16.9423 7.76643C18.0192 6.68956 18.0192 4.94362 16.9423 3.86675L14.1033 1.02774ZM7.12178 11.0803L9.67726 13.6358C10.3383 14.2967 11.4638 14.031 11.7594 13.1442L12.7116 10.2875C12.847 9.88141 13.0751 9.51238 13.3778 9.20968L15.8817 6.70577C16.3728 6.21469 16.3728 5.41849 15.8817 4.92742L13.0427 2.0884C12.5516 1.59732 11.7554 1.59732 11.2643 2.0884L8.76041 4.59232C8.45771 4.89502 8.08868 5.12309 7.68256 5.25846L4.82586 6.21069C3.93904 6.5063 3.67334 7.63183 4.33434 8.29282L6.91964 10.8781C6.95867 10.9045 6.99577 10.935 7.03033 10.9696C7.06489 11.0041 7.09538 11.0412 7.12178 11.0803Z" fill="#3489EF"/>
</svg>
