<svg width="20" height="19" viewBox="0 0 20 19" fill="none" xmlns="http://www.w3.org/2000/svg">
<path fill-rule="evenodd" clip-rule="evenodd" d="M3.3744 3.24994C3.11535 2.47501 3.24111 1.50869 3.95705 0.827665C4.67942 0.140535 5.75962 0.0534898 6.57518 0.635326L9.29852 2.5782C9.72825 2.88477 10.2718 2.88477 10.7015 2.5782L13.4248 0.635327C14.2404 0.0534914 15.3206 0.140534 16.0429 0.827666C16.7589 1.50869 16.8847 2.47501 16.6256 3.24994H18C18.9665 3.24994 19.75 4.03344 19.75 4.99994V6.99994C19.75 7.88156 19.0981 8.61091 18.25 8.73222V14.9999C18.25 17.071 16.5711 18.7499 14.5 18.7499H5.5C3.42893 18.7499 1.75 17.071 1.75 14.9999V8.73222C0.901927 8.61091 0.25 7.88156 0.25 6.99994V4.99994C0.25 4.03344 1.0335 3.24994 2 3.24994H3.3744ZM4.99088 1.9145C5.20123 1.71441 5.48343 1.69905 5.70403 1.85643L7.65733 3.24994H5.38257C5.129 3.24994 4.90551 3.08842 4.79979 2.78253C4.69342 2.47478 4.75497 2.1389 4.99088 1.9145ZM2 4.74994C1.86193 4.74994 1.75 4.86187 1.75 4.99994V6.99994C1.75 7.13801 1.86193 7.24994 2 7.24994H18C18.1381 7.24994 18.25 7.13801 18.25 6.99994V4.99994C18.25 4.86187 18.1381 4.74994 18 4.74994H2ZM14.6174 3.24994C14.871 3.24994 15.0945 3.08842 15.2002 2.78253C15.3066 2.47478 15.245 2.1389 15.0091 1.9145C14.7988 1.71441 14.5166 1.69905 14.296 1.85643L12.3427 3.24994H14.6174ZM3.25 14.9999V8.74994H5.88793V11.2007C5.88793 12.4848 7.22315 13.3181 8.37552 12.7876C9.23801 12.3906 10.2448 12.3906 11.1072 12.7876C12.2596 13.3181 13.5948 12.4848 13.5948 11.2007V8.74994H16.75V14.9999C16.75 16.2426 15.7426 17.2499 14.5 17.2499H5.5C4.25736 17.2499 3.25 16.2426 3.25 14.9999ZM7.38793 11.2007V8.74994H12.0948V11.2007C12.0948 11.3753 11.9071 11.5046 11.7344 11.4251C10.4739 10.8448 9.00886 10.8448 7.74831 11.4251C7.57562 11.5046 7.38793 11.3753 7.38793 11.2007Z" fill="#3489EF"/>
</svg>
