<svg width="21" height="20" viewBox="0 0 21 20" fill="none" xmlns="http://www.w3.org/2000/svg">
<path fill-rule="evenodd" clip-rule="evenodd" d="M3.5 0H17.5C19.433 0 21 1.567 21 3.5C21 5.433 19.433 7 17.5 7H3.5C1.567 7 0 5.433 0 3.5C0 1.567 1.567 0 3.5 0ZM17.5 1.5H3.5C2.39543 1.5 1.5 2.39543 1.5 3.5C1.5 4.60457 2.39543 5.5 3.5 5.5H17.5C18.6046 5.5 19.5 4.60457 19.5 3.5C19.5 2.39543 18.6046 1.5 17.5 1.5Z" fill="#3489EF"/>
<path fill-rule="evenodd" clip-rule="evenodd" d="M1 16V12C1 9.79086 2.79086 8 5 8C7.20914 8 9 9.79086 9 12V16C9 18.2091 7.20914 20 5 20C2.79086 20 1 18.2091 1 16ZM2.5 12V16C2.5 17.3807 3.61929 18.5 5 18.5C6.38071 18.5 7.5 17.3807 7.5 16V12C7.5 10.6193 6.38071 9.5 5 9.5C3.61929 9.5 2.5 10.6193 2.5 12Z" fill="#3489EF"/>
<path fill-rule="evenodd" clip-rule="evenodd" d="M17 8H14C11.7909 8 10 9.79086 10 12V16C10 18.2091 11.7909 20 14 20H17C19.2091 20 21 18.2091 21 16V12C21 9.79086 19.2091 8 17 8ZM14 9.5H17C18.3807 9.5 19.5 10.6193 19.5 12V16C19.5 17.3807 18.3807 18.5 17 18.5H14C12.6193 18.5 11.5 17.3807 11.5 16V12C11.5 10.6193 12.6193 9.5 14 9.5Z" fill="#3489EF"/>
</svg>
