<svg width="20" height="21" viewBox="0 0 20 21" fill="none" xmlns="http://www.w3.org/2000/svg">
<path fill-rule="evenodd" clip-rule="evenodd" d="M9.19455 7.47899L15.9847 0.688873C16.9032 -0.229624 18.3923 -0.229625 19.3108 0.688872C20.2293 1.60737 20.2293 3.09655 19.3108 4.01504L12.5207 10.8052C12.396 10.9299 12.2268 11 12.0503 11H10.0588C9.91012 11.166 9.68936 11.2643 9.44982 11.2483C8.34014 11.1744 6.39202 11.5086 4.75104 12.1803C3.93491 12.5144 3.25325 12.9089 2.80282 13.3295C2.3529 13.7497 2.21455 14.1129 2.24581 14.4253C2.28977 14.8646 2.45131 15.0994 2.66102 15.2523C2.90118 15.4274 3.28989 15.5552 3.87452 15.5915C5.0539 15.6646 6.67815 15.3495 8.48134 14.8884C9.22585 14.698 10.0149 14.4784 10.798 14.2605C11.8312 13.973 12.8543 13.6883 13.7507 13.4774C14.5579 13.2875 15.3257 13.1405 15.9934 13.0884C16.6351 13.0383 17.3049 13.0641 17.8351 13.3292C18.5501 13.6867 19.0305 14.3398 19.1131 15.142C19.194 15.9283 18.8848 16.7494 18.2588 17.4858C17.0171 18.9467 14.416 20.2357 10.0874 20.7449C9.67599 20.7933 9.30327 20.499 9.25488 20.0877C9.20648 19.6763 9.50074 19.3036 9.91212 19.2552C14.0836 18.7644 16.2326 17.5535 17.1159 16.5143C17.5525 16.0007 17.6494 15.5719 17.621 15.2956C17.5942 15.0353 17.4494 14.8134 17.1643 14.6709C17.0145 14.596 16.6899 14.5386 16.1101 14.5838C15.5562 14.627 14.8754 14.7537 14.0942 14.9376C13.1991 15.1482 12.2513 15.4126 11.2626 15.6885C10.4829 15.906 9.67774 16.1307 8.85299 16.3416C7.05872 16.8005 5.22425 17.178 3.78173 17.0886C3.05542 17.0436 2.34238 16.8764 1.77726 16.4643C1.18169 16.03 0.834404 15.3854 0.753269 14.5747C0.657605 13.6188 1.14331 12.8269 1.779 12.2333C2.41418 11.6401 3.27967 11.1618 4.18281 10.7921C5.75804 10.1473 7.62609 9.76245 8.99971 9.73947V7.94938C8.99971 7.77295 9.06979 7.60374 9.19455 7.47899ZM10.4997 9.5V8.29515L17.0453 1.74953C17.378 1.41682 17.9175 1.41682 18.2502 1.74953C18.5829 2.08224 18.5829 2.62167 18.2502 2.95438L11.7046 9.5H10.4997Z" fill="#3489EF"/>
</svg>
