<svg width="20" height="18" viewBox="0 0 20 18" fill="none" xmlns="http://www.w3.org/2000/svg">
<path fill-rule="evenodd" clip-rule="evenodd" d="M14.5 4.5C14.5 6.98528 12.4853 9 10 9C7.51477 9 5.50005 6.98528 5.50005 4.5C5.50005 2.01472 7.51477 0 10 0C12.4853 0 14.5 2.01472 14.5 4.5ZM13 4.5C13 6.15685 11.6569 7.5 10 7.5C8.34319 7.5 7.00005 6.15685 7.00005 4.5C7.00005 2.84315 8.34319 1.5 10 1.5C11.6569 1.5 13 2.84315 13 4.5Z" fill="#3489EF"/>
<path fill-rule="evenodd" clip-rule="evenodd" d="M17.2 13.95C17.2 16.1867 13.9765 18 10 18C6.0236 18 2.80005 16.1867 2.80005 13.95C2.80005 11.7132 6.0236 9.89999 10 9.89999C13.9765 9.89999 17.2 11.7132 17.2 13.95ZM15.7 13.95C15.7 14.2858 15.4423 14.8953 14.3558 15.5064C13.3164 16.0911 11.7794 16.5 10 16.5C8.22065 16.5 6.6837 16.0911 5.64427 15.5064C4.55783 14.8953 4.30005 14.2858 4.30005 13.95C4.30005 13.6142 4.55783 13.0047 5.64427 12.3936C6.6837 11.8089 8.22065 11.4 10 11.4C11.7794 11.4 13.3164 11.8089 14.3558 12.3936C15.4423 13.0047 15.7 13.6142 15.7 13.95Z" fill="#3489EF"/>
<path d="M16.5001 4.49999C16.5001 4.05949 16.3577 3.65225 16.1164 3.3218C15.8943 3.01767 15.5885 2.77859 15.2328 2.63848L15.2074 2.6282C15.1621 2.60939 15.1174 2.58822 15.0739 2.56483C15.0279 2.54013 14.9833 2.51296 14.9404 2.48345C14.6878 2.30946 14.5001 2.05452 14.5001 1.74999C14.5001 1.33577 14.8398 0.991644 15.2446 1.07935C16.4433 1.33905 17.4133 2.21287 17.8085 3.35494C17.9326 3.71372 18.0001 4.09898 18.0001 4.49999C18.0001 4.901 17.9326 5.28625 17.8085 5.64503C17.4133 6.78711 16.4433 7.66093 15.2446 7.92063C14.8398 8.00833 14.5001 7.6642 14.5001 7.24999C14.5001 6.94545 14.6878 6.69052 14.9404 6.51652C14.9833 6.48702 15.028 6.45984 15.0739 6.43514C15.1175 6.41175 15.1621 6.39058 15.2074 6.37177L15.2328 6.3615C15.5885 6.22139 15.8943 5.98231 16.1164 5.67818C16.3577 5.34773 16.5001 4.94049 16.5001 4.49999Z" fill="#3489EF"/>
<path d="M18.5001 13.5C18.5001 13.5872 18.4543 13.7843 18.2247 14.0373C18.14 14.1306 18.0303 14.2315 17.8888 14.3373C17.8629 14.3567 17.8378 14.3772 17.8138 14.3987C17.7893 14.4207 17.7658 14.4438 17.7435 14.4679C17.5947 14.6285 17.5001 14.8327 17.5001 15.054C17.5001 15.6262 18.0873 16.0129 18.5632 15.695C18.6401 15.6437 18.7144 15.5911 18.7859 15.5374L18.8146 15.5157C19.0302 15.3511 19.2202 15.1761 19.3813 14.9924C19.7781 14.5397 20.0001 14.0338 20.0001 13.5C20.0001 12.9662 19.7781 12.4603 19.3813 12.0076C19.2201 11.8239 19.0302 11.6489 18.8146 11.4843L18.7859 11.4626C18.7144 11.4089 18.6401 11.3563 18.5632 11.305C18.0873 10.9871 17.5001 11.3738 17.5001 11.946C17.5001 12.1673 17.5947 12.3715 17.7435 12.5321C17.7658 12.5562 17.7893 12.5793 17.8138 12.6013C17.8378 12.6228 17.8629 12.6433 17.8888 12.6627C18.0303 12.7685 18.14 12.8694 18.2247 12.9627C18.4543 13.2157 18.5001 13.4128 18.5001 13.5Z" fill="#3489EF"/>
<path d="M3.5 4.49984C3.5 4.05933 3.64241 3.65209 3.8837 3.32164C4.10577 3.01752 4.4116 2.77843 4.76725 2.63833L4.79265 2.62805C4.83794 2.60924 4.88261 2.58807 4.92615 2.56468C4.97211 2.53998 5.01681 2.5128 5.05964 2.4833C5.31224 2.30931 5.5 2.05437 5.5 1.74984C5.5 1.33562 5.16028 0.991491 4.75545 1.07919C3.55671 1.33889 2.58681 2.21271 2.19159 3.35479C2.06744 3.71357 2 4.09883 2 4.49984C2 4.90084 2.06744 5.2861 2.19159 5.64488C2.58681 6.78696 3.55671 7.66078 4.75545 7.92048C5.16028 8.00818 5.5 7.66405 5.5 7.24984C5.5 6.9453 5.31224 6.69036 5.05964 6.51637C5.01681 6.48687 4.97211 6.45969 4.92615 6.43499C4.88261 6.4116 4.83793 6.39043 4.79263 6.37162L4.76725 6.36134C4.4116 6.22124 4.10577 5.98215 3.8837 5.67803C3.64241 5.34758 3.5 4.94034 3.5 4.49984Z" fill="#3489EF"/>
<path d="M1.5 13.4998C1.5 13.587 1.5458 13.7841 1.77541 14.0372C1.86007 14.1305 1.96971 14.2314 2.11126 14.3372C2.1372 14.3566 2.16224 14.3771 2.18625 14.3986C2.2108 14.4206 2.23429 14.4437 2.25655 14.4677C2.40532 14.6283 2.5 14.8326 2.5 15.0538C2.5 15.6261 1.91272 16.0127 1.43687 15.6949C1.35997 15.6435 1.2857 15.5909 1.21419 15.5372L1.18549 15.5155C0.969852 15.351 0.779904 15.176 0.618789 14.9922C0.22192 14.5395 0 14.0336 0 13.4998C0 12.966 0.221925 12.4602 0.618805 12.0075C0.779917 11.8237 0.96986 11.6487 1.18549 11.4842L1.21419 11.4624C1.2857 11.4088 1.35997 11.3562 1.43687 11.3048C1.91272 10.987 2.5 11.3736 2.5 11.9459C2.5 12.1671 2.40532 12.3714 2.25655 12.532C2.23429 12.556 2.2108 12.5791 2.18625 12.6011C2.16224 12.6226 2.1372 12.6431 2.11126 12.6625C1.96971 12.7683 1.86007 12.8692 1.77541 12.9625C1.5458 13.2156 1.5 13.4127 1.5 13.4998Z" fill="#3489EF"/>
</svg>
