<svg width="20" height="20" viewBox="0 0 20 20" fill="none" xmlns="http://www.w3.org/2000/svg">
<path fill-rule="evenodd" clip-rule="evenodd" d="M8.77363 2.67402C6.15566 3.31923 4.21414 5.6831 4.21414 8.50024V9.58329C4.21414 11.0542 3.7562 12.8968 3.3137 14.334C2.96589 15.4636 3.79012 16.6666 4.97203 16.6666H8.33319C8.33319 16.8855 8.3763 17.1022 8.46006 17.3044C8.54381 17.5066 8.66658 17.6904 8.82134 17.8451C8.97611 17.9999 9.15984 18.1227 9.36205 18.2064C9.56426 18.2902 9.78099 18.3333 9.99986 18.3333C10.2187 18.3333 10.4355 18.2902 10.6377 18.2064C10.8399 18.1227 11.0236 17.9999 11.1784 17.8451C11.3331 17.6904 11.4559 17.5066 11.5397 17.3044C11.6234 17.1022 11.6665 16.8855 11.6665 16.6666H15.2577C16.3748 16.6666 17.186 15.5866 16.9308 14.4991C16.5867 13.0334 16.2141 11.0967 16.2141 9.58329V8.50024C16.2141 5.52371 14.0467 3.05318 11.204 2.58124C11.1905 2.53273 11.1741 2.48498 11.1547 2.43827C11.0919 2.28661 10.9998 2.14882 10.8837 2.03274C10.7677 1.91667 10.6299 1.82459 10.4782 1.76178C10.3266 1.69896 10.164 1.66663 9.99986 1.66663C9.8357 1.66663 9.67316 1.69896 9.5215 1.76178C9.36985 1.82459 9.23205 1.91667 9.11597 2.03274C8.9999 2.14882 8.90783 2.28661 8.84501 2.43827C8.81343 2.5145 8.78956 2.59347 8.77363 2.67402ZM5.46414 8.50024V9.58329C5.46414 11.2534 4.95609 13.2477 4.50835 14.7018C4.45563 14.8731 4.48872 15.0582 4.59223 15.2056C4.69272 15.3487 4.82869 15.4166 4.97203 15.4166H15.2577C15.5234 15.4166 15.7955 15.1328 15.7138 14.7847C15.367 13.3072 14.9641 11.2509 14.9641 9.58329V8.50024C14.9641 5.87681 12.8374 3.74996 10.2141 3.74996C7.59087 3.74996 5.46414 5.87681 5.46414 8.50024Z" fill="#363538"/>
</svg>
