<svg width="18" height="18" viewBox="0 0 18 18" fill="none" xmlns="http://www.w3.org/2000/svg">
<path fill-rule="evenodd" clip-rule="evenodd" d="M8.99927 9.62497C11.0128 9.62497 12.6451 7.99269 12.6451 5.97916C12.6451 3.96564 11.0128 2.33335 8.99927 2.33335C6.98574 2.33335 5.35346 3.96564 5.35346 5.97916C5.35346 7.99269 6.98574 9.62497 8.99927 9.62497ZM8.99927 8.37497C10.3224 8.37497 11.3951 7.30233 11.3951 5.97916C11.3951 4.65599 10.3224 3.58335 8.99927 3.58335C7.6761 3.58335 6.60346 4.65599 6.60346 5.97916C6.60346 7.30233 7.6761 8.37497 8.99927 8.37497Z" fill="#E93F81"/>
<path fill-rule="evenodd" clip-rule="evenodd" d="M4.52652 16.0325C2.20549 14.5532 0.666016 11.9564 0.666016 9.00002C0.666016 4.39765 4.39698 0.666687 8.99935 0.666687C13.6017 0.666687 17.3327 4.39765 17.3327 9.00002C17.3327 11.9567 15.7928 14.5538 13.4714 16.033C13.0396 16.3383 12.5206 16.5987 11.9371 16.8008C11.0235 17.145 10.0334 17.3334 8.99935 17.3334C7.96565 17.3334 6.9759 17.1451 6.06252 16.8011C5.47825 16.5989 4.95864 16.3382 4.52652 16.0325ZM6.49599 15.6283C7.20703 15.8711 8.06075 16.0207 8.99931 16.0207C9.93824 16.0207 10.7923 15.871 11.5035 15.628C11.954 15.4577 12.3827 15.2427 12.784 14.9886C13.4017 14.5434 13.5826 14.1058 13.5826 13.8124C13.5826 13.4764 13.3453 12.9513 12.4866 12.4422C11.6552 11.9493 10.4251 11.6041 8.99931 11.6041C7.57349 11.6041 6.34344 11.9493 5.51201 12.4422C4.65332 12.9513 4.41602 13.4764 4.41602 13.8124C4.41602 14.1057 4.59684 14.5431 5.21399 14.9881C5.61576 15.2426 6.04489 15.4578 6.49599 15.6283ZM3.26843 13.1638C3.78047 11.5638 6.15158 10.3541 8.99931 10.3541C11.8471 10.3541 14.2182 11.5639 14.7302 13.1639C15.5809 11.9951 16.0827 10.5562 16.0827 9.00002C16.0827 5.088 12.9114 1.91669 8.99935 1.91669C5.08733 1.91669 1.91602 5.088 1.91602 9.00002C1.91602 10.5562 2.41782 11.9951 3.26843 13.1638Z" fill="#E93F81"/>
</svg>
