<svg width="33" height="30" viewBox="0 0 33 30" fill="none" xmlns="http://www.w3.org/2000/svg">
<path d="M10.375 6.75C10.375 6.12868 10.8787 5.625 11.5 5.625H13C13.6213 5.625 14.125 6.12868 14.125 6.75C14.125 7.37132 13.6213 7.875 13 7.875H11.5C10.8787 7.875 10.375 7.37132 10.375 6.75Z" fill="white"/>
<path d="M17.5 5.625C16.8787 5.625 16.375 6.12868 16.375 6.75C16.375 7.37132 16.8787 7.875 17.5 7.875H19C19.6213 7.875 20.125 7.37132 20.125 6.75C20.125 6.12868 19.6213 5.625 19 5.625H17.5Z" fill="white"/>
<path d="M10.375 11.25C10.375 10.6287 10.8787 10.125 11.5 10.125H13C13.6213 10.125 14.125 10.6287 14.125 11.25C14.125 11.8713 13.6213 12.375 13 12.375H11.5C10.8787 12.375 10.375 11.8713 10.375 11.25Z" fill="white"/>
<path d="M11.5 14.625C10.8787 14.625 10.375 15.1287 10.375 15.75C10.375 16.3713 10.8787 16.875 11.5 16.875H13C13.6213 16.875 14.125 16.3713 14.125 15.75C14.125 15.1287 13.6213 14.625 13 14.625H11.5Z" fill="white"/>
<path d="M10.375 20.25C10.375 19.6287 10.8787 19.125 11.5 19.125H13C13.6213 19.125 14.125 19.6287 14.125 20.25C14.125 20.8713 13.6213 21.375 13 21.375H11.5C10.8787 21.375 10.375 20.8713 10.375 20.25Z" fill="white"/>
<path d="M17.5 10.125C16.8787 10.125 16.375 10.6287 16.375 11.25C16.375 11.8713 16.8787 12.375 17.5 12.375H19C19.6213 12.375 20.125 11.8713 20.125 11.25C20.125 10.6287 19.6213 10.125 19 10.125H17.5Z" fill="white"/>
<path d="M16.375 15.75C16.375 15.1287 16.8787 14.625 17.5 14.625H19C19.6213 14.625 20.125 15.1287 20.125 15.75C20.125 16.3713 19.6213 16.875 19 16.875H17.5C16.8787 16.875 16.375 16.3713 16.375 15.75Z" fill="white"/>
<path d="M17.5 19.125C16.8787 19.125 16.375 19.6287 16.375 20.25C16.375 20.8713 16.8787 21.375 17.5 21.375H19C19.6213 21.375 20.125 20.8713 20.125 20.25C20.125 19.6287 19.6213 19.125 19 19.125H17.5Z" fill="white"/>
<path fill-rule="evenodd" clip-rule="evenodd" d="M5.875 6C5.875 2.8934 8.3934 0.375 11.5 0.375H19C22.1066 0.375 24.625 2.8934 24.625 6V24C24.625 27.1066 22.1066 29.625 19 29.625H6.25C3.1434 29.625 0.625 27.1066 0.625 24V15.75C0.625 12.7694 2.94324 10.3303 5.875 10.1373V6ZM19 27.375H18.625V26.25C18.625 24.386 17.114 22.875 15.25 22.875C13.386 22.875 11.875 24.386 11.875 26.25V27.375H11.5C9.63604 27.375 8.125 25.864 8.125 24V6C8.125 4.13604 9.63604 2.625 11.5 2.625H19C20.864 2.625 22.375 4.13604 22.375 6V24C22.375 25.864 20.864 27.375 19 27.375ZM16.375 26.25V27.375H14.125V26.25C14.125 25.6287 14.6287 25.125 15.25 25.125C15.8713 25.125 16.375 25.6287 16.375 26.25ZM5.875 12.3956C4.18752 12.5821 2.875 14.0128 2.875 15.75V24C2.875 25.864 4.38604 27.375 6.25 27.375H6.99959C6.29344 26.4349 5.875 25.2663 5.875 24V12.3956Z" fill="white"/>
<path fill-rule="evenodd" clip-rule="evenodd" d="M30.0606 20.9164C29.9885 21.06 29.9256 21.1823 29.8751 21.2794V28.5C29.8751 29.1213 29.3714 29.625 28.7501 29.625C28.1287 29.625 27.6251 29.1213 27.6251 28.5V21.2794C27.5745 21.1823 27.5117 21.06 27.4395 20.9164C27.2477 20.5345 26.9885 19.9988 26.7181 19.3817C26.1897 18.1757 25.5715 16.5543 25.3848 15.148C24.9853 12.1382 26.2995 9.69593 27.15 8.46617C27.9364 7.32894 29.5637 7.32894 30.3501 8.46617C31.2006 9.69593 32.5148 12.1382 32.1153 15.148C31.9286 16.5543 31.3104 18.1757 30.782 19.3817C30.5117 19.9988 30.2524 20.5345 30.0606 20.9164ZM27.6153 14.852C27.3557 12.8969 28.0844 11.2061 28.7501 10.129C29.4157 11.2061 30.1444 12.8969 29.8848 14.852C29.7449 15.9063 29.2543 17.2534 28.7501 18.4125C28.2458 17.2534 27.7552 15.9063 27.6153 14.852Z" fill="white"/>
</svg>
