<svg width="30" height="29" viewBox="0 0 30 29" fill="none" xmlns="http://www.w3.org/2000/svg">
<path fill-rule="evenodd" clip-rule="evenodd" d="M5.0616 5.375C4.67302 4.21261 4.86167 2.76312 5.93558 1.74159C7.01913 0.710894 8.63943 0.580326 9.86278 1.45308L13.9478 4.36739C14.5924 4.82725 15.4076 4.82725 16.0522 4.36739L20.1372 1.45308C21.3606 0.580329 22.9809 0.710893 24.0644 1.74159C25.1383 2.76312 25.327 4.21261 24.9384 5.375H27C28.4497 5.375 29.625 6.55025 29.625 8V11C29.625 12.3224 28.6471 13.4165 27.375 13.5984V23C27.375 26.1066 24.8566 28.625 21.75 28.625H8.25C5.1434 28.625 2.625 26.1066 2.625 23V13.5984C1.35289 13.4165 0.375 12.3224 0.375 11V8C0.375 6.55025 1.55025 5.375 3 5.375H5.0616ZM7.48631 3.37184C7.80184 3.07171 8.22514 3.04866 8.55605 3.28473L11.486 5.375H8.07386C7.6935 5.375 7.35827 5.13272 7.19968 4.67389C7.04013 4.21227 7.13245 3.70845 7.48631 3.37184ZM3 7.625C2.79289 7.625 2.625 7.7929 2.625 8V11C2.625 11.2071 2.79289 11.375 3 11.375H27C27.2071 11.375 27.375 11.2071 27.375 11V8C27.375 7.7929 27.2071 7.625 27 7.625H3ZM21.9261 5.375C22.3065 5.375 22.6417 5.13272 22.8003 4.67389C22.9599 4.21227 22.8675 3.70845 22.5137 3.37184C22.1982 3.07171 21.7749 3.04866 21.444 3.28474L18.514 5.375H21.9261ZM4.875 23V13.625H8.8319V17.3011C8.8319 19.2273 10.8347 20.4772 12.5633 19.6816C13.857 19.086 15.3671 19.086 16.6609 19.6816C18.3894 20.4772 20.3922 19.2273 20.3922 17.3011V13.625H25.125V23C25.125 24.864 23.614 26.375 21.75 26.375H8.25C6.38604 26.375 4.875 24.864 4.875 23ZM11.0819 17.3011V13.625H18.1422V17.3011C18.1422 17.563 17.8607 17.7569 17.6017 17.6377C15.7108 16.7673 13.5133 16.7673 11.6225 17.6377C11.3634 17.7569 11.0819 17.563 11.0819 17.3011Z" fill="white"/>
</svg>
