<svg width="20" height="22" viewBox="0 0 20 22" fill="none" xmlns="http://www.w3.org/2000/svg">
<path fill-rule="evenodd" clip-rule="evenodd" d="M10.625 11.625C9.94224 11.625 9.29144 11.7105 8.69854 11.8654C6.89345 12.3368 5.625 13.4508 5.625 14.75C5.625 16.4759 7.86358 17.875 10.625 17.875C13.3864 17.875 15.625 16.4759 15.625 14.75C15.625 13.4508 14.3565 12.3368 12.5515 11.8654C11.9586 11.7105 11.3078 11.625 10.625 11.625ZM13.75 14.7503C13.75 14.7601 13.7501 14.8109 13.6792 14.9155C13.6011 15.031 13.4443 15.1963 13.1668 15.3697C12.6043 15.7213 11.7105 16 10.625 16C9.53948 16 8.64571 15.7213 8.08321 15.3697C7.8057 15.1963 7.64888 15.031 7.57076 14.9155C7.49993 14.8109 7.49999 14.7601 7.5 14.7503C7.49999 14.7406 7.49993 14.6891 7.57076 14.5845C7.64888 14.469 7.8057 14.3037 8.08321 14.1303C8.64571 13.7787 9.53948 13.5 10.625 13.5C11.7105 13.5 12.6043 13.7787 13.1668 14.1303C13.4443 14.3037 13.6011 14.469 13.6792 14.5845C13.7501 14.6891 13.75 14.7406 13.75 14.7503Z" fill="white"/>
<path fill-rule="evenodd" clip-rule="evenodd" d="M7.5 7.25C7.5 8.36226 8.08108 9.3388 8.95623 9.8926C9.43905 10.1981 10.0114 10.375 10.625 10.375C11.2386 10.375 11.8109 10.1981 12.2938 9.8926C13.1689 9.3388 13.75 8.36226 13.75 7.25C13.75 5.52411 12.3509 4.125 10.625 4.125C8.89911 4.125 7.5 5.52411 7.5 7.25ZM11.875 7.25C11.875 7.94036 11.3154 8.5 10.625 8.5C9.93464 8.5 9.375 7.94036 9.375 7.25C9.375 6.55964 9.93464 6 10.625 6C11.3154 6 11.875 6.55964 11.875 7.25Z" fill="white"/>
<path fill-rule="evenodd" clip-rule="evenodd" d="M7.5 0.0625C4.76157 0.0625 2.45614 1.91635 1.77024 4.4375H1.25C0.732233 4.4375 0.3125 4.85723 0.3125 5.375C0.3125 5.89277 0.732233 6.3125 1.25 6.3125H1.5625V8.1875H1.25C0.732233 8.1875 0.3125 8.60723 0.3125 9.125C0.3125 9.64277 0.732233 10.0625 1.25 10.0625H1.5625V11.9375H1.25C0.732233 11.9375 0.3125 12.3572 0.3125 12.875C0.3125 13.3928 0.732233 13.8125 1.25 13.8125H1.5625V15.6875H1.25C0.732233 15.6875 0.3125 16.1072 0.3125 16.625C0.3125 17.1428 0.732233 17.5625 1.25 17.5625H1.77024C2.45614 20.0837 4.76157 21.9375 7.5 21.9375H13.75C17.0292 21.9375 19.6875 19.2792 19.6875 16V6C19.6875 2.72081 17.0292 0.0625 13.75 0.0625H7.5ZM7.5 1.9375C5.81003 1.9375 4.36108 2.96941 3.74885 4.4375C4.26662 4.4375 4.6875 4.85723 4.6875 5.375C4.6875 5.89277 4.26777 6.3125 3.75 6.3125H3.4375V8.1875H3.75C4.26777 8.1875 4.6875 8.60723 4.6875 9.125C4.6875 9.64277 4.26777 10.0625 3.75 10.0625H3.4375V11.9375H3.75C4.26777 11.9375 4.6875 12.3572 4.6875 12.875C4.6875 13.3928 4.26777 13.8125 3.75 13.8125H3.4375V15.6875H3.75C4.26777 15.6875 4.6875 16.1072 4.6875 16.625C4.6875 17.1428 4.26777 17.5625 3.75 17.5625C4.36223 19.0306 5.81003 20.0625 7.5 20.0625H13.75C15.9937 20.0625 17.8125 18.2437 17.8125 16V6C17.8125 3.75634 15.9937 1.9375 13.75 1.9375H7.5Z" fill="white"/>
</svg>
