<svg width="22" height="22" viewBox="0 0 22 22" fill="none" xmlns="http://www.w3.org/2000/svg">
<path d="M18.2915 3.70794C16.705 2.12144 14.1328 2.12144 12.5463 3.70794L10.7785 5.47571C10.4124 5.84183 9.81882 5.84183 9.4527 5.47571C9.08659 5.1096 9.08659 4.516 9.4527 4.14989L11.2205 2.38212C13.5392 0.0633819 17.2986 0.0633819 19.6174 2.38212C21.9361 4.70086 21.9361 8.46027 19.6174 10.779L17.8496 12.5468C17.4835 12.9129 16.8899 12.9129 16.5238 12.5468C16.1577 12.1807 16.1577 11.5871 16.5238 11.221L18.2915 9.45319C19.878 7.86668 19.878 5.29445 18.2915 3.70794Z" fill="white"/>
<path d="M5.47522 9.45319C5.84134 9.81931 5.84134 10.4129 5.47522 10.779L3.70746 12.5468C2.12095 14.1333 2.12095 16.7055 3.70746 18.292C5.29396 19.8785 7.86619 19.8785 9.4527 18.292L11.2205 16.5243C11.5866 16.1581 12.1802 16.1581 12.5463 16.5243C12.9124 16.8904 12.9124 17.484 12.5463 17.8501L10.7785 19.6179C8.45979 21.9366 4.70037 21.9366 2.38163 19.6179C0.0628936 17.2991 0.0628936 13.5397 2.38163 11.221L4.1494 9.45319C4.51552 9.08708 5.10911 9.08708 5.47522 9.45319Z" fill="white"/>
<path d="M7.6849 12.9887C7.31878 13.3548 7.31878 13.9484 7.6849 14.3146C8.05101 14.6807 8.6446 14.6807 9.01072 14.3146L14.314 9.01125C14.6801 8.64514 14.6801 8.05155 14.314 7.68543C13.9479 7.31931 13.3543 7.31931 12.9882 7.68543L7.6849 12.9887Z" fill="white"/>
</svg>
