<svg width="26" height="24" viewBox="0 0 26 24" fill="none" xmlns="http://www.w3.org/2000/svg">
<path d="M6.75 0.0625C3.47081 0.0625 0.8125 2.72081 0.8125 6V12.236C0.8125 14.8326 2.91742 16.9375 5.51396 16.9375C6.21222 16.9375 6.88576 17.196 7.40477 17.6631L8 18.1988V15.7735C7.25868 15.3117 6.39824 15.0625 5.51396 15.0625C3.95295 15.0625 2.6875 13.797 2.6875 12.236V6C2.6875 3.75634 4.50634 1.9375 6.75 1.9375H15.5C17.7437 1.9375 19.5625 3.75634 19.5625 6V7.25H21.4375V6C21.4375 2.72081 18.7792 0.0625 15.5 0.0625H6.75Z" fill="white"/>
<path d="M13 16C13.5178 16 13.9375 15.5803 13.9375 15.0625C13.9375 14.5447 13.5178 14.125 13 14.125C12.4822 14.125 12.0625 14.5447 12.0625 15.0625C12.0625 15.5803 12.4822 16 13 16Z" fill="white"/>
<path d="M17.6875 15.0625C17.6875 15.5803 17.2678 16 16.75 16C16.2322 16 15.8125 15.5803 15.8125 15.0625C15.8125 14.5447 16.2322 14.125 16.75 14.125C17.2678 14.125 17.6875 14.5447 17.6875 15.0625Z" fill="white"/>
<path d="M20.5 16C21.0178 16 21.4375 15.5803 21.4375 15.0625C21.4375 14.5447 21.0178 14.125 20.5 14.125C19.9822 14.125 19.5625 14.5447 19.5625 15.0625C19.5625 15.5803 19.9822 16 20.5 16Z" fill="white"/>
<path fill-rule="evenodd" clip-rule="evenodd" d="M8.3125 11C8.3125 9.10152 9.85152 7.5625 11.75 7.5625H21.75C23.6485 7.5625 25.1875 9.10152 25.1875 11V17.4888C25.1875 19.6696 23.4196 21.4375 21.2388 21.4375C20.7265 21.4375 20.2324 21.6271 19.8516 21.9698L19.0496 22.6917C17.7423 23.8682 15.7577 23.8682 14.4504 22.6917L13.6484 21.9698C13.2676 21.6271 12.7735 21.4375 12.2612 21.4375C10.0804 21.4375 8.3125 19.6696 8.3125 17.4888V11ZM11.75 9.4375C10.8871 9.4375 10.1875 10.1371 10.1875 11V17.4888C10.1875 18.6341 11.1159 19.5625 12.2612 19.5625C13.2367 19.5625 14.1776 19.9236 14.9027 20.5761L15.7047 21.298C16.299 21.8328 17.201 21.8328 17.7953 21.298L18.5973 20.5761C19.3224 19.9236 20.2633 19.5625 21.2388 19.5625C22.3841 19.5625 23.3125 18.6341 23.3125 17.4888V11C23.3125 10.1371 22.6129 9.4375 21.75 9.4375H11.75Z" fill="white"/>
</svg>
