<svg width="17" height="17" viewBox="0 0 17 17" fill="none" xmlns="http://www.w3.org/2000/svg">
<path fill-rule="evenodd" clip-rule="evenodd" d="M1.54847 3.16721L2.26467 1.73482C2.77342 0.717322 4.12949 0.49726 4.93389 1.30166L6.83534 3.20311C7.3426 3.71038 7.46836 4.48533 7.14754 5.12698L6.92859 5.56486C6.57634 6.26936 6.57048 7.10301 6.98093 7.77527C7.30226 8.30156 7.71365 8.90598 8.12336 9.31569C8.47646 9.66879 8.97419 10.0231 9.44189 10.32C10.2257 10.8175 11.2256 10.7238 11.9734 10.1736C12.6402 9.68292 13.5676 9.76351 14.1398 10.3618L15.7727 12.0692C16.5481 12.8801 16.3171 14.2101 15.3135 14.7118L13.8332 15.452C12.6828 16.0272 11.3794 16.2715 10.1634 15.8524C8.7028 15.3489 6.60956 14.3422 4.63388 12.3666C2.6582 10.3909 1.65155 8.29765 1.14806 6.83705C0.728907 5.62107 0.973267 4.31762 1.54847 3.16721ZM2.6665 3.72623L3.3827 2.29384C3.50989 2.03946 3.84891 1.98445 4.05 2.18555L5.95145 4.08699C6.07827 4.21381 6.10971 4.40755 6.0295 4.56796L5.81056 5.00584C5.28919 6.04858 5.25299 7.3439 5.91407 8.42665C6.24632 8.97084 6.72042 9.68052 7.23947 10.1996C7.69087 10.651 8.28102 11.0637 8.77201 11.3754C10.0469 12.1846 11.6071 11.995 12.7142 11.1804C12.8749 11.0621 13.0985 11.0815 13.2364 11.2258L14.8693 12.9331C15.0632 13.1359 15.0054 13.4684 14.7545 13.5938L13.2742 14.3339C12.3147 14.8137 11.3695 14.9459 10.5708 14.6706C9.24492 14.2136 7.32947 13.2944 5.51776 11.4827C3.70606 9.67098 2.78685 7.75553 2.32982 6.42968C2.0545 5.63096 2.18675 4.68574 2.6665 3.72623Z" fill="#3389EE"/>
</svg>
