<svg width="17" height="17" viewBox="0 0 17 17" fill="none" xmlns="http://www.w3.org/2000/svg">
<path d="M15.6875 9.39844H1.3125C0.978907 9.39844 0.658978 9.53096 0.423092 9.76684C0.187207 10.0027 0.0546875 10.3227 0.0546875 10.6562V14.9688C0.0546875 15.3023 0.187207 15.6223 0.423092 15.8582C0.658978 16.094 0.978907 16.2266 1.3125 16.2266H15.6875C16.0211 16.2266 16.341 16.094 16.5769 15.8582C16.8128 15.6223 16.9453 15.3023 16.9453 14.9688V10.6562C16.9453 10.3227 16.8128 10.0027 16.5769 9.76684C16.341 9.53096 16.0211 9.39844 15.6875 9.39844ZM15.8672 14.9688C15.8672 15.0164 15.8483 15.0621 15.8146 15.0958C15.7809 15.1295 15.7352 15.1484 15.6875 15.1484H1.3125C1.26484 15.1484 1.21914 15.1295 1.18544 15.0958C1.15174 15.0621 1.13281 15.0164 1.13281 14.9688V10.6562C1.13281 10.6086 1.15174 10.5629 1.18544 10.5292C1.21914 10.4955 1.26484 10.4766 1.3125 10.4766H15.6875C15.7352 10.4766 15.7809 10.4955 15.8146 10.5292C15.8483 10.5629 15.8672 10.6086 15.8672 10.6562V14.9688ZM15.6875 0.773438H1.3125C0.978907 0.773438 0.658978 0.905957 0.423092 1.14184C0.187207 1.37773 0.0546875 1.69766 0.0546875 2.03125V6.34375C0.0546875 6.50893 0.0872217 6.67249 0.150433 6.82509C0.213644 6.9777 0.306294 7.11636 0.423092 7.23316C0.539891 7.34996 0.678551 7.44261 0.831156 7.50582C0.983761 7.56903 1.14732 7.60156 1.3125 7.60156H15.6875C15.8527 7.60156 16.0162 7.56903 16.1688 7.50582C16.3214 7.44261 16.4601 7.34996 16.5769 7.23316C16.6937 7.11636 16.7864 6.9777 16.8496 6.82509C16.9128 6.67249 16.9453 6.50893 16.9453 6.34375V2.03125C16.9453 1.69766 16.8128 1.37773 16.5769 1.14184C16.341 0.905957 16.0211 0.773438 15.6875 0.773438ZM15.8672 6.34375C15.8672 6.39141 15.8483 6.43711 15.8146 6.47081C15.7809 6.50451 15.7352 6.52344 15.6875 6.52344H1.3125C1.26484 6.52344 1.21914 6.50451 1.18544 6.47081C1.15174 6.43711 1.13281 6.39141 1.13281 6.34375V2.03125C1.13281 1.98359 1.15174 1.93789 1.18544 1.90419C1.21914 1.87049 1.26484 1.85156 1.3125 1.85156H15.6875C15.7352 1.85156 15.7809 1.87049 15.8146 1.90419C15.8483 1.93789 15.8672 1.98359 15.8672 2.03125V6.34375ZM14.0703 4.1875C14.0703 4.36519 14.0176 4.5389 13.9189 4.68665C13.8202 4.83439 13.6799 4.94955 13.5157 5.01755C13.3515 5.08555 13.1709 5.10334 12.9966 5.06867C12.8223 5.03401 12.6622 4.94844 12.5366 4.82279C12.4109 4.69714 12.3254 4.53706 12.2907 4.36278C12.256 4.1885 12.2738 4.00785 12.3418 3.84368C12.4098 3.67951 12.525 3.5392 12.6727 3.44048C12.8205 3.34175 12.9942 3.28906 13.1719 3.28906C13.4102 3.28906 13.6387 3.38372 13.8072 3.55221C13.9757 3.7207 14.0703 3.94922 14.0703 4.1875ZM14.0703 12.8125C14.0703 12.9902 14.0176 13.1639 13.9189 13.3116C13.8202 13.4594 13.6799 13.5745 13.5157 13.6425C13.3515 13.7105 13.1709 13.7283 12.9966 13.6937C12.8223 13.659 12.6622 13.5734 12.5366 13.4478C12.4109 13.3221 12.3254 13.1621 12.2907 12.9878C12.256 12.8135 12.2738 12.6329 12.3418 12.4687C12.4098 12.3045 12.525 12.1642 12.6727 12.0655C12.8205 11.9668 12.9942 11.9141 13.1719 11.9141C13.4102 11.9141 13.6387 12.0087 13.8072 12.1772C13.9757 12.3457 14.0703 12.5742 14.0703 12.8125Z" fill="#E93F81"/>
</svg>
