<svg width="34" height="36" viewBox="0 0 34 36" fill="none" xmlns="http://www.w3.org/2000/svg">
<g clip-path="url(#clip0_119_847)">
<path d="M8.26001 36C7.66204 35.5195 7.61394 35.2843 7.96692 34.5677C8.31989 33.8511 8.66561 33.1162 9.04036 32.4042C9.16649 32.1653 9.14925 31.9871 9.03129 31.761C8.63022 30.9838 8.24821 30.1992 7.86348 29.4101C7.71739 29.1096 7.682 28.8019 7.89161 28.5134C7.97011 28.3962 8.08038 28.3044 8.20916 28.2492C8.33794 28.1939 8.47975 28.1775 8.61752 28.2019C8.93964 28.2442 9.12203 28.461 9.25723 28.7339C9.5113 29.2447 9.76446 29.7573 10.0521 30.337C10.259 29.9181 10.4414 29.5479 10.6265 29.1785C10.7234 28.9665 10.8318 28.7601 10.9513 28.5602C11.0497 28.392 11.2082 28.2686 11.3941 28.2155C11.5799 28.1625 11.7788 28.1839 11.9495 28.2754C12.2916 28.4592 12.4358 28.8386 12.3043 29.2346C12.2571 29.3665 12.2013 29.4951 12.1373 29.6195C11.213 31.4925 10.2892 33.3661 9.36612 35.2402C9.21458 35.5489 9.04309 35.8255 8.74365 36.0037L8.26001 36Z" fill="white"/>
<path d="M6.18388 11.733C6.18388 9.63646 6.25375 7.5372 6.16302 5.44435C6.08679 3.68501 6.92069 2.60183 8.33622 1.81908C9.87879 0.965591 11.5593 0.553093 13.2797 0.286664C15.1334 -0.00294234 17.014 -0.0732401 18.8837 0.0771936C21.2239 0.269206 23.5178 0.663338 25.6257 1.78969C26.3162 2.15717 26.9323 2.62756 27.3806 3.29547C27.6872 3.75629 27.8456 4.30178 27.8343 4.85729C27.8343 9.45088 27.8343 14.0423 27.8343 18.6316C27.8343 19.8416 27.1991 20.6767 26.2736 21.3262C24.9025 22.2845 23.3372 22.7411 21.7293 23.0452C18.5391 23.6582 15.262 23.6429 12.0774 23.0001C10.5403 22.6905 9.04761 22.2394 7.73825 21.3226C7.07948 20.8632 6.53595 20.2964 6.30184 19.4851C6.21681 19.1691 6.17709 18.8424 6.18388 18.515C6.18509 16.2543 6.18509 13.9936 6.18388 11.733ZM17.0172 1.56367C14.9629 1.59124 12.9276 1.76855 10.955 2.39052C9.94775 2.71024 8.95869 3.08692 8.18015 3.84762C7.59579 4.41631 7.60305 4.96846 8.18015 5.54817C8.28715 5.6551 8.40146 5.75426 8.52224 5.84491C9.09117 6.27855 9.73179 6.57345 10.3978 6.81507C12.0112 7.4003 13.6853 7.67224 15.3885 7.76962C17.9555 7.91478 20.4998 7.77882 22.9806 7.0273C24.0023 6.71678 25.0005 6.33735 25.8008 5.58216C26.436 4.98132 26.436 4.41906 25.8008 3.80903C25.1938 3.22289 24.4397 2.88388 23.6693 2.59907C21.5197 1.80897 19.2812 1.5995 17.0172 1.56367ZM16.9574 21.9161C18.9926 21.8958 20.958 21.7259 22.8726 21.1655C23.9198 20.8586 24.9424 20.4911 25.7763 19.7341C26.0912 19.4484 26.289 19.1048 26.2881 18.6638C26.2881 18.0666 26.2808 17.4695 26.2881 16.8723C26.2926 16.6196 26.2091 16.6261 26.0322 16.7391C24.4533 17.7423 22.6848 18.1888 20.8755 18.4791C18.4963 18.8649 16.0738 18.8909 13.6871 18.5563C11.6863 18.2761 9.72997 17.8351 7.98234 16.7372C7.7328 16.5801 7.72554 16.7042 7.72827 16.909C7.73462 17.4603 7.73916 18.0115 7.72827 18.5627C7.72014 18.7855 7.76215 19.0072 7.85113 19.2111C7.94011 19.415 8.07371 19.5957 8.24185 19.7396C8.89063 20.334 9.6719 20.6785 10.4849 20.9588C12.601 21.6845 14.7932 21.8885 16.9574 21.9161ZM16.9574 17.2251C18.725 17.204 20.429 17.0717 22.1014 16.6619C23.3073 16.3661 24.4815 15.9839 25.5041 15.2361C26.0358 14.8474 26.348 14.3624 26.2944 13.6614C26.2699 13.1815 26.2699 12.7007 26.2944 12.2208C26.3008 11.9562 26.2418 11.9131 26.0104 12.0591C24.4397 13.0504 22.6812 13.4877 20.8827 13.7817C18.8934 14.1068 16.8714 14.176 14.8649 13.9875C12.4576 13.7643 10.0984 13.3444 7.98597 12.0407C7.79088 11.9204 7.73008 11.9553 7.7328 12.1859C7.74097 12.7243 7.75095 13.2636 7.7328 13.8019C7.72085 14.0305 7.7618 14.2588 7.85238 14.4685C7.94297 14.6783 8.08068 14.8637 8.25455 15.0101C8.85978 15.5613 9.57935 15.903 10.3316 16.1796C12.4839 16.9752 14.7324 17.1911 16.9564 17.2251H16.9574ZM16.7759 12.5231C18.7649 12.5176 20.4907 12.3678 22.1848 11.9461C23.3645 11.6521 24.5232 11.2745 25.5168 10.5258C25.9333 10.2125 26.2881 9.84593 26.2863 9.26346C26.2844 8.68099 26.279 8.09118 26.2863 7.50595C26.2908 7.25974 26.2373 7.21563 26.0222 7.35252C24.4733 8.33647 22.7393 8.77746 20.9635 9.07237C18.9401 9.40773 16.8828 9.48028 14.8413 9.28827C12.4304 9.06502 10.0748 8.6369 7.96146 7.33599C7.78543 7.22758 7.72373 7.25146 7.72645 7.46828C7.7328 8.01951 7.74188 8.57074 7.72645 9.12198C7.71555 9.34456 7.75547 9.56671 7.84313 9.77114C7.93078 9.97556 8.06381 10.1568 8.23187 10.3007C8.86704 10.8887 9.63651 11.2405 10.435 11.5263C12.5683 12.287 14.7823 12.5047 16.7759 12.5249V12.5231Z" fill="white"/>
<path d="M21.6514 28.9342C21.6514 28.4537 21.6469 27.9732 21.6514 27.4927C21.6687 26.1376 22.4826 25.1959 23.8074 25.0673C24.4186 25.0113 25.0336 25.0113 25.6449 25.0673C26.898 25.1775 27.7319 25.9934 27.8045 27.264C27.8845 28.4683 27.876 29.677 27.7791 30.88C27.7669 31.0064 27.7363 31.1302 27.6883 31.2475C27.6507 31.3251 27.6338 31.4114 27.6396 31.4977C27.6453 31.584 27.6734 31.6672 27.721 31.739C27.8015 31.8835 27.8321 32.0511 27.808 32.2152C27.7838 32.3793 27.7063 32.5305 27.5876 32.6449C27.4718 32.7614 27.321 32.8355 27.1591 32.8556C26.9971 32.8758 26.8331 32.8407 26.6929 32.7561C26.5114 32.6394 26.3799 32.712 26.2111 32.7377C25.0787 32.9104 23.929 33.0886 22.8474 32.5539C22.1097 32.1865 21.7186 31.5231 21.6678 30.6926C21.6333 30.1083 21.6614 29.5212 21.6614 28.9351L21.6514 28.9342ZM26.271 30.1359C26.271 29.1758 26.2909 28.2644 26.2628 27.3558C26.2492 26.9112 25.9951 26.6604 25.5596 26.6328C25.0175 26.5993 24.4738 26.5993 23.9317 26.6328C23.478 26.6594 23.2058 26.9507 23.1976 27.411C23.1804 28.4418 23.1822 29.4735 23.1976 30.5043C23.2031 30.9223 23.4562 31.2282 23.8246 31.2769C24.2505 31.3202 24.6795 31.3229 25.1059 31.2852C24.6867 30.6641 24.6576 30.2746 24.9925 29.9604C25.3273 29.6462 25.6694 29.6839 26.271 30.1359Z" fill="white"/>
<path d="M4.57598 28.2671C4.3201 28.6116 4.06693 28.9571 3.80833 29.2988C3.37641 29.8703 2.81019 29.8648 2.37737 29.2906C2.12451 28.9568 1.87134 28.6242 1.61788 28.2928C1.61788 28.2882 1.59701 28.2928 1.54801 28.2928V28.8367C1.54801 29.9024 1.54801 30.9679 1.54801 32.033C1.54801 32.3811 1.40101 32.654 1.08342 32.79C0.956197 32.8493 0.814866 32.8705 0.676111 32.8511C0.537356 32.8318 0.406974 32.7726 0.30035 32.6806C0.201878 32.5988 0.123674 32.4948 0.071995 32.3769C0.0203165 32.259 -0.00340574 32.1305 0.00272218 32.0017C-0.000907393 29.964 -0.000907393 27.9266 0.00272218 25.8895C0.00272218 25.4742 0.215054 25.1977 0.560771 25.0911C0.935524 24.9763 1.21863 25.1297 1.43822 25.4218C1.92186 26.0649 2.40731 26.7081 2.87099 27.3622C3.03886 27.6001 3.12234 27.6497 3.31198 27.375C3.7566 26.7319 4.2339 26.1146 4.7012 25.4889C4.99701 25.0939 5.29373 24.9744 5.64942 25.0957C6.00512 25.217 6.18116 25.4953 6.18206 25.9804C6.18206 27.982 6.18206 29.9842 6.18206 31.987C6.18206 32.5171 5.88172 32.8479 5.42984 32.8561C4.97796 32.8644 4.65855 32.5245 4.64585 31.9806C4.64585 31.852 4.64585 31.7233 4.64585 31.5947V28.2965L4.57598 28.2671Z" fill="white"/>
<path d="M16.9146 29.1142C16.6932 29.7307 16.6932 29.7298 16.0544 29.5506C15.7424 29.4658 15.4387 29.3523 15.147 29.2116C13.6571 28.4766 13.4983 26.7099 14.833 25.7141C16.1088 24.7623 18.1949 24.8394 19.3881 25.8895C19.757 26.1992 19.9997 26.6361 20.0696 27.116C20.1358 27.5873 19.8999 27.9566 19.4825 28.0467C19.0651 28.1367 18.7276 27.9272 18.5987 27.4679C18.5621 27.332 18.4955 27.2062 18.4039 27.1002C18.3122 26.9942 18.1979 26.9107 18.0697 26.856C17.3329 26.5124 16.5925 26.5179 15.8702 26.9038C15.6778 27.0076 15.4746 27.1427 15.4836 27.4017C15.4927 27.6608 15.7141 27.7554 15.9174 27.8482C16.44 28.088 17.0062 28.1477 17.5588 28.2662C18.0008 28.355 18.4308 28.4963 18.8401 28.687C20.3436 29.411 20.5306 31.1547 19.2121 32.1782C17.9699 33.1446 15.8049 33.0721 14.6289 32.0192C14.2604 31.7093 14.0181 31.2725 13.9483 30.7927C13.8848 30.3279 14.1017 29.976 14.5046 29.874C14.9392 29.7674 15.2895 29.9714 15.4219 30.4436C15.493 30.68 15.6499 30.8803 15.8611 31.004C16.48 31.4165 17.6759 31.3789 18.2693 30.9278C18.6532 30.6366 18.6323 30.3058 18.1958 30.1009C17.9999 30.0004 17.7928 29.9242 17.5788 29.874C16.9917 29.7527 16.9926 29.7472 16.9146 29.1142Z" fill="white"/>
<path d="M29.3723 28.9424C29.3723 27.9474 29.3659 26.9516 29.3723 25.9566C29.3786 25.3071 29.8305 24.9295 30.375 25.0967C30.7152 25.2014 30.904 25.4697 30.9094 25.9061C30.9185 26.6089 30.9094 27.3117 30.9094 28.0145C30.9094 28.9975 30.9167 29.9815 30.904 30.9654C30.904 31.2199 30.9584 31.3146 31.2279 31.3054C31.8631 31.2852 32.4983 31.287 33.1334 31.3054C33.7505 31.321 34.117 31.7859 33.9501 32.316C33.8548 32.6237 33.6461 32.8277 33.3267 32.8424C32.2297 32.8902 31.1299 32.9003 30.0338 32.8378C29.5919 32.813 29.365 32.4703 29.3623 31.931C29.3687 30.9333 29.3723 29.9383 29.3723 28.9424Z" fill="white"/>
</g>
<defs>
<clipPath id="clip0_119_847">
<rect width="34" height="36" fill="white"/>
</clipPath>
</defs>
</svg>
