<svg width="38" height="36" viewBox="0 0 38 36" fill="none" xmlns="http://www.w3.org/2000/svg">
<g clip-path="url(#clip0_119_836)">
<path d="M14.7512 0C20.4777 0.00460249 24.4235 0.0447067 28.3687 0.161084C29.88 0.205794 30.9123 1.19927 30.972 2.71612C31.093 5.77809 30.9333 8.83085 30.7677 11.8889C30.7506 12.2051 30.6573 12.5687 30.7776 12.8265C30.8978 13.0842 31.3091 13.0546 31.5825 13.1795C34.3843 14.461 35.8825 16.6393 36.0375 19.7138C36.0914 20.7783 36.052 21.8467 36.0461 22.9132C36.0461 23.1189 36.0927 23.2511 36.2774 23.38C37.0948 23.9507 37.4943 24.7528 37.4963 25.747C37.4998 27.9693 37.4998 30.1914 37.4963 32.4133C37.4963 33.1024 37.4109 33.7809 37.1316 34.4213C36.692 35.4293 35.9272 35.9842 34.8259 35.9875C30.8281 35.9998 26.8309 35.9998 22.834 35.9875C21.462 35.9822 20.4232 34.994 20.2181 33.5403C20.0578 32.4035 20.1643 31.2581 20.1524 30.1167C20.1524 29.788 20.0907 29.6657 19.7234 29.665C15.5232 29.6578 11.3244 29.5414 7.12631 29.4165C5.97312 29.3823 4.81533 29.379 3.67002 29.2192C1.74081 28.949 0.763062 27.9042 0.563307 25.9593C0.518428 25.5172 0.496496 25.073 0.497598 24.6286C0.502855 18.9912 0.487741 13.3531 0.52191 7.71508C0.531109 6.15681 0.653328 4.59263 1.01736 3.06723C1.49572 1.06581 2.68242 0.14596 4.72859 0.0861281C8.66389 -0.0282766 12.5979 0.00986247 14.7512 0ZM14.073 7.85513C11.101 7.84132 6.5461 7.90378 1.99116 7.93337C1.71518 7.93337 1.62779 7.99189 1.62779 8.28579C1.63568 13.9109 1.63568 19.5356 1.62779 25.1598C1.62748 25.6036 1.68424 26.0455 1.79666 26.4748C2.0319 27.3697 2.57466 27.9285 3.51626 28.0765C4.42173 28.2185 5.33574 28.2369 6.24712 28.2737C10.7482 28.4381 15.2492 28.5012 19.7555 28.5788C20.0841 28.5847 20.1498 28.4795 20.1498 28.1744C20.1498 27.2743 20.0782 26.3709 20.2201 25.4748C20.3515 24.6391 20.6144 23.8632 21.3477 23.3556C21.5448 23.2195 21.5954 23.0775 21.5934 22.856C21.5829 21.8783 21.5869 20.9006 21.5895 19.9229C21.6013 15.6563 25.0497 12.3991 29.2978 12.6516C29.5606 12.6667 29.6198 12.5937 29.6204 12.3478C29.6204 10.9671 29.6303 9.57974 29.6592 8.19637C29.6651 7.88866 29.5501 7.85053 29.2853 7.85053C24.7415 7.8571 20.1984 7.85513 14.073 7.85513ZM28.8234 23.9941V23.9862C27.7444 23.9862 26.6661 23.9822 25.5872 23.9862C24.6607 23.9908 23.7342 23.9862 22.809 24.0197C22.0435 24.0506 21.6644 24.3807 21.4423 25.1177C21.3346 25.4702 21.2792 25.8366 21.278 26.2052C21.2745 27.5895 21.2725 28.9737 21.2721 30.358C21.2721 31.2594 21.255 32.1615 21.2885 33.0623C21.3306 34.2116 21.9391 34.8816 22.9602 34.8849C26.8817 34.8971 30.8023 34.8971 34.7221 34.8849C35.4632 34.8849 35.8969 34.5528 36.1532 33.8539C36.3299 33.3693 36.3648 32.8644 36.3641 32.3542C36.3641 30.1954 36.3641 28.0366 36.3641 25.8778C36.3641 24.645 35.7182 23.9934 34.494 23.9921C32.6043 23.9912 30.714 23.9919 28.8234 23.9941ZM15.8005 6.81562V6.73409C18.2243 6.73409 20.6483 6.73409 23.0725 6.73409C25.2166 6.73409 27.3613 6.72357 29.5061 6.73409C29.8103 6.73409 29.8938 6.64599 29.8833 6.34946C29.8609 5.74061 29.8833 5.13046 29.876 4.52096C29.8695 3.87398 29.8852 3.22371 29.8294 2.58068C29.7637 1.79563 29.2242 1.31828 28.4495 1.29067C27.5997 1.26042 26.7498 1.23851 25.9 1.22492C18.8455 1.10657 11.7903 1.03161 4.73582 1.22492C3.16735 1.26766 2.46295 1.84823 2.09301 3.37954C1.86237 4.33423 1.81243 5.31192 1.73095 6.28436C1.67642 6.94186 1.6475 6.81825 2.25005 6.81891C6.76644 6.81891 11.2833 6.81781 15.8005 6.81562ZM28.8207 22.8704C29.784 22.8704 30.7473 22.8612 31.7119 22.8763C31.982 22.8803 32.0543 22.7935 32.0503 22.5325C32.0372 21.5561 32.0451 20.579 32.0444 19.6027C32.0492 19.2727 32.006 18.9438 31.9163 18.6263C31.6982 17.9033 31.2354 17.2788 30.6074 16.86C29.9794 16.4412 29.2253 16.2541 28.4745 16.3309C26.9408 16.4887 25.6963 17.7492 25.6161 19.3055C25.5603 20.3936 25.5997 21.4864 25.5846 22.5765C25.5813 22.8132 25.6674 22.877 25.8947 22.8744C26.8692 22.8645 27.845 22.8704 28.8207 22.8704ZM24.4702 20.8729H24.4761C24.4761 20.3778 24.4642 19.8821 24.4761 19.3876C24.5418 17.143 26.3586 15.2954 28.6 15.1902C31.1206 15.0718 33.1503 17.0483 33.1661 19.6408C33.172 20.6178 33.1661 21.5955 33.1661 22.5732C33.1661 22.7271 33.1404 22.8803 33.3849 22.8737C33.8284 22.8612 34.2726 22.8658 34.7168 22.8737C34.864 22.8737 34.9212 22.8283 34.9172 22.6804C34.8837 21.4502 35.0079 20.2154 34.8469 18.9912C34.4651 16.0942 32.0142 13.8864 29.0547 13.7483C26.2003 13.6168 23.5351 15.6189 22.8853 18.4067C22.5567 19.8223 22.7696 21.2648 22.7138 22.6942C22.7059 22.8915 22.8334 22.877 22.9654 22.875C23.3597 22.8684 23.7539 22.8527 24.1449 22.8671C24.39 22.8763 24.4807 22.8014 24.4734 22.5482C24.4583 21.99 24.4702 21.4312 24.4702 20.8729Z" fill="white"/>
<path d="M6.35183 11.668C6.72374 11.6542 7.08974 11.6851 7.43208 11.8409C7.74157 11.9816 7.87561 12.2722 7.77837 12.555C7.6752 12.8554 7.38411 12.9863 7.03126 12.887C6.3308 12.6897 5.64283 12.7884 4.9818 13.033C4.32077 13.2775 4.16569 13.9318 4.60266 14.4795C4.85235 14.7944 5.18681 15.0009 5.52981 15.1961C5.98189 15.4532 6.44973 15.686 6.84793 16.0259C7.65418 16.7136 7.96498 17.5802 7.73697 18.6164C7.52276 19.581 6.96686 20.2602 5.9924 20.5396C4.90755 20.8493 3.65185 20.3614 3.06507 19.4219C2.82589 19.0392 2.85677 18.7039 3.14721 18.5165C3.43764 18.3291 3.74319 18.4297 4.00142 18.8091C4.36413 19.3476 4.88915 19.5626 5.51272 19.4929C6.1041 19.4271 6.4655 19.0418 6.6186 18.4797C6.78616 17.8649 6.65934 17.3231 6.1501 16.9017C5.78542 16.6005 5.36159 16.3941 4.9542 16.1633C4.49884 15.9049 4.07633 15.6071 3.73924 15.1988C2.79632 14.0567 3.21357 12.4866 4.602 11.9645C5.16406 11.7664 5.7559 11.6661 6.35183 11.668Z" fill="white"/>
<path d="M12.2223 11.6647C12.5378 11.6525 12.8521 11.7109 13.1422 11.8356C13.4708 11.9816 13.6068 12.2834 13.4911 12.5799C13.3821 12.86 13.0969 12.9849 12.7644 12.8903C12.0508 12.6884 11.351 12.7851 10.6788 13.0408C10.0381 13.2848 9.89029 13.9284 10.3075 14.4689C10.5546 14.7865 10.8878 14.9949 11.2275 15.1922C11.6874 15.4552 12.1691 15.6925 12.5758 16.0469C13.3643 16.7287 13.6738 17.5861 13.453 18.6065C13.2447 19.5711 12.6954 20.2588 11.7216 20.5422C10.6223 20.8618 9.34885 20.368 8.7647 19.412C8.5334 19.0326 8.57546 18.6887 8.87509 18.5138C9.17472 18.3389 9.46647 18.4481 9.70039 18.8025C10.0677 19.3568 10.5993 19.5757 11.24 19.4955C11.8359 19.4212 12.1862 19.0287 12.3327 18.4678C12.4937 17.8517 12.3524 17.3113 11.8438 16.8944C11.4877 16.6031 11.075 16.4033 10.6781 16.1784C10.2228 15.9207 9.80093 15.6228 9.46056 15.2178C8.51106 14.0849 8.91714 12.503 10.3029 11.979C10.8805 11.7567 11.4831 11.6745 12.2223 11.6647Z" fill="white"/>
<path d="M15.5028 15.4835C15.5028 14.2899 15.5028 13.0963 15.5028 11.9027C15.5028 11.8015 15.4969 11.6989 15.5061 11.5983C15.5364 11.2584 15.7552 11.0421 16.0633 11.0395C16.3715 11.0368 16.5976 11.2512 16.6291 11.5878C16.6396 11.7016 16.633 11.8166 16.633 11.9304C16.633 14.2671 16.633 16.6034 16.633 18.9393C16.633 19.5199 16.633 19.5185 17.2316 19.5172C17.9676 19.5172 18.7035 19.5212 19.4395 19.5113C19.6655 19.508 19.7746 19.5448 19.7726 19.8171C19.7674 20.633 19.7805 20.6323 18.9624 20.6337C18.3053 20.6337 17.643 20.6448 16.9833 20.6389C16.0344 20.6317 15.5048 20.0932 15.5028 19.1405C15.5002 17.9215 15.5028 16.7025 15.5028 15.4835Z" fill="white"/>
<path d="M28.7681 32.5856C28.4396 32.5856 28.111 32.5967 27.7792 32.5856C27.0985 32.5579 26.7134 32.0681 26.8547 31.4021C26.9487 30.9563 27.0617 30.5131 27.1832 30.0746C27.2159 29.981 27.2233 29.8805 27.2048 29.7832C27.1862 29.6859 27.1423 29.5952 27.0774 29.5203C26.7765 29.1297 26.6292 28.6421 26.6636 28.1501C26.698 27.658 26.9117 27.1957 27.2641 26.8509C27.6177 26.5172 28.0787 26.3207 28.5642 26.2966C29.0497 26.2725 29.5278 26.4224 29.9128 26.7194C30.7171 27.342 30.924 28.4486 30.3852 29.3493C30.3304 29.4324 30.2946 29.5266 30.2805 29.6252C30.2664 29.7238 30.2744 29.8243 30.3037 29.9194C30.4352 30.4217 30.5561 30.9269 30.6665 31.4349C30.7979 32.0569 30.4266 32.5527 29.7919 32.5869C29.4508 32.6066 29.1078 32.5869 28.7655 32.5869L28.7681 32.5856ZM28.7458 31.4737C28.8977 31.4658 29.0499 31.4658 29.2018 31.4737C29.5001 31.5046 29.5389 31.3922 29.4574 31.1239C29.326 30.7005 29.2557 30.26 29.1289 29.8352C29.0191 29.4637 29.0579 29.1718 29.3365 28.8648C29.782 28.3743 29.5264 27.6024 28.9022 27.44C28.7117 27.3854 28.5084 27.3959 28.3246 27.4698C28.1407 27.5438 27.9867 27.6769 27.887 27.8483C27.68 28.2198 27.7326 28.6807 28.0841 28.9496C28.4356 29.2185 28.5053 29.5157 28.3739 29.9141C28.2865 30.1771 28.2379 30.4539 28.1702 30.7242C27.9829 31.4737 27.9823 31.4737 28.7458 31.4737Z" fill="white"/>
<path d="M8.08879 4.51305C6.78294 4.51305 5.4773 4.51305 4.17189 4.51305C3.68827 4.51305 3.43792 4.30988 3.44909 3.93642C3.45829 3.57808 3.69878 3.38872 4.17189 3.38806C6.78403 3.38806 9.39552 3.38806 12.0064 3.38806C12.4768 3.38806 12.7528 3.61293 12.7397 3.96995C12.7272 4.3158 12.4683 4.51239 12.011 4.51305C10.702 4.5148 9.39464 4.5148 8.08879 4.51305Z" fill="white"/>
<path d="M22.5448 3.90426C22.9496 3.90426 23.3543 3.89637 23.7591 3.90426C24.1251 3.91347 24.3583 4.12978 24.3695 4.44604C24.3807 4.77479 24.1376 5.02267 23.7571 5.02793C22.9226 5.03888 22.0881 5.03888 21.2536 5.02793C20.8876 5.02267 20.6668 4.78925 20.6675 4.46576C20.6681 4.14227 20.8935 3.91675 21.2556 3.90689C21.686 3.89571 22.1157 3.90426 22.5448 3.90426Z" fill="white"/>
<path d="M26.6355 3.90358C27.0402 3.90358 27.445 3.89832 27.8491 3.90358C28.2368 3.91016 28.4858 4.13108 28.4917 4.45588C28.4976 4.78069 28.2479 5.02396 27.8662 5.02856C27.0448 5.0382 26.2228 5.0382 25.4001 5.02856C25.0124 5.0233 24.7785 4.78792 24.7838 4.45457C24.789 4.12122 25.0276 3.91082 25.4212 3.90358C25.8259 3.89832 26.2307 3.90358 26.6355 3.90358Z" fill="white"/>
<path d="M18.3854 5.03377C17.9794 5.03377 17.5733 5.04232 17.1679 5.03377C16.7736 5.02325 16.5436 4.80102 16.5469 4.46175C16.5502 4.12249 16.7841 3.91143 17.1817 3.90814C17.9813 3.90156 18.781 3.90288 19.58 3.90814C19.9999 3.90814 20.2443 4.12906 20.2404 4.47688C20.2365 4.82469 19.9914 5.02917 19.5662 5.03641C19.1726 5.03904 18.779 5.03443 18.3854 5.03377Z" fill="white"/>
</g>
<defs>
<clipPath id="clip0_119_836">
<rect width="37" height="36" fill="white" transform="translate(0.5)"/>
</clipPath>
</defs>
</svg>
