<svg width="132" height="132" viewBox="0 0 132 132" fill="none" xmlns="http://www.w3.org/2000/svg">
<rect width="132" height="132" rx="66" fill="#EE3F80" fill-opacity="0.2"/>
<rect x="21" y="21" width="90" height="90" rx="45" fill="#3489EF"/>
<path d="M73.9673 62.3005C74.4554 61.8124 74.4554 61.0209 73.9673 60.5328C73.4791 60.0446 72.6876 60.0446 72.1995 60.5328L63.9167 68.8155L59.8006 64.6994C59.3124 64.2113 58.521 64.2113 58.0328 64.6994C57.5447 65.1876 57.5447 65.979 58.0328 66.4672L63.0328 71.4672C63.521 71.9554 64.3124 71.9554 64.8006 71.4672L73.9673 62.3005Z" fill="white"/>
<path fill-rule="evenodd" clip-rule="evenodd" d="M82.6667 66C82.6667 75.2047 75.2048 82.6666 66 82.6666C56.7953 82.6666 49.3334 75.2047 49.3334 66C49.3334 56.7952 56.7953 49.3333 66 49.3333C75.2048 49.3333 82.6667 56.7952 82.6667 66ZM80.1667 66C80.1667 73.824 73.8241 80.1666 66 80.1666C58.176 80.1666 51.8334 73.824 51.8334 66C51.8334 58.1759 58.176 51.8333 66 51.8333C73.8241 51.8333 80.1667 58.1759 80.1667 66Z" fill="white"/>
</svg>
