<svg width="117" height="118" viewBox="0 0 117 118" fill="none" xmlns="http://www.w3.org/2000/svg">
<rect x="15" y="15" width="87" height="88" rx="43.5" fill="#3489EF"/>
<rect x="7.5" y="7.5" width="102" height="103" rx="51" stroke="#407BFF" stroke-opacity="0.5" stroke-width="15" stroke-linecap="round"/>
<path d="M62.6667 42.3334H48.0833C43.481 42.3334 39.75 46.0643 39.75 50.6667V61.0601C39.75 64.5247 42.5586 67.3334 46.0233 67.3334C47.5493 67.3334 49.0221 67.8896 50.1667 68.8964V59C50.1667 55.5483 52.9649 52.75 56.4167 52.75H71V50.6667C71 46.0643 67.269 42.3334 62.6667 42.3334Z" fill="white"/>
<path fill-rule="evenodd" clip-rule="evenodd" d="M73.0833 54.8334H56.4167C54.1155 54.8334 52.25 56.6989 52.25 59V69.8148C52.25 72.5865 54.4969 74.8334 57.2686 74.8334C58.5084 74.8334 59.7044 75.2923 60.6259 76.1217L61.9626 77.3248C63.5472 78.7509 65.9527 78.7509 67.5374 77.3248L68.8741 76.1217C69.7956 75.2923 70.9916 74.8334 72.2314 74.8334C75.0031 74.8334 77.25 72.5865 77.25 69.8148V59C77.25 56.6989 75.3845 54.8334 73.0833 54.8334ZM60.0625 65.7709C60.0625 66.6338 59.3629 67.3334 58.5 67.3334C57.6371 67.3334 56.9375 66.6338 56.9375 65.7709C56.9375 64.9079 57.6371 64.2084 58.5 64.2084C59.3629 64.2084 60.0625 64.9079 60.0625 65.7709ZM64.75 67.3334C65.6129 67.3334 66.3125 66.6338 66.3125 65.7709C66.3125 64.9079 65.6129 64.2084 64.75 64.2084C63.8871 64.2084 63.1875 64.9079 63.1875 65.7709C63.1875 66.6338 63.8871 67.3334 64.75 67.3334ZM72.5625 65.7709C72.5625 66.6338 71.8629 67.3334 71 67.3334C70.1371 67.3334 69.4375 66.6338 69.4375 65.7709C69.4375 64.9079 70.1371 64.2084 71 64.2084C71.8629 64.2084 72.5625 64.9079 72.5625 65.7709Z" fill="white"/>
<circle cx="91.8255" cy="28.4683" r="11.1746" fill="#38CF71"/>
<path d="M97.4129 24.2778L89.7303 32.6588L86.2383 28.8493" stroke="white" stroke-width="1.5" stroke-linecap="round" stroke-linejoin="round"/>
</svg>
