<svg width="117" height="118" viewBox="0 0 117 118" fill="none" xmlns="http://www.w3.org/2000/svg">
<rect x="15" y="15" width="87" height="88" rx="43.5" fill="#AE702B"/>
<rect x="7.5" y="7.5" width="102" height="103" rx="51" stroke="#AE702B" stroke-opacity="0.2" stroke-width="15" stroke-linecap="round"/>
<path d="M62.6667 42.3333H48.0833C43.481 42.3333 39.75 46.0642 39.75 50.6666V61.06C39.75 64.5246 42.5586 67.3333 46.0233 67.3333C47.5493 67.3333 49.0221 67.8895 50.1667 68.8963V58.9999C50.1667 55.5481 52.9649 52.7499 56.4167 52.7499H71V50.6666C71 46.0642 67.269 42.3333 62.6667 42.3333Z" fill="white"/>
<path fill-rule="evenodd" clip-rule="evenodd" d="M73.0833 54.8333H56.4167C54.1155 54.8333 52.25 56.6987 52.25 58.9999V69.8146C52.25 72.5863 54.4969 74.8333 57.2686 74.8333C58.5084 74.8333 59.7044 75.2922 60.6259 76.1216L61.9626 77.3246C63.5472 78.7508 65.9527 78.7508 67.5374 77.3246L68.8741 76.1216C69.7956 75.2922 70.9916 74.8333 72.2314 74.8333C75.0031 74.8333 77.25 72.5863 77.25 69.8146V58.9999C77.25 56.6987 75.3845 54.8333 73.0833 54.8333ZM60.0625 65.7708C60.0625 66.6337 59.3629 67.3333 58.5 67.3333C57.6371 67.3333 56.9375 66.6337 56.9375 65.7708C56.9375 64.9078 57.6371 64.2083 58.5 64.2083C59.3629 64.2083 60.0625 64.9078 60.0625 65.7708ZM64.75 67.3333C65.6129 67.3333 66.3125 66.6337 66.3125 65.7708C66.3125 64.9078 65.6129 64.2083 64.75 64.2083C63.8871 64.2083 63.1875 64.9078 63.1875 65.7708C63.1875 66.6337 63.8871 67.3333 64.75 67.3333ZM72.5625 65.7708C72.5625 66.6337 71.8629 67.3333 71 67.3333C70.1371 67.3333 69.4375 66.6337 69.4375 65.7708C69.4375 64.9078 70.1371 64.2083 71 64.2083C71.8629 64.2083 72.5625 64.9078 72.5625 65.7708Z" fill="white"/>
<circle cx="91.825" cy="28.4683" r="11.1746" fill="#38CF71"/>
<path d="M97.4119 24.2778L89.7294 32.6588L86.2373 28.8493" stroke="white" stroke-width="1.5" stroke-linecap="round" stroke-linejoin="round"/>
</svg>
