<svg width="132" height="132" viewBox="0 0 132 132" fill="none" xmlns="http://www.w3.org/2000/svg">
<rect width="132" height="132" rx="66" fill="#E93F81" fill-opacity="0.2"/>
<rect x="15.5" y="15" width="101" height="102" rx="50" fill="#E93F81"/>
<path d="M75.3608 61.5607C75.9344 60.9749 75.9344 60.0251 75.3608 59.4393C74.7872 58.8536 73.8573 58.8536 73.2837 59.4393L63.5514 69.3787L58.715 64.4393C58.1414 63.8536 57.2115 63.8536 56.6379 64.4393C56.0643 65.0251 56.0643 65.9749 56.6379 66.5607L62.5129 72.5607C63.0865 73.1464 64.0164 73.1464 64.59 72.5607L75.3608 61.5607Z" fill="white"/>
<path fill-rule="evenodd" clip-rule="evenodd" d="M85.5827 66C85.5827 77.0457 76.8149 86 65.9993 86C55.1838 86 46.416 77.0457 46.416 66C46.416 54.9543 55.1838 46 65.9993 46C76.8149 46 85.5827 54.9543 85.5827 66ZM82.6452 66C82.6452 75.3888 75.1926 83 65.9993 83C56.8061 83 49.3535 75.3888 49.3535 66C49.3535 56.6112 56.8061 49 65.9993 49C75.1926 49 82.6452 56.6112 82.6452 66Z" fill="white"/>
</svg>
