<svg width="5" height="17" viewBox="0 0 5 17" fill="none" xmlns="http://www.w3.org/2000/svg">
<path d="M2.5 4.5C3.60449 4.5 4.5 3.60456 4.5 2.5C4.5 1.39544 3.60449 0.5 2.5 0.5C1.39551 0.5 0.5 1.39544 0.5 2.5C0.5 3.60456 1.39551 4.5 2.5 4.5Z" fill="white"/>
<path d="M4.5 8.48438C4.5 9.58894 3.60449 10.4844 2.5 10.4844C1.39551 10.4844 0.5 9.58894 0.5 8.48438C0.5 7.37981 1.39551 6.48438 2.5 6.48438C3.60449 6.48438 4.5 7.37981 4.5 8.48438Z" fill="white"/>
<path d="M4.5 14.5C4.5 15.6046 3.60449 16.5 2.5 16.5C1.39551 16.5 0.5 15.6046 0.5 14.5C0.5 13.3954 1.39551 12.5 2.5 12.5C3.60449 12.5 4.5 13.3954 4.5 14.5Z" fill="white"/>
</svg>
