<svg width="21" height="17" viewBox="0 0 21 17" fill="none" xmlns="http://www.w3.org/2000/svg">
<path fill-rule="evenodd" clip-rule="evenodd" d="M14.5002 8.5C14.5002 10.7091 12.7094 12.5 10.5002 12.5C8.29111 12.5 6.50024 10.7091 6.50024 8.5C6.50024 6.29086 8.29111 4.5 10.5002 4.5C12.7094 4.5 14.5002 6.29086 14.5002 8.5ZM13.0002 8.5C13.0002 9.88071 11.881 11 10.5002 11C9.11953 11 8.00024 9.88071 8.00024 8.5C8.00024 7.11929 9.11953 6 10.5002 6C11.881 6 13.0002 7.11929 13.0002 8.5Z" fill="white"/>
<path fill-rule="evenodd" clip-rule="evenodd" d="M0.892127 9.28843C0.742989 8.77377 0.742989 8.22623 0.892126 7.71157C2.09931 3.5456 5.94308 0.5 10.4982 0.5C15.0533 0.5 18.8971 3.5456 20.1043 7.71157C20.2534 8.22623 20.2534 8.77377 20.1043 9.28843C18.8971 13.4544 15.0533 16.5 10.4982 16.5C5.94308 16.5 2.09931 13.4544 0.892127 9.28843ZM2.33286 8.12905C3.35923 4.58706 6.62854 2 10.4982 2C14.3678 2 17.6372 4.58706 18.6635 8.12905C18.7336 8.37101 18.7336 8.62899 18.6635 8.87095C17.6372 12.4129 14.3678 15 10.4982 15C6.62854 15 3.35923 12.4129 2.33286 8.87095C2.26275 8.62899 2.26275 8.371 2.33286 8.12905Z" fill="white"/>
</svg>
