<svg width="20" height="22" viewBox="0 0 20 22" fill="none" xmlns="http://www.w3.org/2000/svg">
<path fill-rule="evenodd" clip-rule="evenodd" d="M8.69455 7.97899L15.4847 1.18887C16.4032 0.270376 17.8923 0.270375 18.8108 1.18887C19.7293 2.10737 19.7293 3.59655 18.8108 4.51504L12.0207 11.3052C11.896 11.4299 11.7268 11.5 11.5503 11.5H9.55877C9.41012 11.666 9.18936 11.7643 8.94982 11.7483C7.84014 11.6744 5.89202 12.0086 4.25104 12.6803C3.43491 13.0144 2.75325 13.4089 2.30282 13.8295C1.8529 14.2497 1.71455 14.6129 1.74581 14.9253C1.78977 15.3646 1.95131 15.5994 2.16102 15.7523C2.40118 15.9274 2.78989 16.0552 3.37452 16.0915C4.5539 16.1646 6.17815 15.8495 7.98134 15.3884C8.72585 15.198 9.51491 14.9784 10.298 14.7605C11.3312 14.473 12.3543 14.1883 13.2507 13.9774C14.0579 13.7875 14.8257 13.6405 15.4934 13.5884C16.1351 13.5383 16.8049 13.5641 17.3351 13.8292C18.0501 14.1867 18.5305 14.8398 18.6131 15.642C18.694 16.4283 18.3848 17.2494 17.7588 17.9858C16.5171 19.4467 13.916 20.7357 9.58736 21.2449C9.17599 21.2933 8.80327 20.999 8.75488 20.5877C8.70648 20.1763 9.00074 19.8036 9.41212 19.7552C13.5836 19.2644 15.7326 18.0535 16.6159 17.0143C17.0525 16.5007 17.1494 16.0719 17.121 15.7956C17.0942 15.5353 16.9494 15.3134 16.6643 15.1709C16.5145 15.096 16.1899 15.0386 15.6101 15.0838C15.0562 15.127 14.3754 15.2537 13.5942 15.4376C12.6991 15.6482 11.7513 15.9126 10.7626 16.1885C9.98289 16.406 9.17774 16.6307 8.35299 16.8416C6.55872 17.3005 4.72425 17.678 3.28173 17.5886C2.55542 17.5436 1.84238 17.3764 1.27726 16.9643C0.68169 16.53 0.334404 15.8854 0.253269 15.0747C0.157605 14.1188 0.643306 13.3269 1.279 12.7333C1.91418 12.1401 2.77967 11.6618 3.68281 11.2921C5.25804 10.6473 7.12609 10.2624 8.49971 10.2395V8.44938C8.49971 8.27295 8.56979 8.10374 8.69455 7.97899ZM9.99971 10V8.79515L16.5453 2.24953C16.878 1.91682 17.4175 1.91682 17.7502 2.24953C18.0829 2.58224 18.0829 3.12167 17.7502 3.45438L11.2046 10H9.99971Z" fill="white"/>
</svg>
