<svg width="28" height="24" viewBox="0 0 28 24" fill="none" xmlns="http://www.w3.org/2000/svg">
<path d="M11.8627 8.18133C12.331 7.88862 12.4734 7.27167 12.1807 6.80333C11.888 6.335 11.271 6.19262 10.8027 6.48533L7.27841 8.688C5.81619 9.60189 5.81619 11.7314 7.27841 12.6453L10.8027 14.848C11.271 15.1407 11.888 14.9983 12.1807 14.53C12.4734 14.0617 12.331 13.4447 11.8627 13.152L8.33841 10.9493C8.12952 10.8188 8.12952 10.5146 8.33841 10.384L11.8627 8.18133Z" fill="#3489EF"/>
<path d="M15.818 6.80333C15.5253 7.27167 15.6677 7.88862 16.136 8.18133L19.6603 10.384C19.8692 10.5146 19.8692 10.8188 19.6603 10.9493L16.136 13.152C15.6677 13.4447 15.5253 14.0617 15.818 14.53C16.1107 14.9983 16.7277 15.1407 17.196 14.848L20.7203 12.6453C22.1825 11.7314 22.1825 9.60189 20.7203 8.688L17.196 6.48533C16.7277 6.19262 16.1107 6.335 15.818 6.80333Z" fill="#3489EF"/>
<path fill-rule="evenodd" clip-rule="evenodd" d="M21.9993 0H5.99935C3.05383 0 0.666016 2.38781 0.666016 5.33333V16C0.666016 18.9455 3.05383 21.3333 5.99935 21.3333H21.9993C24.9449 21.3333 27.3327 18.9455 27.3327 16V5.33333C27.3327 2.38781 24.9449 0 21.9993 0ZM5.99935 2H21.9993C23.8403 2 25.3327 3.49238 25.3327 5.33333V16C25.3327 17.8409 23.8403 19.3333 21.9993 19.3333H5.99935C4.1584 19.3333 2.66602 17.8409 2.66602 16V5.33333C2.66602 3.49238 4.1584 2 5.99935 2Z" fill="#3489EF"/>
<path d="M11.3327 21.6667C10.7804 21.6667 10.3327 22.1144 10.3327 22.6667C10.3327 23.219 10.7804 23.6667 11.3327 23.6667H16.666C17.2183 23.6667 17.666 23.219 17.666 22.6667C17.666 22.1144 17.2183 21.6667 16.666 21.6667H11.3327Z" fill="#3489EF"/>
</svg>
