<svg width="18" height="18" viewBox="0 0 18 18" fill="none" xmlns="http://www.w3.org/2000/svg">
<path fill-rule="evenodd" clip-rule="evenodd" d="M3.5 0.25C5.29493 0.25 6.75 1.70507 6.75 3.5V5.25H11.25V3.5C11.25 1.70507 12.7051 0.25 14.5 0.25C16.2949 0.25 17.75 1.70507 17.75 3.5C17.75 5.29493 16.2949 6.75 14.5 6.75H12.75V11.25H14.5C16.2949 11.25 17.75 12.7051 17.75 14.5C17.75 16.2949 16.2949 17.75 14.5 17.75C12.7051 17.75 11.25 16.2949 11.25 14.5V12.75H6.75V14.5C6.75 16.2949 5.29493 17.75 3.5 17.75C1.70507 17.75 0.25 16.2949 0.25 14.5C0.25 12.7051 1.70507 11.25 3.5 11.25H5.25V6.75H3.5C1.70507 6.75 0.25 5.29493 0.25 3.5C0.25 1.70507 1.70507 0.25 3.5 0.25ZM1.75 3.5C1.75 2.5335 2.5335 1.75 3.5 1.75C4.4665 1.75 5.25 2.5335 5.25 3.5V5.25H3.5C2.5335 5.25 1.75 4.4665 1.75 3.5ZM16.25 3.5C16.25 4.4665 15.4665 5.25 14.5 5.25H12.75V3.5C12.75 2.5335 13.5335 1.75 14.5 1.75C15.4665 1.75 16.25 2.5335 16.25 3.5ZM14.5 16.25C13.5335 16.25 12.75 15.4665 12.75 14.5V12.75H14.5C15.4665 12.75 16.25 13.5335 16.25 14.5C16.25 15.4665 15.4665 16.25 14.5 16.25ZM1.75 14.5C1.75 13.5335 2.5335 12.75 3.5 12.75H5.25V14.5C5.25 15.4665 4.4665 16.25 3.5 16.25C2.5335 16.25 1.75 15.4665 1.75 14.5ZM6.75 11.25V6.75H11.25V11.25H6.75Z" fill="#3489EF"/>
</svg>
