<svg width="24" height="28" viewBox="0 0 24 28" fill="none" xmlns="http://www.w3.org/2000/svg">
<path fill-rule="evenodd" clip-rule="evenodd" d="M5 8.54061C6.72523 8.09657 8 6.53047 8 4.66663C8 2.45749 6.20914 0.666626 4 0.666626C1.79086 0.666626 0 2.45749 0 4.66663C0 6.53047 1.27477 8.09657 3 8.54061V19.4593C1.27477 19.9034 0 21.4695 0 23.3333C0 25.5424 1.79086 27.3333 4 27.3333C6.20914 27.3333 8 25.5424 8 23.3333C8 21.4695 6.72523 19.9034 5 19.4593V17.5757C5.87199 15.9344 6.92366 15.1799 8.01615 14.8264C9.21336 14.4391 10.5681 14.4952 12.0562 14.6605C12.3263 14.6905 12.605 14.725 12.8889 14.7602C14.0759 14.9071 15.354 15.0654 16.4745 14.9533C17.201 14.8807 17.9316 14.6929 18.5965 14.2842C19.2091 13.9077 19.7183 13.3729 20.1127 12.6651C22.2697 12.6054 24 10.8381 24 8.66663C24 6.45749 22.2091 4.66663 20 4.66663C17.7909 4.66663 16 6.45749 16 8.66663C16 10.1654 16.8243 11.4717 18.0443 12.1568C17.8877 12.338 17.7214 12.4745 17.5493 12.5803C17.2142 12.7862 16.799 12.9109 16.2755 12.9633C15.3998 13.0508 14.4155 12.9305 13.2544 12.7885C12.942 12.7503 12.6164 12.7104 12.2771 12.6727C10.7653 12.5048 9.03665 12.3942 7.40051 12.9235C6.53964 13.202 5.73177 13.6477 5 14.3087V8.54061ZM6 4.66663C6 5.7712 5.10457 6.66663 4 6.66663C2.89543 6.66663 2 5.7712 2 4.66663C2 3.56206 2.89543 2.66663 4 2.66663C5.10457 2.66663 6 3.56206 6 4.66663ZM22 8.66663C22 9.7712 21.1046 10.6666 20 10.6666C18.8954 10.6666 18 9.7712 18 8.66663C18 7.56206 18.8954 6.66663 20 6.66663C21.1046 6.66663 22 7.56206 22 8.66663ZM4 25.3333C5.10457 25.3333 6 24.4379 6 23.3333C6 22.2287 5.10457 21.3333 4 21.3333C2.89543 21.3333 2 22.2287 2 23.3333C2 24.4379 2.89543 25.3333 4 25.3333Z" fill="#3489EF"/>
</svg>
