<svg width="24" height="24" viewBox="0 0 24 24" fill="none" xmlns="http://www.w3.org/2000/svg">
<path d="M14.6667 6.66671C15.219 6.66671 15.6667 6.21899 15.6667 5.66671C15.6667 5.11442 15.219 4.66671 14.6667 4.66671H13.3333C12.781 4.66671 12.3333 5.11442 12.3333 5.66671C12.3333 6.21899 12.781 6.66671 13.3333 6.66671H14.6667Z" fill="#3489EF"/>
<path d="M17.6667 5.66671C17.6667 5.11442 18.1144 4.66671 18.6667 4.66671H20C20.5523 4.66671 21 5.11442 21 5.66671C21 6.21899 20.5523 6.66671 20 6.66671H18.6667C18.1144 6.66671 17.6667 6.21899 17.6667 5.66671Z" fill="#3489EF"/>
<path fill-rule="evenodd" clip-rule="evenodd" d="M0 5.66671C0 2.72119 2.38781 0.333374 5.33333 0.333374H18.6667C21.6122 0.333374 24 2.72119 24 5.66671C24 8.61223 21.6122 11 18.6667 11H5.33333C2.38781 11 0 8.61223 0 5.66671ZM2 5.66671C2 3.82576 3.49238 2.33337 5.33333 2.33337H18.6667C20.5076 2.33337 22 3.82576 22 5.66671C22 7.50766 20.5076 9.00004 18.6667 9.00004H5.33333C3.49238 9.00004 2 7.50766 2 5.66671Z" fill="#3489EF"/>
<path d="M15.6667 18.3334C15.6667 18.8857 15.219 19.3334 14.6667 19.3334H13.3333C12.781 19.3334 12.3333 18.8857 12.3333 18.3334C12.3333 17.7811 12.781 17.3334 13.3333 17.3334H14.6667C15.219 17.3334 15.6667 17.7811 15.6667 18.3334Z" fill="#3489EF"/>
<path d="M18.6667 17.3334C18.1144 17.3334 17.6667 17.7811 17.6667 18.3334C17.6667 18.8857 18.1144 19.3334 18.6667 19.3334H20C20.5523 19.3334 21 18.8857 21 18.3334C21 17.7811 20.5523 17.3334 20 17.3334H18.6667Z" fill="#3489EF"/>
<path fill-rule="evenodd" clip-rule="evenodd" d="M0 18.3334C0 15.3879 2.38781 13 5.33333 13H18.6667C21.6122 13 24 15.3879 24 18.3334C24 21.2789 21.6122 23.6667 18.6667 23.6667H5.33333C2.38781 23.6667 0 21.2789 0 18.3334ZM2 18.3334C2 16.4924 3.49238 15 5.33333 15H18.6667C20.5076 15 22 16.4924 22 18.3334C22 20.1743 20.5076 21.6667 18.6667 21.6667H5.33333C3.49238 21.6667 2 20.1743 2 18.3334Z" fill="#3489EF"/>
</svg>
