<svg width="18" height="19" viewBox="0 0 18 19" fill="none" xmlns="http://www.w3.org/2000/svg">
<path fill-rule="evenodd" clip-rule="evenodd" d="M3.5 0.75C5.29493 0.75 6.75 2.20507 6.75 4V5.75H11.25V4C11.25 2.20507 12.7051 0.75 14.5 0.75C16.2949 0.75 17.75 2.20507 17.75 4C17.75 5.79493 16.2949 7.25 14.5 7.25H12.75V11.75H14.5C16.2949 11.75 17.75 13.2051 17.75 15C17.75 16.7949 16.2949 18.25 14.5 18.25C12.7051 18.25 11.25 16.7949 11.25 15V13.25H6.75V15C6.75 16.7949 5.29493 18.25 3.5 18.25C1.70507 18.25 0.25 16.7949 0.25 15C0.25 13.2051 1.70507 11.75 3.5 11.75H5.25V7.25H3.5C1.70507 7.25 0.25 5.79493 0.25 4C0.25 2.20507 1.70507 0.75 3.5 0.75ZM1.75 4C1.75 3.0335 2.5335 2.25 3.5 2.25C4.4665 2.25 5.25 3.0335 5.25 4V5.75H3.5C2.5335 5.75 1.75 4.9665 1.75 4ZM16.25 4C16.25 4.9665 15.4665 5.75 14.5 5.75H12.75V4C12.75 3.0335 13.5335 2.25 14.5 2.25C15.4665 2.25 16.25 3.0335 16.25 4ZM14.5 16.75C13.5335 16.75 12.75 15.9665 12.75 15V13.25H14.5C15.4665 13.25 16.25 14.0335 16.25 15C16.25 15.9665 15.4665 16.75 14.5 16.75ZM1.75 15C1.75 14.0335 2.5335 13.25 3.5 13.25H5.25V15C5.25 15.9665 4.4665 16.75 3.5 16.75C2.5335 16.75 1.75 15.9665 1.75 15ZM6.75 11.75V7.25H11.25V11.75H6.75Z" fill="#3489EF"/>
</svg>
