<svg width="20" height="20" viewBox="0 0 20 20" fill="none" xmlns="http://www.w3.org/2000/svg">
<path d="M10 1.75C5.44365 1.75 1.75 5.44365 1.75 10V15C1.75 15.4142 1.41421 15.75 1 15.75C0.585786 15.75 0.25 15.4142 0.25 15V10C0.25 4.61522 4.61522 0.25 10 0.25C15.3848 0.25 19.75 4.61522 19.75 10V19C19.75 19.4142 19.4142 19.75 19 19.75C18.5858 19.75 18.25 19.4142 18.25 19V10C18.25 5.44365 14.5563 1.75 10 1.75Z" fill="#3489EF"/>
<path d="M8 6.25C6.20507 6.25 4.75 7.70507 4.75 9.5V12C4.75 12.4142 4.41421 12.75 4 12.75C3.58579 12.75 3.25 12.4142 3.25 12V9.5C3.25 6.87665 5.37665 4.75 8 4.75C8.41421 4.75 8.75 5.08579 8.75 5.5C8.75 5.91421 8.41421 6.25 8 6.25Z" fill="#3489EF"/>
<path d="M9.25 4C9.25 3.58579 9.58579 3.25 10 3.25C13.7279 3.25 16.75 6.27208 16.75 10V10.5C16.75 10.9142 16.4142 11.25 16 11.25C15.5858 11.25 15.25 10.9142 15.25 10.5V10C15.25 7.1005 12.8995 4.75 10 4.75C9.58579 4.75 9.25 4.41421 9.25 4Z" fill="#3489EF"/>
<path d="M9.2621 7.86584C9.33619 7.4583 9.72663 7.188 10.1342 7.2621C11.199 7.4557 12.6473 8.12201 13.484 9.54483C14.3431 11.0058 14.4472 13.0708 13.181 15.8143C13.0074 16.1904 12.5618 16.3545 12.1857 16.181C11.8096 16.0074 11.6455 15.5618 11.819 15.1857C12.9528 12.7292 12.7235 11.2108 12.191 10.3052C11.636 9.36132 10.6344 8.87764 9.86584 8.7379C9.4583 8.66381 9.188 8.27337 9.2621 7.86584Z" fill="#3489EF"/>
<path d="M10 12.25C10.4142 12.25 10.75 12.5858 10.75 13V16C10.75 16.4142 10.4142 16.75 10 16.75C9.58579 16.75 9.25 16.4142 9.25 16V13C9.25 12.5858 9.58579 12.25 10 12.25Z" fill="#3489EF"/>
<path d="M16 13.25C16.4142 13.25 16.75 13.5858 16.75 14V17C16.75 17.4142 16.4142 17.75 16 17.75C15.5858 17.75 15.25 17.4142 15.25 17V14C15.25 13.5858 15.5858 13.25 16 13.25Z" fill="#3489EF"/>
<path d="M4 14.25C4.41421 14.25 4.75 14.5858 4.75 15V18C4.75 18.4142 4.41421 18.75 4 18.75C3.58579 18.75 3.25 18.4142 3.25 18V15C3.25 14.5858 3.58579 14.25 4 14.25Z" fill="#3489EF"/>
<path d="M7.23251 13.1788C7.2406 13.2856 7.25001 13.4098 7.25001 13.5C7.25001 13.9142 6.91423 14.25 6.50001 14.25C6.0858 14.25 5.75001 13.9138 5.75001 13.4996L5.75 13.4984L5.74991 13.4941L5.74935 13.4786C5.74876 13.4651 5.74782 13.448 5.74643 13.4263C5.74375 13.3847 5.74005 13.3355 5.73545 13.2742L5.73455 13.2623C5.72476 13.1321 5.71225 12.9638 5.70388 12.7755C5.68731 12.4028 5.68542 11.925 5.75873 11.4485C5.83052 10.9819 5.98529 10.4408 6.33932 10.0042C6.72152 9.53284 7.28263 9.25 8.00001 9.25C8.41423 9.25 8.75001 9.58579 8.75001 10C8.75001 10.4142 8.41423 10.75 8.00001 10.75C7.71739 10.75 7.59101 10.8422 7.50446 10.9489C7.38973 11.0904 7.29451 11.3306 7.24129 11.6765C7.18961 12.0125 7.18771 12.3785 7.2024 12.7089C7.20965 12.8721 7.22058 13.0203 7.23032 13.1498L7.23251 13.1788Z" fill="#3489EF"/>
</svg>
