<svg width="16" height="21" viewBox="0 0 16 21" fill="none" xmlns="http://www.w3.org/2000/svg">
<path d="M1.99963 6.5C1.99963 3.18629 4.68593 0.5 7.99963 0.5C11.3133 0.5 13.9996 3.18629 13.9996 6.5V10.5C13.9996 13.8137 11.3133 16.5 7.99963 16.5C4.68593 16.5 1.99963 13.8137 1.99963 10.5V6.5Z" fill="#3389EE"/>
<path d="M8.74885 18.4654C8.74937 18.4769 8.74963 18.4884 8.74963 18.5V19.5C8.74963 19.9142 8.41385 20.25 7.99963 20.25C7.58542 20.25 7.24963 19.9142 7.24963 19.5V18.5C7.24963 18.4884 7.2499 18.4769 7.25042 18.4654C3.43011 18.1106 0.389066 15.0696 0.0342046 11.2493C-0.00410619 10.8369 0.335363 10.5 0.749576 10.5C1.16379 10.5 1.49504 10.8372 1.54223 11.2487C1.91351 14.4859 4.66295 17 7.99958 17C11.3362 17 14.0856 14.4859 14.4569 11.2487C14.5041 10.8372 14.8354 10.5 15.2496 10.5C15.6638 10.5 16.0033 10.8369 15.9649 11.2493C15.6101 15.0695 12.5691 18.1105 8.74885 18.4654Z" fill="#3389EE"/>
</svg>
