<svg width="20" height="20" viewBox="0 0 20 20" fill="none" xmlns="http://www.w3.org/2000/svg">
<path d="M12.8926 14.3435C9.05978 14.3435 5.94148 11.2258 5.94043 7.395C5.94148 6.42393 6.7326 5.63428 7.70208 5.63428C7.80176 5.63428 7.90038 5.64267 7.99481 5.65944C8.20255 5.69405 8.39982 5.76431 8.58133 5.87023C8.60756 5.88596 8.6254 5.91113 8.62959 5.94049L9.03459 8.4919C9.03984 8.52127 9.0304 8.55168 9.01046 8.5737C8.78698 8.82119 8.50159 8.99946 8.18367 9.0886L8.03049 9.1316L8.08819 9.27946C8.6107 10.6092 9.67462 11.6715 11.0061 12.1958L11.154 12.2545L11.197 12.1014C11.2862 11.7837 11.4646 11.4984 11.7122 11.2751C11.7301 11.2583 11.7542 11.2499 11.7783 11.2499C11.7836 11.2499 11.7888 11.2499 11.7951 11.251L14.3479 11.6557C14.3783 11.661 14.4035 11.6778 14.4192 11.704C14.5241 11.8854 14.5944 12.0836 14.6301 12.2912C14.6469 12.3835 14.6542 12.481 14.6542 12.5828C14.6542 13.5528 13.8642 14.3424 12.8926 14.3435Z" fill="white"/>
<path d="M19.6891 9.12548C19.4824 6.79114 18.4121 4.62563 16.6757 3.02851C14.9287 1.42194 12.6624 0.536865 10.2922 0.536865C5.09013 0.536865 0.857567 4.7672 0.857567 9.96651C0.857567 11.7115 1.33915 13.4114 2.25093 14.8921L0.217529 19.3909L6.72797 18.6977C7.86009 19.1612 9.0583 19.3962 10.2911 19.3962C10.6153 19.3962 10.948 19.3794 11.2816 19.3448C11.5754 19.3133 11.8723 19.2672 12.164 19.2084C16.5204 18.3286 19.7006 14.4643 19.7258 10.0168V9.96651C19.7258 9.68337 19.7132 9.40022 19.688 9.12652L19.6891 9.12548ZM6.97874 16.7231L3.37676 17.1069L4.45221 14.7254L4.23712 14.437C4.22138 14.416 4.20564 14.395 4.18781 14.3709C3.254 13.0821 2.76085 11.5594 2.76085 9.96756C2.76085 5.81692 6.13936 2.4402 10.2922 2.4402C14.1827 2.4402 17.4804 5.47401 17.7983 9.34674C17.8151 9.55438 17.8246 9.76307 17.8246 9.96861C17.8246 10.0273 17.8235 10.085 17.8225 10.1469C17.7427 13.619 15.3159 16.5679 11.9206 17.3187C11.6614 17.3764 11.396 17.4205 11.1316 17.4488C10.8567 17.4802 10.5744 17.496 10.2943 17.496C9.29648 17.496 8.32699 17.303 7.41102 16.9213C7.30925 16.8804 7.20956 16.8363 7.11618 16.7913L6.97979 16.7252L6.97874 16.7231Z" fill="white"/>
</svg>
