<svg width="20" height="14" viewBox="0 0 20 14" fill="none" xmlns="http://www.w3.org/2000/svg">
<path d="M19.8462 3.87371C19.7287 2.7401 19.4758 1.48694 18.5451 0.828374C17.8243 0.317672 16.8769 0.298791 15.9924 0.29984C14.1227 0.29984 12.2519 0.30299 10.3822 0.304039C8.5838 0.306136 6.78543 0.307184 4.98705 0.309281C4.23581 0.309281 3.50555 0.251603 2.80781 0.576691C2.2087 0.855637 1.7397 1.38627 1.45746 1.97667C1.0661 2.79778 0.984264 3.72795 0.937049 4.6361C0.849963 6.28985 0.859406 7.94779 0.963279 9.6005C1.03987 10.8065 1.23398 12.1393 2.16674 12.908C2.99353 13.5886 4.16026 13.6222 5.23257 13.6232C8.63626 13.6263 12.041 13.6295 15.4457 13.6316C15.8822 13.6326 16.3376 13.6242 16.7824 13.576C17.6575 13.4816 18.4916 13.231 19.054 12.5829C19.6216 11.9296 19.7675 11.0204 19.8535 10.1594C20.0634 8.07049 20.0613 5.96161 19.8462 3.87371ZM8.41383 9.89413V4.0373L13.4879 6.96519L8.41383 9.89413Z" fill="white"/>
</svg>
