<svg width="24" height="24" viewBox="0 0 24 24" fill="none" xmlns="http://www.w3.org/2000/svg">
<path d="M14.3862 4.86293C14.6916 4.58303 14.7122 4.10861 14.4323 3.80327C14.1524 3.49793 13.678 3.4773 13.3726 3.7572L4.86728 11.5538C2.66272 13.5746 2.65669 17.0482 4.85422 19.0767C6.84029 20.91 9.91042 20.88 11.8602 19.0081L19.8467 11.3411C21.0047 10.2295 21.0933 8.40714 20.0486 7.18839C18.9014 5.84989 16.8574 5.7714 15.6109 7.01795L9.84909 12.7797C9.5562 13.0726 9.5562 13.5475 9.84909 13.8404C10.142 14.1333 10.6169 14.1333 10.9097 13.8404L16.6715 8.07861C17.3002 7.4499 18.3311 7.48949 18.9098 8.16457C19.4366 8.77926 19.3919 9.69838 18.8079 10.259L10.8214 17.9261C9.44388 19.2485 7.27481 19.2697 5.87164 17.9745C4.31907 16.5414 4.32333 14.0872 5.88087 12.6595L14.3862 4.86293Z" fill="white"/>
</svg>
