<svg width="20" height="20" viewBox="0 0 20 20" fill="none" xmlns="http://www.w3.org/2000/svg">
<path fill-rule="evenodd" clip-rule="evenodd" d="M14 4C14.75 4 14.75 3.9995 14.75 3.99899L14.75 3.9979L14.75 3.99552L14.7499 3.98989L14.7497 3.97527C14.7495 3.96405 14.749 3.9499 14.7483 3.93301C14.7468 3.89925 14.744 3.85439 14.7388 3.79999C14.7285 3.69144 14.7085 3.54331 14.6696 3.36855C14.5924 3.02096 14.4375 2.55416 14.124 2.08397C13.4679 1.09982 12.2185 0.25 10 0.25C7.78153 0.25 6.53207 1.09982 5.87597 2.08397C5.56251 2.55416 5.40761 3.02096 5.33037 3.36855C5.29153 3.54331 5.27153 3.69144 5.2612 3.79999C5.25601 3.85439 5.25322 3.89925 5.25172 3.93301C5.25097 3.9499 5.25054 3.96405 5.2503 3.97527L5.25006 3.98989L5.25002 3.99552L5.25001 3.9979L5.25001 3.99899C5.25001 3.9995 5.25001 4 6.00001 4H3.83845C2.20051 4 0.802644 5.18417 0.533369 6.79982C0.236059 8.58368 1.40798 10.2816 3.18133 10.6363L9.21554 11.8431C9.73339 11.9467 10.2666 11.9467 10.7845 11.8431L16.8187 10.6363C18.592 10.2816 19.764 8.58368 19.4666 6.79982C19.1974 5.18417 17.7995 4 16.1616 4H14ZM13.2498 4H6.75023C6.75068 3.98981 6.75181 3.96983 6.75444 3.9422C6.75973 3.88668 6.77098 3.80044 6.79465 3.69395C6.8424 3.47904 6.9375 3.19584 7.12404 2.91603C7.46794 2.40018 8.21849 1.75 10 1.75C11.7815 1.75 12.5321 2.40018 12.876 2.91603C13.0625 3.19584 13.1576 3.47904 13.2054 3.69395C13.229 3.80044 13.2403 3.88668 13.2456 3.9422C13.2482 3.96983 13.2493 3.98981 13.2498 4ZM9.50971 10.3722L3.4755 9.16539C2.49603 8.9695 1.84875 8.03169 2.01296 7.04642C2.16169 6.15405 2.93377 5.5 3.83845 5.5H16.1616C17.0662 5.5 17.8383 6.15405 17.9871 7.04642C18.1513 8.03169 17.504 8.9695 16.5245 9.16539L10.4903 10.3722C10.1666 10.437 9.83337 10.437 9.50971 10.3722Z" fill="#3489EF"/>
<path d="M10.75 13C10.75 12.5858 10.4142 12.25 10 12.25C9.58579 12.25 9.25001 12.5858 9.25001 13V15C9.25001 15.4142 9.58579 15.75 10 15.75C10.4142 15.75 10.75 15.4142 10.75 15V13Z" fill="#3489EF"/>
<path d="M18.7425 12.1061C18.801 11.696 18.5161 11.3161 18.1061 11.2575C17.696 11.199 17.3161 11.4839 17.2575 11.8939L16.7482 15.4596C16.5194 17.0607 15.1482 18.25 13.5308 18.25H6.46919C4.85182 18.25 3.48058 17.0607 3.25185 15.4596L2.74247 11.8939C2.68389 11.4839 2.30399 11.199 1.89394 11.2575C1.48389 11.3161 1.19896 11.696 1.25754 12.1061L1.76693 15.6718C2.10122 18.0118 4.10535 19.75 6.46919 19.75H13.5308C15.8947 19.75 17.8988 18.0118 18.2331 15.6718L18.7425 12.1061Z" fill="#3489EF"/>
</svg>
