<svg width="18" height="16" viewBox="0 0 18 16" fill="none" xmlns="http://www.w3.org/2000/svg">
<path fill-rule="evenodd" clip-rule="evenodd" d="M9.41675 0.5C8.72639 0.5 8.16675 1.05964 8.16675 1.75V14.25C8.16675 14.9404 8.72639 15.5 9.41675 15.5H11.0834C11.7738 15.5 12.3334 14.9404 12.3334 14.25V1.75C12.3334 1.05964 11.7738 0.5 11.0834 0.5H9.41675ZM11.0834 1.75L9.41675 1.75V14.25H11.0834V1.75Z" fill="#224982"/>
<path fill-rule="evenodd" clip-rule="evenodd" d="M5.47582 0.542903C4.80899 0.364226 4.12357 0.759954 3.94489 1.42679L0.709651 13.5009C0.530974 14.1677 0.926702 14.8531 1.59353 15.0318L3.20341 15.4632C3.87024 15.6418 4.55566 15.2461 4.73434 14.5793L7.96958 2.5052C8.14826 1.83837 7.75253 1.15295 7.0857 0.974268L5.47582 0.542903ZM6.76217 2.18168L5.1523 1.75031L1.91706 13.8244L3.52693 14.2557L6.76217 2.18168Z" fill="#224982"/>
<path fill-rule="evenodd" clip-rule="evenodd" d="M13.1667 1.75C13.1667 1.05964 13.7264 0.5 14.4167 0.5H16.0834C16.7738 0.5 17.3334 1.05964 17.3334 1.75V14.25C17.3334 14.9404 16.7738 15.5 16.0834 15.5H14.4167C13.7264 15.5 13.1667 14.9404 13.1667 14.25V1.75ZM14.4167 1.75L16.0834 1.75V14.25H14.4167V1.75Z" fill="#224982"/>
</svg>
