<svg width="13" height="16" viewBox="0 0 13 16" fill="none" xmlns="http://www.w3.org/2000/svg">
<path fill-rule="evenodd" clip-rule="evenodd" d="M0 3.66694C0 2.03102 1.24721 0.704834 2.78571 0.704834H10.2143C11.7528 0.704834 13 2.03102 13 3.66695V13.2609C13 14.3106 12.5554 15.1822 11.7921 15.5415C11.0184 15.9058 10.1224 15.6485 9.42168 14.8911C9.086 14.5283 8.70932 14.1162 8.28682 13.6483C7.31373 12.5705 5.68627 12.5705 4.71319 13.6483C4.29068 14.1162 3.914 14.5283 3.57832 14.8911C2.87761 15.6485 1.9816 15.9058 1.20792 15.5415C0.444645 15.1822 0 14.3106 0 13.2609V3.66694Z" fill="#224982"/>
</svg>
