<svg width="16" height="17" viewBox="0 0 16 17" fill="none" xmlns="http://www.w3.org/2000/svg">
<path fill-rule="evenodd" clip-rule="evenodd" d="M3.83337 1.82983C2.79784 1.82983 1.95837 2.6693 1.95837 3.70483V13.8264C1.95837 14.5775 2.27972 14.9612 2.56946 15.0894C2.84751 15.2125 3.31416 15.1955 3.83139 14.6696C4.20405 14.2908 4.62307 13.8597 5.0939 13.3693C6.67745 11.7199 9.32263 11.7199 10.9062 13.3693C11.377 13.8597 11.796 14.2908 12.1687 14.6696C12.6859 15.1954 13.1526 15.2125 13.4306 15.0894C13.7204 14.9612 14.0417 14.5775 14.0417 13.8264V3.70483C14.0417 2.6693 13.2022 1.82983 12.1667 1.82983H3.83337ZM0.708374 3.70483C0.708374 1.97894 2.10748 0.579834 3.83337 0.579834H12.1667C13.8926 0.579834 15.2917 1.97894 15.2917 3.70483V13.8264C15.2917 14.9338 14.7929 15.8533 13.9367 16.2324C13.0688 16.6167 12.0636 16.3453 11.2776 15.5462C10.901 15.1634 10.4784 14.7287 10.0045 14.235C8.91288 13.098 7.08721 13.098 5.9956 14.235C5.52164 14.7287 5.09908 15.1634 4.72251 15.5462C3.93646 16.3453 2.93132 16.6167 2.06341 16.2324C1.20717 15.8533 0.708374 14.9338 0.708374 13.8264V3.70483Z" fill="#224982"/>
</svg>
