<svg width="18" height="18" viewBox="0 0 18 18" fill="none" xmlns="http://www.w3.org/2000/svg">
<path fill-rule="evenodd" clip-rule="evenodd" d="M6.91675 9.83342C8.52758 9.83342 9.83342 8.52758 9.83342 6.91675C9.83342 5.30592 8.52758 4.00008 6.91675 4.00008C5.30592 4.00008 4.00008 5.30592 4.00008 6.91675C4.00008 8.52758 5.30592 9.83342 6.91675 9.83342ZM6.91675 8.58342C7.83722 8.58342 8.58342 7.83722 8.58342 6.91675C8.58342 5.99627 7.83722 5.25008 6.91675 5.25008C5.99627 5.25008 5.25008 5.99627 5.25008 6.91675C5.25008 7.83722 5.99627 8.58342 6.91675 8.58342Z" fill="#224982"/>
<path d="M10.2754 13.6087L13.6087 10.2754C13.8528 10.0313 13.8528 9.63555 13.6087 9.39147C13.3646 9.1474 12.9689 9.1474 12.7248 9.39147L9.39147 12.7248C9.1474 12.9689 9.1474 13.3646 9.39147 13.6087C9.63555 13.8528 10.0313 13.8528 10.2754 13.6087Z" fill="#224982"/>
<path fill-rule="evenodd" clip-rule="evenodd" d="M4.3 0.666748H8.66516C9.66283 0.666748 10.6166 1.07717 11.3027 1.80174L16.3377 7.11871C17.7164 8.5746 17.6559 10.8725 16.2026 12.2538L11.9096 16.3338C10.4534 17.7178 8.15098 17.6572 6.76961 16.1984L1.66243 10.8052C1.02309 10.1301 0.666748 9.23541 0.666748 8.30539V4.30155C0.666748 2.29411 2.29341 0.666748 4.3 0.666748ZM8.66516 1.91675H4.3C2.98427 1.91675 1.91675 2.98396 1.91675 4.30155V8.30539C1.91675 8.91574 2.15061 9.50278 2.57006 9.94572L7.67723 15.3389C8.58334 16.2958 10.0933 16.3355 11.0485 15.4278L15.3414 11.3477C16.295 10.4414 16.3347 8.93348 15.4301 7.9782L10.3951 2.66122C9.94498 2.18589 9.31941 1.91675 8.66516 1.91675Z" fill="#224982"/>
</svg>
