<svg width="8" height="15" viewBox="0 0 8 15" fill="none" xmlns="http://www.w3.org/2000/svg">
<path fill-rule="evenodd" clip-rule="evenodd" d="M4.5625 1.5C4.5625 1.18934 4.31066 0.9375 4 0.9375C3.68934 0.9375 3.4375 1.18934 3.4375 1.5V2.4375H3.25C1.6967 2.4375 0.4375 3.6967 0.4375 5.25C0.4375 6.8033 1.6967 8.0625 3.25 8.0625H3.4375V11.4331C2.39044 11.3642 1.5625 10.4931 1.5625 9.42857C1.5625 9.11791 1.31066 8.86607 1 8.86607C0.68934 8.86607 0.4375 9.11791 0.4375 9.42857C0.4375 11.1145 1.7688 12.4895 3.4375 12.5597V13.5C3.4375 13.8107 3.68934 14.0625 4 14.0625C4.31066 14.0625 4.5625 13.8107 4.5625 13.5V12.5625H4.75C6.3033 12.5625 7.5625 11.3033 7.5625 9.75C7.5625 8.1967 6.3033 6.9375 4.75 6.9375H4.5625V3.56689C5.60956 3.63581 6.4375 4.50693 6.4375 5.57143C6.4375 5.88209 6.68934 6.13393 7 6.13393C7.31066 6.13393 7.5625 5.88209 7.5625 5.57143C7.5625 3.88548 6.2312 2.51047 4.5625 2.44031V1.5ZM3.4375 3.5625H3.25C2.31802 3.5625 1.5625 4.31802 1.5625 5.25C1.5625 6.18198 2.31802 6.9375 3.25 6.9375H3.4375V3.5625ZM4.5625 8.0625V11.4375H4.75C5.68198 11.4375 6.4375 10.682 6.4375 9.75C6.4375 8.81802 5.68198 8.0625 4.75 8.0625H4.5625Z" fill="#0A090A"/>
</svg>
