<svg width="22" height="22" viewBox="0 0 22 22" fill="none" xmlns="http://www.w3.org/2000/svg">
<path fill-rule="evenodd" clip-rule="evenodd" d="M3.01849 14.3982L12.375 5.04168C13.6407 3.77602 15.6927 3.77602 16.9583 5.04168C18.224 6.30733 18.224 8.35936 16.9583 9.62501L7.60182 18.9815C7.42991 19.1534 7.19675 19.25 6.95364 19.25H3.66667C3.16041 19.25 2.75 18.8396 2.75 18.3333V15.0464C2.75 14.8033 2.84658 14.5701 3.01849 14.3982ZM15.9861 8.65274L6.76379 17.875H4.125V15.2362L13.3473 6.01395C14.076 5.28527 15.2574 5.28527 15.9861 6.01395C16.7147 6.74263 16.7147 7.92406 15.9861 8.65274Z" fill="white"/>
</svg>
