<svg width="78" height="79" viewBox="0 0 78 79" fill="none" xmlns="http://www.w3.org/2000/svg">
<path d="M42.3079 23.5336C42.3476 21.663 40.8584 20.125 39.0076 20.125C37.1576 20.125 35.6687 21.6617 35.7072 23.5314L36.1362 44.3577C36.1687 45.9335 37.4417 47.1938 39.0009 47.1938C40.5593 47.1938 41.832 45.9347 41.8655 44.3596L42.3079 23.5336Z" fill="#3AC0E5"/>
<path d="M36.2818 57.6769C37.0368 58.4756 37.9429 58.875 39 58.875C39.6969 58.875 40.33 58.694 40.8992 58.3321C41.48 57.9577 41.9447 57.4585 42.2931 56.8345C42.6532 56.2105 42.8333 55.5179 42.8333 54.7566C42.8333 53.6335 42.45 52.6725 41.6833 51.8738C40.9282 51.0751 40.0338 50.6757 39 50.6757C37.9429 50.6757 37.0368 51.0751 36.2818 51.8738C35.5383 52.6725 35.1666 53.6335 35.1666 54.7566C35.1666 55.9048 35.5383 56.8782 36.2818 57.6769Z" fill="#3AC0E5"/>
<path fill-rule="evenodd" clip-rule="evenodd" d="M77.3333 39.5C77.3333 60.901 60.1709 78.25 39 78.25C17.829 78.25 0.666626 60.901 0.666626 39.5C0.666626 18.099 17.829 0.75 39 0.75C60.1709 0.75 77.3333 18.099 77.3333 39.5ZM71.5833 39.5C71.5833 57.6909 56.9952 72.4375 39 72.4375C21.0047 72.4375 6.41663 57.6909 6.41663 39.5C6.41663 21.3091 21.0047 6.5625 39 6.5625C56.9952 6.5625 71.5833 21.3091 71.5833 39.5Z" fill="#3AC0E5"/>
</svg>
