<svg width="18" height="18" viewBox="0 0 18 18" fill="none" xmlns="http://www.w3.org/2000/svg">
<path fill-rule="evenodd" clip-rule="evenodd" d="M17.3334 8.99984C17.3334 13.6022 13.6025 17.3332 9.00008 17.3332C4.39771 17.3332 0.666748 13.6022 0.666748 8.99984C0.666748 4.39746 4.39771 0.666504 9.00008 0.666504C13.6025 0.666504 17.3334 4.39746 17.3334 8.99984ZM1.91675 8.99984C1.91675 8.36924 1.99915 7.75788 2.15378 7.17595L2.47159 7.10948L2.5041 7.10279C2.53299 7.09688 2.5761 7.08813 2.63215 7.07694C2.74426 7.05456 2.90805 7.02245 3.11323 6.98386C3.40494 6.92899 3.77982 6.8611 4.20841 6.78946V11.2102C3.77982 11.1386 3.40494 11.0707 3.11323 11.0158C2.90805 10.9772 2.74426 10.9451 2.63215 10.9227C2.5761 10.9115 2.53299 10.9028 2.5041 10.8969L2.47159 10.8902L2.15378 10.8237C1.99915 10.2418 1.91675 9.63044 1.91675 8.99984ZM2.88216 5.7554C3.22655 5.69062 3.68387 5.60817 4.20841 5.52251V3.78312C3.58731 4.35393 3.06842 5.03422 2.68234 5.7934C2.74382 5.78158 2.81057 5.76887 2.88216 5.7554ZM8.37508 11.6942C7.4451 11.6551 6.40775 11.5382 5.45841 11.4037V6.59598C6.40775 6.46144 7.4451 6.34457 8.37508 6.30544V11.6942ZM5.45841 5.3338C6.3987 5.20416 7.43118 5.09158 8.37508 5.05444V1.9437C7.31946 2.03599 6.33021 2.35982 5.45841 2.86413V5.3338ZM12.5417 11.4037C11.5924 11.5382 10.5551 11.6551 9.62508 11.6942V6.30544C10.5551 6.34457 11.5924 6.46144 12.5417 6.59598V11.4037ZM9.62508 5.05444C10.569 5.09158 11.6015 5.20416 12.5417 5.3338V2.86413C11.67 2.35982 10.6807 2.03599 9.62508 1.9437V5.05444ZM14.8869 11.0158C14.5952 11.0707 14.2203 11.1386 13.7917 11.2102V6.78946C14.2203 6.8611 14.5952 6.92899 14.8869 6.98386C15.0921 7.02245 15.2559 7.05456 15.368 7.07694C15.4241 7.08813 15.4672 7.09688 15.4961 7.10279L15.5286 7.10948L15.5365 7.11112L15.8464 7.17595C16.001 7.75788 16.0834 8.36924 16.0834 8.99984C16.0834 9.63044 16.001 10.2418 15.8464 10.8237L15.5286 10.8902L15.4961 10.8969C15.4672 10.9028 15.4241 10.9115 15.368 10.9227C15.2559 10.9451 15.0921 10.9772 14.8869 11.0158ZM15.118 5.7554C15.1896 5.76887 15.2563 5.78158 15.3178 5.7934C14.9317 5.03422 14.4129 4.35393 13.7917 3.78312V5.52251C14.3163 5.60817 14.7736 5.69062 15.118 5.7554ZM13.7917 14.2166C14.4129 13.6457 14.9317 12.9655 15.3178 12.2063C15.2563 12.2181 15.1896 12.2308 15.118 12.2443C14.7736 12.3091 14.3163 12.3915 13.7917 12.4772V14.2166ZM9.62508 12.9452C10.569 12.9081 11.6015 12.7955 12.5417 12.6659V14.8332C12.5417 14.9288 12.5632 15.0195 12.6016 15.1005C11.7154 15.6249 10.705 15.9616 9.62508 16.056V12.9452ZM5.45841 12.6659C6.3987 12.7955 7.43118 12.9081 8.37508 12.9452V16.056C7.29521 15.9616 6.28479 15.6249 5.39852 15.1005C5.43693 15.0195 5.45841 14.9288 5.45841 14.8332V12.6659ZM2.88216 12.2443C3.22655 12.3091 3.68387 12.3915 4.20841 12.4772V14.2166C3.58731 13.6457 3.06842 12.9655 2.68234 12.2063C2.74382 12.2181 2.81057 12.2308 2.88216 12.2443Z" fill="#224982"/>
</svg>
