<svg width="20" height="20" viewBox="0 0 20 20" fill="none" xmlns="http://www.w3.org/2000/svg">
<g clip-path="url(#clip0_676_13723)">
<path d="M19.9291 10.2595C19.9291 9.5135 19.8645 8.96913 19.7246 8.4046H10.6284V11.7716H15.9677C15.8601 12.6084 15.2788 13.8685 13.987 14.7152L13.9689 14.828L16.8449 16.9145L17.0442 16.9331C18.8742 15.3504 19.9291 13.0217 19.9291 10.2595Z" fill="#4285F4"/>
<path d="M10.628 19.1308C13.2438 19.1308 15.4398 18.3243 17.0438 16.9331L13.9866 14.7152C13.1685 15.2495 12.0704 15.6225 10.628 15.6225C8.06602 15.6225 5.89156 14.0399 5.11643 11.8523L5.00281 11.8613L2.01225 14.0288L1.97314 14.1306C3.56631 17.0944 6.83879 19.1308 10.628 19.1308Z" fill="#34A853"/>
<path d="M5.11662 11.8523C4.91209 11.2878 4.79373 10.6829 4.79373 10.0579C4.79373 9.43281 4.91209 8.82797 5.10586 8.26344L5.10044 8.14321L2.0724 5.94098L1.97333 5.98511C1.31671 7.21501 0.939941 8.59613 0.939941 10.0579C0.939941 11.5196 1.31671 12.9007 1.97333 14.1306L5.11662 11.8523Z" fill="#FBBC05"/>
<path d="M10.628 4.49314C12.4472 4.49314 13.6744 5.22905 14.3741 5.84404L17.1084 3.34394C15.4291 1.8822 13.2438 0.984985 10.628 0.984985C6.8388 0.984985 3.56631 3.02133 1.97314 5.98512L5.10567 8.26345C5.89157 6.07588 8.06603 4.49314 10.628 4.49314Z" fill="#EB4335"/>
</g>
<defs>
<clipPath id="clip0_676_13723">
<rect width="19" height="18.2083" fill="white" transform="translate(0.938965 0.984985)"/>
</clipPath>
</defs>
</svg>
