<svg width="17" height="17" viewBox="0 0 17 17" fill="none" xmlns="http://www.w3.org/2000/svg">
<path fill-rule="evenodd" clip-rule="evenodd" d="M1.55377 5.22369L6.41778 1.33249C7.63518 0.358571 9.36502 0.358572 10.5824 1.33249L15.4464 5.22369C16.3134 5.91727 16.7781 6.99698 16.6859 8.10341L16.1275 14.805C16.0555 15.6689 15.3334 16.3333 14.4665 16.3333H11.2291C10.0915 16.3333 9.28826 15.2188 9.648 14.1396L9.85874 13.5074C10.2153 12.4378 9.41917 11.3333 8.29176 11.3333C7.16436 11.3333 6.36827 12.4378 6.72479 13.5074L6.93553 14.1396C7.29527 15.2188 6.49198 16.3333 5.35439 16.3333H2.53365C1.66684 16.3333 0.944727 15.6689 0.872742 14.805L0.314272 8.10341C0.22207 6.99698 0.686804 5.91727 1.55377 5.22369ZM2.33464 6.19978L7.19865 2.30857C7.95952 1.69988 9.04067 1.69988 9.80155 2.30857L14.6656 6.19978C15.2074 6.63326 15.4979 7.30808 15.4402 7.9996L14.8818 14.7012C14.8638 14.9172 14.6832 15.0833 14.4665 15.0833H11.2291C10.9447 15.0833 10.7439 14.8047 10.8339 14.5349L11.0446 13.9027C11.6709 12.0237 10.2724 10.0833 8.29176 10.0833C6.31116 10.0833 4.91261 12.0237 5.53893 13.9027L5.74967 14.5349C5.83961 14.8047 5.63879 15.0833 5.35439 15.0833H2.53365C2.31695 15.0833 2.13642 14.9172 2.11842 14.7012L1.55995 7.9996C1.50233 7.30808 1.79279 6.63326 2.33464 6.19978Z" fill="#4F4F4F"/>
</svg>
