<svg width="17" height="16" viewBox="0 0 17 16" fill="none" xmlns="http://www.w3.org/2000/svg">
<path d="M12.4049 0.339874H4.28566C2.04258 0.339874 0.217773 2.16522 0.217773 4.40896V11.8391C0.217773 14.0828 2.04258 15.9082 4.28566 15.9082H12.4049C14.648 15.9082 16.4728 14.0828 16.4728 11.8391V4.40896C16.4728 2.16522 14.648 0.339874 12.4049 0.339874ZM1.6528 4.40896C1.6528 2.95697 2.83409 1.77532 4.28566 1.77532H12.4049C13.8565 1.77532 15.0378 2.95697 15.0378 4.40896V11.8391C15.0378 13.2911 13.8565 14.4727 12.4049 14.4727H4.28566C2.83409 14.4727 1.6528 13.2911 1.6528 11.8391V4.40896Z" fill="white"/>
<path d="M8.34536 11.9081C10.4312 11.9081 12.1292 10.2106 12.1292 8.12317C12.1292 6.03575 10.4322 4.33823 8.34536 4.33823C6.25855 4.33823 4.56152 6.03575 4.56152 8.12317C4.56152 10.2106 6.25855 11.9081 8.34536 11.9081ZM8.34536 5.77459C9.64065 5.77459 10.6942 6.82842 10.6942 8.12409C10.6942 9.41976 9.64065 10.4736 8.34536 10.4736C7.05007 10.4736 5.99655 9.41976 5.99655 8.12409C5.99655 6.82842 7.05007 5.77459 8.34536 5.77459Z" fill="white"/>
<path d="M12.4795 4.94982C13.0411 4.94982 13.499 4.4928 13.499 3.93002C13.499 3.36725 13.0421 2.91022 12.4795 2.91022C11.9168 2.91022 11.46 3.36725 11.46 3.93002C11.46 4.4928 11.9168 4.94982 12.4795 4.94982Z" fill="white"/>
</svg>
