<svg width="18" height="17" viewBox="0 0 18 17" fill="none" xmlns="http://www.w3.org/2000/svg">
<path fill-rule="evenodd" clip-rule="evenodd" d="M15.2749 1.50008C15.2749 1.21243 15.0417 0.979248 14.7541 0.979248C14.4664 0.979248 14.2332 1.21243 14.2332 1.50008V1.50452C13.3415 1.59634 12.6459 2.34992 12.6459 3.26595C12.6459 4.18199 13.3415 4.93557 14.2332 5.02739V6.42002C13.9121 6.28017 13.6876 5.96 13.6876 5.58738C13.6876 5.29973 13.4544 5.06655 13.1667 5.06655C12.8791 5.06655 12.6459 5.29973 12.6459 5.58738C12.6459 6.54028 13.3296 7.33349 14.2332 7.50322V7.53183C14.2332 7.81947 14.4664 8.05266 14.7541 8.05266C15.0401 8.05266 15.2723 7.82206 15.2749 7.53662C16.2414 7.52336 17.0209 6.73568 17.0209 5.76595C17.0209 4.79623 16.2415 4.00856 15.2749 3.99529V2.55966C15.6783 2.652 15.9792 3.01311 15.9792 3.44453C15.9792 3.73217 16.2124 3.96536 16.5001 3.96536C16.7877 3.96536 17.0209 3.73217 17.0209 3.44453C17.0209 2.43658 16.2559 1.6073 15.2749 1.5056V1.50008ZM13.6876 3.26595C13.6876 2.92664 13.9194 2.64146 14.2332 2.56008V3.97183C13.9194 3.89045 13.6876 3.60527 13.6876 3.26595ZM15.9792 5.76595C15.9792 6.16036 15.6661 6.48163 15.2749 6.49471V5.0372C15.6661 5.05028 15.9792 5.37155 15.9792 5.76595Z" fill="#4F4F4F"/>
<path fill-rule="evenodd" clip-rule="evenodd" d="M1.34857 5.04175C0.515413 5.04175 0.041748 5.81778 0.041748 6.50008V14.8334C0.041748 15.5157 0.515413 16.2917 1.34857 16.2917H3.73493C4.56808 16.2917 5.04175 15.5157 5.04175 14.8334V14.5892C5.06577 14.5807 5.08954 14.5706 5.11292 14.5589C5.54257 14.3441 5.77081 14.3156 5.97348 14.3354C6.19387 14.3569 6.41648 14.4335 6.82517 14.5741C6.90218 14.6006 6.98584 14.6294 7.07731 14.6605C8.59721 15.1774 10.6669 15.3522 12.6094 14.9166C14.5597 14.4794 16.4539 13.4065 17.4758 11.3631C17.6406 11.0335 17.7682 10.7035 17.7842 10.3986C17.7927 10.2358 17.7714 10.0474 17.6768 9.86615C17.5782 9.67724 17.4265 9.54714 17.2618 9.46701C16.9726 9.3263 16.6384 9.33733 16.3899 9.36346C16.1153 9.39235 15.799 9.45912 15.4688 9.53835C15.2263 9.59655 14.9673 9.66331 14.6941 9.73372C13.4378 10.0575 11.8823 10.4585 10.25 10.4586C10.2509 10.4586 10.2513 10.4587 10.25 10.4586C10.2458 10.4584 10.2286 10.4575 10.1969 10.4544C10.1596 10.4507 10.111 10.4448 10.054 10.4363C9.93938 10.4192 9.80022 10.3931 9.66002 10.3583C9.62485 10.3496 9.59042 10.3405 9.55696 10.3311C9.93969 10.1394 10.5976 9.89418 11.6645 9.60321L11.737 9.5834C12.3585 9.41287 12.9521 8.95441 12.9508 8.27563C12.9502 7.92315 12.7739 7.61655 12.4968 7.41819C12.2325 7.22909 11.9006 7.15074 11.5561 7.1483C11.0502 7.14471 10.4814 7.21611 9.97518 7.27965C9.88724 7.29069 9.80111 7.3015 9.71761 7.31163C9.1046 7.38599 8.64766 7.42084 8.3518 7.36307C8.27707 7.34848 8.18814 7.31068 8.03752 7.22819C8.01546 7.21612 7.99073 7.20224 7.96377 7.18711C7.83714 7.11607 7.66132 7.01743 7.48273 6.94789C6.74379 6.66016 6.17409 6.53045 5.6564 6.62195C5.425 6.66285 5.22251 6.74663 5.04175 6.84744V6.50008C5.04175 5.81778 4.56808 5.04175 3.73493 5.04175H1.34857ZM6.09482 13.0913C5.73993 13.0567 5.40464 13.1031 5.04175 13.2308V8.33932C5.10005 8.31869 5.15626 8.28899 5.20835 8.24993C5.58788 7.96536 5.70988 7.88188 5.87397 7.85287C6.0373 7.824 6.33494 7.84237 7.02917 8.1127C7.11879 8.14759 7.19824 8.19187 7.31629 8.25766C7.35247 8.27782 7.39229 8.30001 7.43713 8.32457C7.60325 8.41554 7.8355 8.53586 8.11225 8.5899C8.63692 8.69234 9.29758 8.62174 9.86814 8.55253C9.96264 8.54107 10.056 8.52943 10.148 8.51795C10.5671 8.4657 10.96 8.41671 11.3169 8.40237C9.97358 8.76965 9.1171 9.10257 8.62758 9.42367C8.39076 9.57902 8.14092 9.79407 8.03393 10.0986C7.90116 10.4766 8.04277 10.8072 8.2342 11.0159C8.40036 11.1971 8.61897 11.3123 8.7921 11.3866C8.97731 11.4661 9.17717 11.5264 9.35884 11.5715C9.70812 11.6582 10.0743 11.7086 10.2501 11.7086C12.0588 11.7084 13.8023 11.2569 15.0553 10.9324C15.3122 10.8659 15.5485 10.8047 15.7605 10.7539C16.0406 10.6866 16.2669 10.6397 16.4457 10.6156C16.4225 10.6697 16.3937 10.7323 16.3577 10.8041C15.5526 12.4141 14.0413 13.3146 12.3359 13.6969C10.6228 14.081 8.78691 13.9216 7.47979 13.4771C7.40757 13.4525 7.33573 13.4275 7.26426 13.4027C6.86409 13.2636 6.47523 13.1284 6.09482 13.0913ZM11.7135 8.21337C11.7136 8.21338 11.7133 8.21389 11.7126 8.21489L11.7135 8.21337ZM1.29175 6.50008C1.29175 6.40554 1.32351 6.33918 1.35017 6.3066C1.3561 6.29936 1.36079 6.29467 1.36414 6.29175H3.71935C3.7227 6.29467 3.7274 6.29936 3.73333 6.3066C3.75999 6.33918 3.79175 6.40554 3.79175 6.50008V14.8334C3.79175 14.928 3.75999 14.9943 3.73333 15.0269C3.7274 15.0341 3.7227 15.0388 3.71935 15.0417H1.36414C1.36079 15.0388 1.3561 15.0341 1.35017 15.0269C1.32351 14.9943 1.29175 14.928 1.29175 14.8334V6.50008Z" fill="#4F4F4F"/>
</svg>
