<svg width="16" height="16" viewBox="0 0 16 16" fill="none" xmlns="http://www.w3.org/2000/svg">
<path d="M1.02439 3.72396C0.678734 3.40304 0.506836 3.00579 0.506836 2.53313C0.506836 2.06047 0.679653 1.64574 1.02439 1.32389C1.37005 1.00296 1.81499 0.842041 2.36013 0.842041C2.90527 0.842041 3.33276 1.00296 3.67749 1.32389C4.02315 1.64482 4.19505 2.04852 4.19505 2.53313C4.19505 3.01774 4.02223 3.40304 3.67749 3.72396C3.33184 4.04489 2.89332 4.20582 2.36013 4.20582C1.82694 4.20582 1.37005 4.04489 1.02439 3.72396ZM3.90456 5.56494V15.4043H0.796406V5.56494H3.90456Z" fill="white"/>
<path d="M14.251 6.53705C14.9286 7.2727 15.2669 8.28239 15.2669 9.56795V15.2306H12.315V9.96704C12.315 9.31874 12.1468 8.81482 11.8112 8.45618C11.4757 8.09755 11.0234 7.91732 10.4571 7.91732C9.89083 7.91732 9.43851 8.09663 9.10297 8.45618C8.76743 8.81482 8.5992 9.31874 8.5992 9.96704V15.2306H5.62988V5.53747H8.5992V6.82303C8.89981 6.39451 9.30524 6.05612 9.81453 5.80691C10.3238 5.55771 10.8965 5.43356 11.5336 5.43356C12.668 5.43356 13.5744 5.80139 14.251 6.53612V6.53705Z" fill="white"/>
</svg>
