<svg width="19" height="17" viewBox="0 0 19 17" fill="none" xmlns="http://www.w3.org/2000/svg">
<path fill-rule="evenodd" clip-rule="evenodd" d="M18.1782 16.3636H14.2V10.6112C14.2 9.10546 13.5777 8.07756 12.2093 8.07756C11.1626 8.07756 10.5805 8.77121 10.3096 9.43972C10.208 9.67966 10.2238 10.0139 10.2238 10.3482V16.3636H6.28265C6.28265 16.3636 6.33345 6.1737 6.28265 5.24743H10.2238V6.99204C10.4567 6.22923 11.7161 5.14055 13.7258 5.14055C16.2193 5.14055 18.1782 6.73951 18.1782 10.1826V16.3636ZM2.29699 3.85699H2.27159C1.0016 3.85699 0.178223 3.00721 0.178223 1.93006C0.178223 0.831956 1.02594 0 2.32133 0C3.61566 0 4.41152 0.829871 4.43692 1.92693C4.43692 3.00407 3.61566 3.85699 2.29699 3.85699ZM0.632233 5.24743H4.14059V16.3636H0.632233V5.24743Z" fill="#007EBB"/>
</svg>
