<svg width="16" height="17" viewBox="0 0 16 17" fill="none" xmlns="http://www.w3.org/2000/svg">
<path fill-rule="evenodd" clip-rule="evenodd" d="M11.1667 7.70833C11.1667 9.45723 9.7489 10.875 8 10.875C6.2511 10.875 4.83333 9.45723 4.83333 7.70833C4.83333 5.95943 6.2511 4.54166 8 4.54166C9.7489 4.54166 11.1667 5.95943 11.1667 7.70833ZM9.97917 7.70833C9.97917 8.80139 9.09306 9.6875 8 9.6875C6.90694 9.6875 6.02083 8.80139 6.02083 7.70833C6.02083 6.61527 6.90694 5.72916 8 5.72916C9.09306 5.72916 9.97917 6.61527 9.97917 7.70833Z" fill="#0A090A"/>
<path fill-rule="evenodd" clip-rule="evenodd" d="M6.83495 15.9035C3.5209 14.2399 1.23053 11.2427 0.875 7.70833C0.875 3.7733 4.06497 0.583328 8 0.583328C11.935 0.583328 15.125 3.7733 15.125 7.70833C14.7723 11.2149 12.2192 14.1928 9.14644 15.864C8.42866 16.2544 7.56519 16.2701 6.83495 15.9035ZM8.57905 14.8208C8.20146 15.0262 7.74892 15.0336 7.3677 14.8422C4.38283 13.3439 2.39175 10.6977 2.06279 7.64942C2.0944 4.39736 4.74047 1.77083 8 1.77083C11.2594 1.77083 13.9054 4.39718 13.9372 7.64908C13.6119 10.6285 11.4008 13.2861 8.57905 14.8208Z" fill="#0A090A"/>
</svg>
