<svg width="16" height="18" viewBox="0 0 16 18" fill="none" xmlns="http://www.w3.org/2000/svg">
<path d="M8.625 11.2178C8.75466 11.0709 8.83333 10.878 8.83333 10.6666C8.83333 10.2064 8.46024 9.83329 8 9.83329C7.53976 9.83329 7.16667 10.2064 7.16667 10.6666C7.16667 10.878 7.24534 11.0709 7.375 11.2178V14C7.375 14.3451 7.65482 14.625 8 14.625C8.34518 14.625 8.625 14.3451 8.625 14V11.2178Z" fill="#224982"/>
<path fill-rule="evenodd" clip-rule="evenodd" d="M4.04167 5.66663V3.99996C4.04167 1.81383 5.81387 0.041626 8 0.041626C10.1861 0.041626 11.9583 1.81383 11.9583 3.99996V5.66663H12.1667C14.0076 5.66663 15.5 7.15901 15.5 8.99996V14C15.5 15.8409 14.0076 17.3333 12.1667 17.3333H3.83333C1.99238 17.3333 0.5 15.8409 0.5 14V8.99996C0.5 7.15901 1.99238 5.66663 3.83333 5.66663H4.04167ZM5.29167 3.99996C5.29167 2.50419 6.50423 1.29163 8 1.29163C9.49577 1.29163 10.7083 2.50419 10.7083 3.99996V5.66663H5.29167V3.99996ZM1.75 8.99996C1.75 7.84937 2.68274 6.91663 3.83333 6.91663H12.1667C13.3173 6.91663 14.25 7.84937 14.25 8.99996V14C14.25 15.1506 13.3173 16.0833 12.1667 16.0833H3.83333C2.68274 16.0833 1.75 15.1506 1.75 14V8.99996Z" fill="#224982"/>
</svg>
