<svg width="18" height="18" viewBox="0 0 18 18" fill="none" xmlns="http://www.w3.org/2000/svg">
<path d="M4.83333 0.875C2.64721 0.875 0.875 2.64721 0.875 4.83333V13.1667C0.875 15.3528 2.64721 17.125 4.83333 17.125H6.5C8.22589 17.125 9.625 15.7259 9.625 14C9.625 13.6548 9.34518 13.375 9 13.375C8.65482 13.375 8.375 13.6548 8.375 14C8.375 15.0355 7.53553 15.875 6.5 15.875H4.83333C3.33756 15.875 2.125 14.6624 2.125 13.1667V4.83333C2.125 3.33756 3.33756 2.125 4.83333 2.125H6.5C7.53553 2.125 8.375 2.96447 8.375 4C8.375 4.34518 8.65482 4.625 9 4.625C9.34518 4.625 9.625 4.34518 9.625 4C9.625 2.27411 8.22589 0.875 6.5 0.875H4.83333Z" fill="#224982"/>
<path d="M15.2753 6.89139C15.0312 6.64731 14.6355 6.64731 14.3914 6.89139C14.1473 7.13547 14.1473 7.5312 14.3914 7.77528L14.9911 8.375H8.16667C7.82149 8.375 7.54167 8.65482 7.54167 9C7.54167 9.34518 7.82149 9.625 8.16667 9.625H14.9911L14.3914 10.2247C14.1473 10.4688 14.1473 10.8645 14.3914 11.1086C14.6355 11.3527 15.0312 11.3527 15.2753 11.1086L16.9419 9.44194C17.0592 9.32473 17.125 9.16576 17.125 9C17.125 8.83424 17.0592 8.67527 16.9419 8.55806L15.2753 6.89139Z" fill="#224982"/>
</svg>
