<svg width="16" height="16" viewBox="0 0 16 16" fill="none" xmlns="http://www.w3.org/2000/svg">
<path d="M15.968 7.28685C15.6065 3.20848 12.1713 0 8.00094 0C3.58955 0 0 3.58976 0 7.99953C0 9.61883 0.484818 11.128 1.31607 12.3886L0.319135 14.5982C0.0564853 15.1791 0.524352 15.8249 1.15791 15.7581L4.86985 15.3626C5.83196 15.7731 6.89009 16 8.00094 16C8.28336 16 8.5639 15.9849 8.83879 15.9567C9.09297 15.9294 9.34243 15.8908 9.58908 15.8418C13.2276 15.1056 15.9783 11.8915 16 8.04566V7.99953C16 7.7604 15.9896 7.52033 15.968 7.28685ZM12.4443 6.19853L10.7649 8.78941L9.87621 10.1602C9.68699 10.452 9.28877 10.5217 9.012 10.3108L7.53871 9.19424L6.63026 8.50603C6.55683 8.45049 6.45422 8.45237 6.38267 8.51074L4.15345 10.3296C3.79478 10.6224 3.30431 10.1818 3.55566 9.79395L5.12874 7.36876L6.01741 5.99706C6.20663 5.7052 6.60391 5.63554 6.88162 5.84548L8.31161 6.93004L9.22005 7.6173C9.29348 7.67379 9.39609 7.6719 9.46764 7.61259L11.8456 5.66285C12.2043 5.36911 12.6966 5.80971 12.4443 6.19853Z" fill="white"/>
</svg>
