<svg width="321" height="322" viewBox="0 0 321 322" fill="none" xmlns="http://www.w3.org/2000/svg">
  <g filter="url(#filter0_d_4015_6644)">
    <g clip-path="url(#clip0_4015_6644)">
      <rect x="151.5" y="147.772" width="18" height="18" rx="9" fill="#EB0307"/>
      <path d="M155.03 151.742C154.737 151.449 154.263 151.449 153.97 151.742C153.677 152.035 153.677 152.51 153.97 152.803L158.439 157.272L153.97 161.742C153.677 162.035 153.677 162.51 153.97 162.803C154.263 163.095 154.737 163.095 155.03 162.803L159.5 158.333L163.97 162.803C164.263 163.095 164.737 163.095 165.03 162.803C165.323 162.51 165.323 162.035 165.03 161.742L160.561 157.272L165.03 152.803C165.323 152.51 165.323 152.035 165.03 151.742C164.737 151.449 164.263 151.449 163.97 151.742L159.5 156.212L155.03 151.742Z" fill="white"/>
    </g>
  </g>
  <defs>
    <filter id="filter0_d_4015_6644" x="0" y="0.772217" width="321" height="321" filterUnits="userSpaceOnUse" color-interpolation-filters="sRGB">
      <feFlood flood-opacity="0" result="BackgroundImageFix"/>
      <feColorMatrix in="SourceAlpha" type="matrix" values="0 0 0 0 0 0 0 0 0 0 0 0 0 0 0 0 0 0 127 0" result="hardAlpha"/>
      <feOffset dy="4"/>
      <feGaussianBlur stdDeviation="75"/>
      <feComposite in2="hardAlpha" operator="out"/>
      <feColorMatrix type="matrix" values="0 0 0 0 0.717483 0 0 0 0 0.749558 0 0 0 0 0.779167 0 0 0 0.25 0"/>
      <feBlend mode="normal" in2="BackgroundImageFix" result="effect1_dropShadow_4015_6644"/>
      <feBlend mode="normal" in="SourceGraphic" in2="effect1_dropShadow_4015_6644" result="shape"/>
    </filter>
    <clipPath id="clip0_4015_6644">
      <rect x="151.5" y="147.772" width="18" height="18" rx="9" fill="white"/>
    </clipPath>
  </defs>
</svg>
