<svg width="18" height="18" viewBox="0 0 18 18" fill="none" xmlns="http://www.w3.org/2000/svg">
<path fill-rule="evenodd" clip-rule="evenodd" d="M17.7128 3.88868C18.5287 1.60392 16.3227 -0.602146 14.0379 0.213838L1.94998 4.53096C-0.561834 5.42804 -0.60454 8.9649 1.88487 9.92237L5.6302 11.3629C6.05943 11.528 6.39863 11.8672 6.56371 12.2964L8.00422 16.0417C8.96169 18.5311 12.4986 18.4884 13.3956 15.9766L17.7128 3.88868ZM14.4583 1.39102C15.7498 0.929773 16.9968 2.17678 16.5356 3.46826L12.2185 15.5562C11.7114 16.976 9.71212 17.0002 9.1709 15.593L7.73039 11.8477C7.66128 11.668 7.57492 11.4972 7.47328 11.3373L11.2081 7.60254C11.4521 7.35846 11.4521 6.96273 11.2081 6.71866C10.964 6.47458 10.5682 6.47458 10.3242 6.71866L6.58942 10.4534C6.4295 10.3517 6.25867 10.2653 6.07893 10.1962L2.3336 8.75569C0.926429 8.21447 0.950572 6.21522 2.3704 5.70814L14.4583 1.39102Z" fill="#4F4F4F"/>
</svg>
