<svg width="18" height="14" viewBox="0 0 18 14" fill="none" xmlns="http://www.w3.org/2000/svg">
<path d="M0.875 1.16663C0.875 0.821448 1.15482 0.541626 1.5 0.541626H16.5C16.8452 0.541626 17.125 0.821448 17.125 1.16663C17.125 1.5118 16.8452 1.79163 16.5 1.79163H1.5C1.15482 1.79163 0.875 1.5118 0.875 1.16663Z" fill="#224982"/>
<path d="M0.875 6.99996C0.875 6.65478 1.15482 6.37496 1.5 6.37496H11.5C11.8452 6.37496 12.125 6.65478 12.125 6.99996C12.125 7.34514 11.8452 7.62496 11.5 7.62496H1.5C1.15482 7.62496 0.875 7.34514 0.875 6.99996Z" fill="#224982"/>
<path d="M1.5 12.2083C1.15482 12.2083 0.875 12.4881 0.875 12.8333C0.875 13.1785 1.15482 13.4583 1.5 13.4583H13.1667C13.5118 13.4583 13.7917 13.1785 13.7917 12.8333C13.7917 12.4881 13.5118 12.2083 13.1667 12.2083H1.5Z" fill="#224982"/>
</svg>
