<svg width="18" height="14" viewBox="0 0 18 14" fill="none" xmlns="http://www.w3.org/2000/svg">
<path d="M0.875 1.16675C0.875 0.82157 1.15482 0.541748 1.5 0.541748H16.5C16.8452 0.541748 17.125 0.82157 17.125 1.16675C17.125 1.51193 16.8452 1.79175 16.5 1.79175H1.5C1.15482 1.79175 0.875 1.51193 0.875 1.16675Z" fill="#4F4F4F"/>
<path d="M0.875 7.00008C0.875 6.6549 1.15482 6.37508 1.5 6.37508H16.5C16.8452 6.37508 17.125 6.6549 17.125 7.00008C17.125 7.34526 16.8452 7.62508 16.5 7.62508H1.5C1.15482 7.62508 0.875 7.34526 0.875 7.00008Z" fill="#4F4F4F"/>
<path d="M1.5 12.2084C1.15482 12.2084 0.875 12.4882 0.875 12.8334C0.875 13.1786 1.15482 13.4584 1.5 13.4584H16.5C16.8452 13.4584 17.125 13.1786 17.125 12.8334C17.125 12.4882 16.8452 12.2084 16.5 12.2084H1.5Z" fill="#4F4F4F"/>
</svg>
