<svg width="14" height="18" viewBox="0 0 14 18" fill="none" xmlns="http://www.w3.org/2000/svg">
<path fill-rule="evenodd" clip-rule="evenodd" d="M5.77387 1.67414C3.1559 2.31935 1.21439 4.68322 1.21439 7.50036V8.58342C1.21439 10.0544 0.756449 11.897 0.313941 13.3341C-0.0338614 14.4637 0.790366 15.6667 1.97227 15.6667H5.33343C5.33343 15.8856 5.37654 16.1023 5.4603 16.3046C5.54406 16.5068 5.66682 16.6905 5.82159 16.8453C5.97635 17 6.16008 17.1228 6.36229 17.2065C6.5645 17.2903 6.78123 17.3334 7.0001 17.3334C7.21897 17.3334 7.4357 17.2903 7.63791 17.2065C7.84012 17.1228 8.02385 17 8.17861 16.8453C8.33338 16.6905 8.45614 16.5068 8.5399 16.3046C8.62366 16.1023 8.66677 15.8856 8.66677 15.6667H12.258C13.375 15.6667 14.1863 14.5867 13.931 13.4992C13.587 12.0335 13.2144 10.0969 13.2144 8.58342V7.50036C13.2144 4.52383 11.047 2.05331 8.20427 1.58136C8.19076 1.53285 8.1743 1.48511 8.15495 1.43839C8.09213 1.28674 8.00006 1.14894 7.88398 1.03286C7.76791 0.916791 7.63011 0.824717 7.47846 0.761899C7.3268 0.69908 7.16425 0.666748 7.0001 0.666748C6.83595 0.666748 6.6734 0.69908 6.52175 0.761899C6.37009 0.824717 6.23229 0.916791 6.11622 1.03286C6.00014 1.14894 5.90807 1.28674 5.84525 1.43839C5.81368 1.51462 5.78981 1.59359 5.77387 1.67414ZM2.46439 7.50036V8.58342C2.46439 10.2535 1.95633 12.2478 1.50859 13.702C1.45587 13.8732 1.48897 14.0583 1.59247 14.2057C1.69296 14.3488 1.82894 14.4167 1.97227 14.4167H12.258C12.5236 14.4167 12.7958 14.1329 12.7141 13.7848C12.3673 12.3074 11.9644 10.2511 11.9644 8.58342V7.50036C11.9644 4.87693 9.83766 2.75008 7.21439 2.75008C4.59111 2.75008 2.46439 4.87693 2.46439 7.50036Z" fill="white"/>
</svg>
