<svg width="18" height="18" viewBox="0 0 18 18" fill="none" xmlns="http://www.w3.org/2000/svg">
<path fill-rule="evenodd" clip-rule="evenodd" d="M14.1033 1.02786C13.0265 -0.0490012 11.2805 -0.0490016 10.2037 1.02786L7.69975 3.53178C7.56171 3.66982 7.39342 3.77382 7.20822 3.83556L4.35152 4.78779C2.40685 5.43601 1.8242 7.90413 3.27368 9.35361L5.42972 11.5097L0.46967 16.4697C0.176777 16.7626 0.176777 17.2375 0.46967 17.5304C0.762563 17.8233 1.23744 17.8233 1.53033 17.5304L6.49038 12.5703L8.6166 14.6965C10.0661 16.146 12.5342 15.5634 13.1824 13.6187L14.1347 10.762C14.1964 10.5768 14.3004 10.4085 14.4384 10.2705L16.9423 7.76655C18.0192 6.68969 18.0192 4.94374 16.9423 3.86688L14.1033 1.02786ZM7.12178 11.0804L9.67726 13.6359C10.3383 14.2969 11.4638 14.0312 11.7594 13.1443L12.7116 10.2876C12.847 9.88153 13.0751 9.51251 13.3778 9.2098L15.8817 6.70589C16.3728 6.21481 16.3728 5.41862 15.8817 4.92754L13.0427 2.08852C12.5516 1.59745 11.7554 1.59745 11.2643 2.08852L8.76041 4.59244C8.45771 4.89514 8.08868 5.12321 7.68256 5.25858L4.82586 6.21081C3.93904 6.50642 3.67334 7.63195 4.33434 8.29295L6.91964 10.8783C6.95867 10.9047 6.99577 10.9351 7.03033 10.9697C7.06489 11.0043 7.09538 11.0414 7.12178 11.0804Z" fill="#3489EF"/>
</svg>
