<svg width="20" height="16" viewBox="0 0 20 16" fill="none" xmlns="http://www.w3.org/2000/svg">
<path fill-rule="evenodd" clip-rule="evenodd" d="M13 8C13 9.65685 11.6569 11 10 11C8.34315 11 7 9.65685 7 8C7 6.34315 8.34315 5 10 5C11.6569 5 13 6.34315 13 8ZM11.5 8C11.5 8.82843 10.8284 9.5 10 9.5C9.17157 9.5 8.5 8.82843 8.5 8C8.5 7.17157 9.17157 6.5 10 6.5C10.8284 6.5 11.5 7.17157 11.5 8Z" fill="#3489EF"/>
<path fill-rule="evenodd" clip-rule="evenodd" d="M16 0H4C1.79086 0 0 1.79086 0 4V12C0 14.2091 1.79086 16 4 16H16C18.2091 16 20 14.2091 20 12V4C20 1.79086 18.2091 0 16 0ZM15.25 1.5H4.75V2C4.75 3.51878 3.51878 4.75 2 4.75H1.5V11.25H2C3.51878 11.25 4.75 12.4812 4.75 14V14.5H15.25V14C15.25 12.4812 16.4812 11.25 18 11.25H18.5V4.75H18C16.4812 4.75 15.25 3.51878 15.25 2V1.5ZM1.61445 3.25C1.85865 2.47248 2.47248 1.85865 3.25 1.61445V2C3.25 2.69036 2.69036 3.25 2 3.25H1.61445ZM3.25 14.3855V14C3.25 13.3096 2.69036 12.75 2 12.75H1.61445C1.85865 13.5275 2.47248 14.1413 3.25 14.3855ZM18.3855 12.75C18.1413 13.5275 17.5275 14.1413 16.75 14.3855V14C16.75 13.3096 17.3096 12.75 18 12.75H18.3855ZM18.3855 3.25C18.1413 2.47248 17.5275 1.85865 16.75 1.61445V2C16.75 2.69036 17.3096 3.25 18 3.25H18.3855Z" fill="#3489EF"/>
</svg>
