<svg width="17" height="17" viewBox="0 0 17 17" fill="none" xmlns="http://www.w3.org/2000/svg">
<path fill-rule="evenodd" clip-rule="evenodd" d="M1.54798 3.16733L2.26418 1.73494C2.77293 0.717444 4.129 0.497382 4.9334 1.30178L6.83485 3.20323C7.34211 3.7105 7.46787 4.48545 7.14705 5.1271L6.9281 5.56498C6.57585 6.26949 6.57 7.10313 6.98045 7.77539C7.30178 8.30169 7.71316 8.90611 8.12287 9.31581C8.47597 9.66891 8.9737 10.0233 9.4414 10.3201C10.2252 10.8177 11.2251 10.7239 11.9729 10.1737C12.6397 9.68305 13.5671 9.76363 14.1393 10.3619L15.7722 12.0693C16.5477 12.8802 16.3166 14.2102 15.313 14.712L13.8327 15.4521C12.6823 16.0273 11.3789 16.2717 10.1629 15.8525C8.70231 15.349 6.60907 14.3424 4.63339 12.3667C2.65771 10.391 1.65106 8.29777 1.14758 6.83717C0.728419 5.62119 0.972779 4.31774 1.54798 3.16733ZM2.66602 3.72635L3.38221 2.29396C3.5094 2.03958 3.84842 1.98457 4.04952 2.18567L5.95096 4.08711C6.07778 4.21393 6.10922 4.40767 6.02901 4.56808L5.81007 5.00597C5.2887 6.0487 5.2525 7.34402 5.91358 8.42677C6.24584 8.97096 6.71993 9.68064 7.23898 10.1997C7.69038 10.6511 8.28053 11.0638 8.77152 11.3755C10.0464 12.1847 11.6066 11.9951 12.7137 11.1805C12.8745 11.0622 13.098 11.0817 13.2359 11.2259L14.8688 12.9333C15.0627 13.136 15.0049 13.4685 14.754 13.5939L13.2737 14.3341C12.3142 14.8138 11.369 14.9461 10.5703 14.6707C9.24443 14.2137 7.32898 13.2945 5.51728 11.4828C3.70557 9.6711 2.78637 7.75565 2.32934 6.42981C2.05401 5.63108 2.18626 4.68586 2.66602 3.72635Z" fill="#E6007E"/>
</svg>
