<svg width="14" height="18" viewBox="0 0 14 18" fill="none" xmlns="http://www.w3.org/2000/svg">
<path fill-rule="evenodd" clip-rule="evenodd" d="M11.1666 4.83341C11.1666 7.1346 9.3011 9.00008 6.99992 9.00008C4.69873 9.00008 2.83325 7.1346 2.83325 4.83341C2.83325 2.53223 4.69873 0.666748 6.99992 0.666748C9.3011 0.666748 11.1666 2.53223 11.1666 4.83341ZM9.91659 4.83341C9.91659 6.44425 8.61075 7.75008 6.99992 7.75008C5.38909 7.75008 4.08325 6.44425 4.08325 4.83341C4.08325 3.22258 5.38909 1.91675 6.99992 1.91675C8.61075 1.91675 9.91659 3.22258 9.91659 4.83341Z" fill="#4F4F4F"/>
<path fill-rule="evenodd" clip-rule="evenodd" d="M13.6666 13.5834C13.6666 15.6545 10.6818 17.3334 6.99992 17.3334C3.31802 17.3334 0.333252 15.6545 0.333252 13.5834C0.333252 11.5123 3.31802 9.83342 6.99992 9.83342C10.6818 9.83342 13.6666 11.5123 13.6666 13.5834ZM12.4166 13.5834C12.4166 13.9668 12.1271 14.5685 11.1011 15.1456C10.1143 15.7007 8.66685 16.0834 6.99992 16.0834C5.33299 16.0834 3.88553 15.7007 2.8987 15.1456C1.87269 14.5685 1.58325 13.9668 1.58325 13.5834C1.58325 13.2 1.87269 12.5984 2.8987 12.0212C3.88553 11.4661 5.33299 11.0834 6.99992 11.0834C8.66685 11.0834 10.1143 11.4661 11.1011 12.0212C12.1271 12.5984 12.4166 13.2 12.4166 13.5834Z" fill="#4F4F4F"/>
</svg>
