<svg width="20" height="19" viewBox="0 0 20 19" fill="none" xmlns="http://www.w3.org/2000/svg">
<path fill-rule="evenodd" clip-rule="evenodd" d="M3.3744 3.25006C3.11535 2.47514 3.24111 1.50881 3.95705 0.827787C4.67942 0.140657 5.75962 0.0536119 6.57518 0.635448L9.29852 2.57832C9.72825 2.88489 10.2718 2.88489 10.7015 2.57832L13.4248 0.635449C14.2404 0.0536135 15.3206 0.140656 16.0429 0.827788C16.7589 1.50881 16.8847 2.47514 16.6256 3.25006H18C18.9665 3.25006 19.75 4.03356 19.75 5.00006V7.00006C19.75 7.88168 19.0981 8.61103 18.25 8.73234V15.0001C18.25 17.0711 16.5711 18.7501 14.5 18.7501H5.5C3.42893 18.7501 1.75 17.0711 1.75 15.0001V8.73234C0.901927 8.61103 0.25 7.88168 0.25 7.00006V5.00006C0.25 4.03356 1.0335 3.25006 2 3.25006H3.3744ZM4.99088 1.91462C5.20123 1.71453 5.48343 1.69917 5.70403 1.85655L7.65733 3.25006H5.38257C5.129 3.25006 4.90551 3.08854 4.79979 2.78266C4.69342 2.47491 4.75497 2.13903 4.99088 1.91462ZM2 4.75006C1.86193 4.75006 1.75 4.86199 1.75 5.00006V7.00006C1.75 7.13813 1.86193 7.25006 2 7.25006H18C18.1381 7.25006 18.25 7.13813 18.25 7.00006V5.00006C18.25 4.86199 18.1381 4.75006 18 4.75006H2ZM14.6174 3.25006C14.871 3.25006 15.0945 3.08854 15.2002 2.78266C15.3066 2.47491 15.245 2.13903 15.0091 1.91462C14.7988 1.71454 14.5166 1.69917 14.296 1.85655L12.3427 3.25006H14.6174ZM3.25 15.0001V8.75006H5.88793V11.2008C5.88793 12.4849 7.22315 13.3182 8.37552 12.7878C9.23801 12.3908 10.2448 12.3908 11.1072 12.7878C12.2596 13.3182 13.5948 12.4849 13.5948 11.2008V8.75006H16.75V15.0001C16.75 16.2427 15.7426 17.2501 14.5 17.2501H5.5C4.25736 17.2501 3.25 16.2427 3.25 15.0001ZM7.38793 11.2008V8.75006H12.0948V11.2008C12.0948 11.3754 11.9071 11.5047 11.7344 11.4252C10.4739 10.8449 9.00886 10.8449 7.74831 11.4252C7.57562 11.5047 7.38793 11.3754 7.38793 11.2008Z" fill="#3489EF"/>
</svg>
