<svg width="19" height="18" viewBox="0 0 19 18" fill="none" xmlns="http://www.w3.org/2000/svg">
<path fill-rule="evenodd" clip-rule="evenodd" d="M15.5 6C17.1569 6 18.5 4.65685 18.5 3C18.5 1.34315 17.1569 0 15.5 0C13.8431 0 12.5 1.34315 12.5 3C12.5 3.13506 12.5089 3.26803 12.5262 3.39837L5.66459 6.82918C5.64402 6.83946 5.62413 6.85057 5.60494 6.86243C5.06339 6.32909 4.32013 6 3.5 6C1.84315 6 0.5 7.34315 0.5 9C0.5 10.6569 1.84315 12 3.5 12C4.32013 12 5.06339 11.6709 5.60494 11.1376C5.62414 11.1494 5.64402 11.1605 5.66459 11.1708L12.5262 14.6016C12.5089 14.732 12.5 14.8649 12.5 15C12.5 16.6569 13.8431 18 15.5 18C17.1569 18 18.5 16.6569 18.5 15C18.5 13.3431 17.1569 12 15.5 12C14.5148 12 13.6405 12.4749 13.0936 13.2083L6.37778 9.85036C6.45731 9.58077 6.5 9.29537 6.5 9C6.5 8.70463 6.45731 8.41923 6.37778 8.14964L13.0936 4.79173C13.6405 5.5251 14.5148 6 15.5 6ZM15.5 4.5C16.3284 4.5 17 3.82843 17 3C17 2.17157 16.3284 1.5 15.5 1.5C14.6716 1.5 14 2.17157 14 3C14 3.82843 14.6716 4.5 15.5 4.5ZM3.5 10.5C4.32843 10.5 5 9.82843 5 9C5 8.17157 4.32843 7.5 3.5 7.5C2.67157 7.5 2 8.17157 2 9C2 9.82843 2.67157 10.5 3.5 10.5ZM15.5 16.5C16.3284 16.5 17 15.8284 17 15C17 14.1716 16.3284 13.5 15.5 13.5C14.6716 13.5 14 14.1716 14 15C14 15.8284 14.6716 16.5 15.5 16.5Z" fill="#224982"/>
</svg>
