<svg width="11" height="11" viewBox="0 0 11 11" fill="none" xmlns="http://www.w3.org/2000/svg">
<path d="M5.5 10C7.98528 10 10 7.98528 10 5.5C10 3.01472 7.98528 1 5.5 1C3.01472 1 1 3.01472 1 5.5C1 7.98528 3.01472 10 5.5 10Z" stroke="#3AC0E5" stroke-width="2" stroke-miterlimit="10"/>
<path d="M8.11304 3.89679C7.93465 3.73524 7.69424 3.64546 7.44436 3.64708C7.19448 3.64869 6.95544 3.74157 6.77951 3.9054L5.28597 5.30394L4.75256 4.79057C4.66598 4.70775 4.56247 4.6416 4.44802 4.59596C4.33357 4.55031 4.21045 4.52607 4.08579 4.52465H4.07645C3.82774 4.52244 3.58813 4.61092 3.40968 4.77087L3.39902 4.78072C3.22113 4.94372 3.12002 5.1649 3.11765 5.39627C3.11745 5.51083 3.142 5.62427 3.18986 5.72996C3.23771 5.83565 3.30791 5.93147 3.39635 6.01183L4.54185 7.06812C4.73963 7.2505 5.00776 7.35294 5.2873 7.35294C5.56685 7.35294 5.83496 7.2505 6.03274 7.06812L8.13572 5.12543C8.22368 5.04487 8.29339 4.94896 8.34078 4.84327C8.38817 4.73759 8.41229 4.62426 8.41175 4.50987C8.40811 4.39456 8.37986 4.28105 8.3286 4.17584C8.27734 4.07064 8.20409 3.9758 8.11304 3.89679Z" fill="#3AC0E5"/>
</svg>
