<svg width="15" height="16" viewBox="0 0 15 16" fill="none" xmlns="http://www.w3.org/2000/svg">
<path d="M14.1176 3.87414V6.63187C13.6268 6.5848 12.989 6.47532 12.2835 6.22154C11.3623 5.89 10.6766 5.43668 10.2274 5.0857V10.6595L10.2159 10.6421C10.2232 10.7526 10.2274 10.8652 10.2274 10.9788C10.2274 13.7467 7.93369 16 5.1137 16C2.29371 16 0 13.7467 0 10.9788C0 8.2108 2.29371 5.95651 5.1137 5.95651C5.38986 5.95651 5.66082 5.978 5.92552 6.01995V8.73778C5.67124 8.64876 5.3982 8.60067 5.1137 8.60067C3.77874 8.60067 2.69181 9.66692 2.69181 10.9788C2.69181 12.2906 3.77874 13.3569 5.1137 13.3569C6.44866 13.3569 7.53559 12.2896 7.53559 10.9788C7.53559 10.9297 7.53455 10.8805 7.53143 10.8314V0H10.3379C10.3483 0.233308 10.3577 0.468667 10.3681 0.701974C10.3868 1.16143 10.5536 1.60246 10.8443 1.96367C11.1851 2.38833 11.6885 2.88156 12.395 3.27552C13.0568 3.64288 13.6779 3.80148 14.1176 3.87618V3.87414Z" fill="white"/>
</svg>
