<svg width="18" height="18" viewBox="0 0 18 18" fill="none" xmlns="http://www.w3.org/2000/svg">
<path d="M11.6772 12.9621C8.31901 12.9621 5.58686 10.2282 5.58594 6.86906C5.58686 6.01754 6.28001 5.3251 7.12944 5.3251C7.21677 5.3251 7.30318 5.33246 7.38592 5.34717C7.56794 5.37752 7.74077 5.43913 7.89981 5.53201C7.9228 5.5458 7.93842 5.56787 7.9421 5.59362L8.29694 7.83093C8.30154 7.85668 8.29327 7.88335 8.2758 7.90266C8.07999 8.11967 7.82994 8.276 7.5514 8.35416L7.41718 8.39187L7.46774 8.52152C7.92555 9.68754 8.85772 10.6191 10.0243 11.0788L10.1539 11.1303L10.1916 10.9961C10.2698 10.7175 10.426 10.4673 10.643 10.2715C10.6586 10.2568 10.6798 10.2494 10.7009 10.2494C10.7055 10.2494 10.7101 10.2494 10.7156 10.2503L12.9523 10.6053C12.9789 10.6099 13.001 10.6246 13.0148 10.6476C13.1067 10.8067 13.1683 10.9805 13.1996 11.1625C13.2143 11.2434 13.2207 11.329 13.2207 11.4182C13.2207 12.2688 12.5285 12.9612 11.6772 12.9621Z" fill="white"/>
<path d="M17.6316 8.38655C17.4505 6.33959 16.5128 4.44068 14.9914 3.04018C13.4608 1.6314 11.4751 0.855286 9.39839 0.855286C4.84051 0.855286 1.13207 4.56482 1.13207 9.12404C1.13207 10.6542 1.55402 12.1448 2.35289 13.4433L0.571289 17.3882L6.27553 16.7804C7.26746 17.1868 8.31729 17.3928 9.39746 17.3928C9.68153 17.3928 9.97295 17.3781 10.2653 17.3477C10.5227 17.3202 10.7829 17.2797 11.0384 17.2282C14.8553 16.4567 17.6417 13.0681 17.6638 9.16819V9.12404C17.6638 8.87576 17.6528 8.62747 17.6307 8.38747L17.6316 8.38655ZM6.49525 15.0488L3.3393 15.3854L4.28158 13.297L4.09312 13.0442C4.07933 13.0258 4.06555 13.0074 4.04992 12.9862C3.23174 11.8561 2.79967 10.5209 2.79967 9.12496C2.79967 5.48531 5.75981 2.5243 9.39839 2.5243C12.8071 2.5243 15.6965 5.18461 15.975 8.58058C15.9898 8.76265 15.998 8.94565 15.998 9.12588C15.998 9.17738 15.9971 9.22796 15.9962 9.28221C15.9263 12.3269 13.8 14.9127 10.8251 15.5711C10.5981 15.6217 10.3655 15.6603 10.1338 15.6852C9.89297 15.7128 9.64568 15.7265 9.40023 15.7265C8.52597 15.7265 7.67654 15.5573 6.874 15.2226C6.78483 15.1868 6.69749 15.1481 6.61567 15.1086L6.49617 15.0507L6.49525 15.0488Z" fill="white"/>
</svg>
