<svg width="17" height="12" viewBox="0 0 17 12" fill="none" xmlns="http://www.w3.org/2000/svg">
<path d="M16.8537 3.41194C16.7508 2.41788 16.5292 1.319 15.7138 0.741512C15.0823 0.293682 14.2521 0.277127 13.4772 0.278046C11.839 0.278046 10.1999 0.280808 8.56169 0.281728C6.98602 0.283567 5.41034 0.284486 3.83466 0.286325C3.17644 0.286325 2.53661 0.235747 1.92528 0.520813C1.40036 0.765419 0.989432 1.23072 0.742141 1.74844C0.399243 2.46846 0.327541 3.28412 0.286173 4.08046C0.209871 5.53062 0.218145 6.98446 0.309155 8.4337C0.376264 9.4912 0.546332 10.66 1.36359 11.334C2.08799 11.9308 3.11025 11.9602 4.04977 11.9612C7.03197 11.9639 10.0151 11.9667 12.9982 11.9685C13.3806 11.9694 13.7796 11.9621 14.1694 11.9198C14.9361 11.837 15.6669 11.6172 16.1597 11.0489C16.657 10.4761 16.7848 9.67879 16.8602 8.92383C17.0441 7.09205 17.0422 5.2428 16.8537 3.41194ZM6.83709 8.69118V3.55539L11.2828 6.12282L6.83709 8.69118Z" fill="white"/>
</svg>
